G04 #@! TF.FileFunction,Soldermask,Bot*
%FSLAX46Y46*%
G04 Gerber Fmt 4.6, Leading zero omitted, Abs format (unit mm)*
G04 Created by KiCad (PCBNEW (2015-06-14 BZR 5748)-product) date Saturday, August 01, 2015 'AMt' 10:31:55 AM*
%MOMM*%
G01*
G04 APERTURE LIST*
%ADD10C,0.100000*%
%ADD11R,2.032000X2.032000*%
%ADD12O,2.032000X2.032000*%
%ADD13R,2.000000X2.000000*%
%ADD14C,2.000000*%
%ADD15R,1.300000X1.300000*%
%ADD16C,1.300000*%
%ADD17R,1.250000X1.500000*%
%ADD18R,1.600000X2.000000*%
%ADD19C,1.501140*%
%ADD20C,2.999740*%
%ADD21R,1.727200X1.727200*%
%ADD22O,1.727200X1.727200*%
%ADD23R,1.727200X2.032000*%
%ADD24O,1.727200X2.032000*%
%ADD25R,1.300000X1.500000*%
%ADD26R,1.500000X1.300000*%
%ADD27C,1.800000*%
%ADD28C,3.000000*%
%ADD29C,1.524000*%
%ADD30C,2.612000*%
%ADD31O,1.600000X1.600000*%
%ADD32C,1.900000*%
%ADD33R,1.500000X1.250000*%
%ADD34R,0.600000X1.500000*%
%ADD35C,5.700000*%
%ADD36C,1.500000*%
G04 APERTURE END LIST*
D10*
D11*
X238506000Y-23368000D03*
D12*
X241046000Y-23368000D03*
D13*
X138120000Y-95250000D03*
D14*
X131120000Y-95250000D03*
D15*
X167640000Y-83312000D03*
D16*
X162640000Y-83312000D03*
D15*
X167894000Y-61976000D03*
D16*
X162894000Y-61976000D03*
D15*
X167640000Y-72644000D03*
D16*
X162640000Y-72644000D03*
X151836000Y-69342000D03*
D15*
X148336000Y-69342000D03*
D16*
X151836000Y-60452000D03*
D15*
X148336000Y-60452000D03*
D17*
X248666000Y-74656000D03*
X248666000Y-72156000D03*
X245364000Y-74656000D03*
X245364000Y-72156000D03*
D16*
X213162000Y-79248000D03*
D15*
X216662000Y-79248000D03*
D16*
X213162000Y-70612000D03*
D15*
X216662000Y-70612000D03*
D17*
X176657000Y-44343000D03*
X176657000Y-46843000D03*
D16*
X207716000Y-68834000D03*
D15*
X204216000Y-68834000D03*
D16*
X207716000Y-77724000D03*
D15*
X204216000Y-77724000D03*
D18*
X205740000Y-24162000D03*
X205740000Y-28162000D03*
D17*
X208026000Y-23896000D03*
X208026000Y-26396000D03*
X130048000Y-34310000D03*
X130048000Y-36810000D03*
X133604000Y-29698000D03*
X133604000Y-27198000D03*
X137668000Y-44470000D03*
X137668000Y-46970000D03*
D19*
X189230860Y-86357880D03*
X186690860Y-86357880D03*
X184658860Y-86357880D03*
X182118860Y-86357880D03*
D20*
X192278860Y-89024880D03*
X178562860Y-89024880D03*
D11*
X249174000Y-23368000D03*
D12*
X251714000Y-23368000D03*
D21*
X216662000Y-23876000D03*
D22*
X214122000Y-23876000D03*
X216662000Y-26416000D03*
X214122000Y-26416000D03*
X216662000Y-28956000D03*
X214122000Y-28956000D03*
D23*
X172212000Y-23876000D03*
D24*
X169672000Y-23876000D03*
X167132000Y-23876000D03*
X164592000Y-23876000D03*
X162052000Y-23876000D03*
X159512000Y-23876000D03*
D25*
X184150000Y-80184000D03*
X184150000Y-82884000D03*
X186690000Y-80184000D03*
X186690000Y-82884000D03*
X181610000Y-82884000D03*
X181610000Y-80184000D03*
X189230000Y-82884000D03*
X189230000Y-80184000D03*
D26*
X135462000Y-46736000D03*
X132762000Y-46736000D03*
X131398000Y-27432000D03*
X128698000Y-27432000D03*
X127842000Y-36576000D03*
X125142000Y-36576000D03*
X135462000Y-44704000D03*
X132762000Y-44704000D03*
X131398000Y-29464000D03*
X128698000Y-29464000D03*
X127842000Y-34544000D03*
X125142000Y-34544000D03*
X205660000Y-41656000D03*
X208360000Y-41656000D03*
X205660000Y-44196000D03*
X208360000Y-44196000D03*
D27*
X130008000Y-46624000D03*
X130008000Y-32124000D03*
X127508000Y-32124000D03*
X125008000Y-32124000D03*
X125008000Y-46624000D03*
D28*
X121908000Y-39624000D03*
X133108000Y-39624000D03*
D29*
X229362000Y-29972000D03*
X229362000Y-27432000D03*
X229362000Y-32512000D03*
X251206000Y-29972000D03*
X251206000Y-27432000D03*
X251206000Y-32512000D03*
X241046000Y-29972000D03*
X241046000Y-27432000D03*
X241046000Y-32512000D03*
X221234000Y-29972000D03*
X221234000Y-27432000D03*
X221234000Y-32512000D03*
X246126000Y-38100000D03*
X243586000Y-38100000D03*
X248666000Y-38100000D03*
X221234000Y-41656000D03*
X221234000Y-39116000D03*
X221234000Y-44196000D03*
D30*
X226694000Y-84836000D03*
X231394000Y-84836000D03*
X236094000Y-84836000D03*
X228854000Y-97536000D03*
X233934000Y-97536000D03*
D31*
X129286000Y-66548000D03*
X129286000Y-69088000D03*
X136906000Y-69088000D03*
X136906000Y-66548000D03*
X223520000Y-81026000D03*
X220980000Y-81026000D03*
X220980000Y-73406000D03*
X223520000Y-73406000D03*
D32*
X195326000Y-26416000D03*
X195326000Y-28956000D03*
X195326000Y-31496000D03*
X195326000Y-34036000D03*
X195326000Y-36576000D03*
X195326000Y-39116000D03*
X195326000Y-41656000D03*
X195326000Y-44196000D03*
X195326000Y-46736000D03*
X195326000Y-49276000D03*
X195326000Y-51816000D03*
X195326000Y-54356000D03*
X195326000Y-56896000D03*
X210566000Y-56896000D03*
X210566000Y-54356000D03*
X210566000Y-51816000D03*
X210566000Y-49276000D03*
X210566000Y-46736000D03*
X210566000Y-44196000D03*
X210566000Y-41656000D03*
X210566000Y-39116000D03*
X210566000Y-36576000D03*
X210566000Y-34036000D03*
X210566000Y-31496000D03*
X210566000Y-28956000D03*
X210566000Y-26416000D03*
X210566000Y-23876000D03*
X195326000Y-23876000D03*
X197866000Y-56896000D03*
X200406000Y-56896000D03*
X202946000Y-56896000D03*
X205486000Y-56896000D03*
X208026000Y-56896000D03*
D31*
X173990000Y-67564000D03*
X176530000Y-67564000D03*
X176530000Y-59944000D03*
X173990000Y-59944000D03*
D23*
X182372000Y-48768000D03*
D24*
X184912000Y-48768000D03*
X187452000Y-48768000D03*
D33*
X242804000Y-74676000D03*
X240304000Y-74676000D03*
X242804000Y-72136000D03*
X240304000Y-72136000D03*
D34*
X251079000Y-86946000D03*
X249809000Y-86946000D03*
X248539000Y-86946000D03*
X247269000Y-86946000D03*
X245999000Y-86946000D03*
X244729000Y-86946000D03*
X243459000Y-86946000D03*
X242189000Y-86946000D03*
X242189000Y-77646000D03*
X243459000Y-77646000D03*
X244729000Y-77646000D03*
X245999000Y-77646000D03*
X247269000Y-77646000D03*
X248539000Y-77646000D03*
X249809000Y-77646000D03*
X251079000Y-77646000D03*
D13*
X155392000Y-95250000D03*
D14*
X148392000Y-95250000D03*
D13*
X243134000Y-94488000D03*
D14*
X250134000Y-94488000D03*
D13*
X172664000Y-95250000D03*
D14*
X165664000Y-95250000D03*
D18*
X179070000Y-43593000D03*
X179070000Y-47593000D03*
D35*
X123396240Y-23876000D03*
X123444000Y-94996000D03*
X258064000Y-94996000D03*
X258064000Y-23876000D03*
D36*
X247634000Y-93304000D03*
X245634000Y-93304000D03*
M02*
