G04 #@! TF.FileFunction,Soldermask,Top*
%FSLAX46Y46*%
G04 Gerber Fmt 4.6, Leading zero omitted, Abs format (unit mm)*
G04 Created by KiCad (PCBNEW (2015-06-14 BZR 5748)-product) date Saturday, August 01, 2015 'AMt' 10:31:55 AM*
%MOMM*%
G01*
G04 APERTURE LIST*
%ADD10C,0.100000*%
%ADD11R,2.032000X2.032000*%
%ADD12O,2.032000X2.032000*%
%ADD13R,2.000000X2.000000*%
%ADD14C,2.000000*%
%ADD15R,1.300000X1.300000*%
%ADD16C,1.300000*%
%ADD17R,1.250000X1.500000*%
%ADD18R,2.000000X1.600000*%
%ADD19R,1.500000X1.250000*%
%ADD20R,1.600000X2.000000*%
%ADD21R,3.500120X1.800860*%
%ADD22R,1.800860X3.500120*%
%ADD23R,3.599180X1.998980*%
%ADD24C,1.501140*%
%ADD25C,2.999740*%
%ADD26R,1.727200X1.727200*%
%ADD27O,1.727200X1.727200*%
%ADD28R,1.727200X2.032000*%
%ADD29O,1.727200X2.032000*%
%ADD30R,1.651000X3.048000*%
%ADD31R,6.096000X6.096000*%
%ADD32R,3.048000X1.651000*%
%ADD33R,1.550000X0.600000*%
%ADD34R,1.300000X1.500000*%
%ADD35R,1.500000X1.300000*%
%ADD36C,1.800000*%
%ADD37C,3.000000*%
%ADD38C,1.524000*%
%ADD39C,2.612000*%
%ADD40R,1.143000X0.508000*%
%ADD41R,1.066800X2.286000*%
%ADD42R,10.668000X8.890000*%
%ADD43R,2.000000X1.000000*%
%ADD44R,0.508000X1.143000*%
%ADD45O,1.600000X1.600000*%
%ADD46R,0.600000X1.500000*%
%ADD47R,0.600000X1.550000*%
%ADD48R,1.175000X1.175000*%
%ADD49R,1.702400X0.752400*%
%ADD50C,1.900000*%
%ADD51R,1.500000X0.600000*%
%ADD52R,1.060000X0.650000*%
%ADD53R,0.650000X1.060000*%
%ADD54R,2.900680X5.400040*%
%ADD55C,5.700000*%
%ADD56C,1.500000*%
G04 APERTURE END LIST*
D10*
D11*
X238506000Y-23368000D03*
D12*
X241046000Y-23368000D03*
D13*
X138120000Y-95250000D03*
D14*
X131120000Y-95250000D03*
D15*
X167640000Y-83312000D03*
D16*
X162640000Y-83312000D03*
D15*
X167894000Y-61976000D03*
D16*
X162894000Y-61976000D03*
D15*
X167640000Y-72644000D03*
D16*
X162640000Y-72644000D03*
X151836000Y-69342000D03*
D15*
X148336000Y-69342000D03*
D16*
X151836000Y-60452000D03*
D15*
X148336000Y-60452000D03*
D17*
X141478000Y-39136000D03*
X141478000Y-41636000D03*
D18*
X188182000Y-69088000D03*
X184182000Y-69088000D03*
D16*
X213162000Y-79248000D03*
D15*
X216662000Y-79248000D03*
D16*
X213162000Y-70612000D03*
D15*
X216662000Y-70612000D03*
D17*
X225298000Y-33762000D03*
X225298000Y-31262000D03*
D19*
X196108000Y-97028000D03*
X198608000Y-97028000D03*
D16*
X207716000Y-68834000D03*
D15*
X204216000Y-68834000D03*
D16*
X207716000Y-77724000D03*
D15*
X204216000Y-77724000D03*
D20*
X219456000Y-66262000D03*
X219456000Y-62262000D03*
X232791000Y-66008000D03*
X232791000Y-62008000D03*
X235331000Y-66008000D03*
X235331000Y-62008000D03*
D18*
X230473000Y-74041000D03*
X226473000Y-74041000D03*
X230473000Y-79121000D03*
X226473000Y-79121000D03*
D19*
X245892000Y-50292000D03*
X248392000Y-50292000D03*
D17*
X217170000Y-33762000D03*
X217170000Y-31262000D03*
D18*
X245142000Y-52832000D03*
X249142000Y-52832000D03*
D17*
X239522000Y-39858000D03*
X239522000Y-37358000D03*
X217170000Y-45446000D03*
X217170000Y-42946000D03*
D21*
X144566640Y-35814000D03*
X149565360Y-35814000D03*
X155915360Y-54356000D03*
X150916640Y-54356000D03*
D22*
X167132000Y-54315360D03*
X167132000Y-49316640D03*
D21*
X207985360Y-84201000D03*
X202986640Y-84201000D03*
D23*
X217932000Y-84836000D03*
X217932000Y-94488000D03*
D24*
X189230860Y-86357880D03*
X186690860Y-86357880D03*
X184658860Y-86357880D03*
X182118860Y-86357880D03*
D25*
X192278860Y-89024880D03*
X178562860Y-89024880D03*
D11*
X249174000Y-23368000D03*
D12*
X251714000Y-23368000D03*
D26*
X216662000Y-23876000D03*
D27*
X214122000Y-23876000D03*
X216662000Y-26416000D03*
X214122000Y-26416000D03*
X216662000Y-28956000D03*
X214122000Y-28956000D03*
D28*
X172212000Y-23876000D03*
D29*
X169672000Y-23876000D03*
X167132000Y-23876000D03*
X164592000Y-23876000D03*
X162052000Y-23876000D03*
X159512000Y-23876000D03*
D30*
X140462000Y-54356000D03*
D31*
X142748000Y-48006000D03*
D30*
X145034000Y-54356000D03*
D32*
X155956000Y-50546000D03*
D31*
X149606000Y-48260000D03*
D32*
X155956000Y-45974000D03*
D33*
X195994000Y-75565000D03*
X195994000Y-74295000D03*
X195994000Y-73025000D03*
X195994000Y-71755000D03*
X190594000Y-71755000D03*
X190594000Y-73025000D03*
X190594000Y-74295000D03*
X190594000Y-75565000D03*
D32*
X202946000Y-87630000D03*
D31*
X209296000Y-89916000D03*
D32*
X202946000Y-92202000D03*
D34*
X178562000Y-72818000D03*
X178562000Y-75518000D03*
D35*
X143844000Y-57912000D03*
X141144000Y-57912000D03*
X178388000Y-77978000D03*
X175688000Y-77978000D03*
X191182000Y-69088000D03*
X193882000Y-69088000D03*
X191182000Y-65278000D03*
X193882000Y-65278000D03*
D34*
X200152000Y-70278000D03*
X200152000Y-72978000D03*
D35*
X131238000Y-73152000D03*
X133938000Y-73152000D03*
D34*
X200152000Y-65198000D03*
X200152000Y-67898000D03*
D35*
X203628000Y-94996000D03*
X206328000Y-94996000D03*
X244268000Y-26416000D03*
X246968000Y-26416000D03*
X234108000Y-26416000D03*
X236808000Y-26416000D03*
D34*
X238506000Y-76628000D03*
X238506000Y-79328000D03*
D35*
X232330000Y-70612000D03*
X235030000Y-70612000D03*
X248492000Y-42164000D03*
X245792000Y-42164000D03*
X220900000Y-78994000D03*
X223600000Y-78994000D03*
D34*
X252730000Y-40814000D03*
X252730000Y-43514000D03*
X242062000Y-42846000D03*
X242062000Y-45546000D03*
X252730000Y-45894000D03*
X252730000Y-48594000D03*
X239522000Y-45546000D03*
X239522000Y-42846000D03*
D35*
X158416000Y-28194000D03*
X161116000Y-28194000D03*
D34*
X173990000Y-72724000D03*
X173990000Y-70024000D03*
D36*
X130008000Y-46624000D03*
X130008000Y-32124000D03*
X127508000Y-32124000D03*
X125008000Y-32124000D03*
X125008000Y-46624000D03*
D37*
X121908000Y-39624000D03*
X133108000Y-39624000D03*
D38*
X229362000Y-29972000D03*
X229362000Y-27432000D03*
X229362000Y-32512000D03*
X251206000Y-29972000D03*
X251206000Y-27432000D03*
X251206000Y-32512000D03*
X241046000Y-29972000D03*
X241046000Y-27432000D03*
X241046000Y-32512000D03*
X221234000Y-29972000D03*
X221234000Y-27432000D03*
X221234000Y-32512000D03*
X246126000Y-38100000D03*
X243586000Y-38100000D03*
X248666000Y-38100000D03*
X221234000Y-41656000D03*
X221234000Y-39116000D03*
X221234000Y-44196000D03*
D39*
X226694000Y-84836000D03*
X231394000Y-84836000D03*
X236094000Y-84836000D03*
X228854000Y-97536000D03*
X233934000Y-97536000D03*
D40*
X150241000Y-38989000D03*
X150241000Y-40259000D03*
X150241000Y-41529000D03*
X150241000Y-42799000D03*
X143891000Y-42799000D03*
X143891000Y-41529000D03*
X143891000Y-40259000D03*
X143891000Y-38989000D03*
D41*
X182150400Y-66100000D03*
D42*
X185554000Y-57337000D03*
D41*
X185554000Y-66100000D03*
X183852200Y-66100000D03*
X187255800Y-66100000D03*
X188957600Y-66100000D03*
D43*
X191650000Y-42266000D03*
X191650000Y-40266000D03*
X191650000Y-38266000D03*
X191650000Y-36266000D03*
X191650000Y-34266000D03*
X191650000Y-32266000D03*
X191650000Y-30266000D03*
X191650000Y-28266000D03*
X176650000Y-42266000D03*
X176650000Y-40266000D03*
X176650000Y-38266000D03*
X176650000Y-36266000D03*
X176650000Y-34266000D03*
X176650000Y-32266000D03*
X176650000Y-30266000D03*
X176650000Y-28266000D03*
D44*
X199771000Y-94615000D03*
X198501000Y-94615000D03*
X197231000Y-94615000D03*
X195961000Y-94615000D03*
X195961000Y-88265000D03*
X197231000Y-88265000D03*
X198501000Y-88265000D03*
X199771000Y-88265000D03*
D45*
X129286000Y-66548000D03*
X129286000Y-69088000D03*
X136906000Y-69088000D03*
X136906000Y-66548000D03*
D46*
X233172000Y-38956000D03*
X231902000Y-38956000D03*
X230632000Y-38956000D03*
X229362000Y-38956000D03*
X228092000Y-38956000D03*
X226822000Y-38956000D03*
X225552000Y-38956000D03*
X225552000Y-44356000D03*
X226822000Y-44356000D03*
X228092000Y-44356000D03*
X229362000Y-44356000D03*
X230632000Y-44356000D03*
X231902000Y-44356000D03*
X233172000Y-44356000D03*
D41*
X222656400Y-66294000D03*
D42*
X226060000Y-57531000D03*
D41*
X226060000Y-66294000D03*
X224358200Y-66294000D03*
X227761800Y-66294000D03*
X229463600Y-66294000D03*
D47*
X236474000Y-73881000D03*
X235204000Y-73881000D03*
X233934000Y-73881000D03*
X232664000Y-73881000D03*
X232664000Y-79281000D03*
X233934000Y-79281000D03*
X235204000Y-79281000D03*
X236474000Y-79281000D03*
D48*
X233981500Y-77168500D03*
X235156500Y-77168500D03*
X233981500Y-75993500D03*
X235156500Y-75993500D03*
D49*
X249842000Y-48133000D03*
X249842000Y-46863000D03*
X249842000Y-45593000D03*
X249842000Y-44323000D03*
X244442000Y-44323000D03*
X244442000Y-45593000D03*
X244442000Y-46863000D03*
X244442000Y-48133000D03*
D45*
X223520000Y-81026000D03*
X220980000Y-81026000D03*
X220980000Y-73406000D03*
X223520000Y-73406000D03*
D40*
X163449000Y-30861000D03*
X163449000Y-29591000D03*
X163449000Y-28321000D03*
X163449000Y-27051000D03*
X169799000Y-27051000D03*
X169799000Y-28321000D03*
X169799000Y-29591000D03*
X169799000Y-30861000D03*
D50*
X195326000Y-26416000D03*
X195326000Y-28956000D03*
X195326000Y-31496000D03*
X195326000Y-34036000D03*
X195326000Y-36576000D03*
X195326000Y-39116000D03*
X195326000Y-41656000D03*
X195326000Y-44196000D03*
X195326000Y-46736000D03*
X195326000Y-49276000D03*
X195326000Y-51816000D03*
X195326000Y-54356000D03*
X195326000Y-56896000D03*
X210566000Y-56896000D03*
X210566000Y-54356000D03*
X210566000Y-51816000D03*
X210566000Y-49276000D03*
X210566000Y-46736000D03*
X210566000Y-44196000D03*
X210566000Y-41656000D03*
X210566000Y-39116000D03*
X210566000Y-36576000D03*
X210566000Y-34036000D03*
X210566000Y-31496000D03*
X210566000Y-28956000D03*
X210566000Y-26416000D03*
X210566000Y-23876000D03*
X195326000Y-23876000D03*
X197866000Y-56896000D03*
X200406000Y-56896000D03*
X202946000Y-56896000D03*
X205486000Y-56896000D03*
X208026000Y-56896000D03*
D45*
X173990000Y-67564000D03*
X176530000Y-67564000D03*
X176530000Y-59944000D03*
X173990000Y-59944000D03*
D28*
X182372000Y-48768000D03*
D29*
X184912000Y-48768000D03*
X187452000Y-48768000D03*
D51*
X146210000Y-85543000D03*
X146210000Y-84273000D03*
X146210000Y-83003000D03*
X146210000Y-81733000D03*
X146210000Y-80463000D03*
X146210000Y-79193000D03*
X146210000Y-77923000D03*
X146210000Y-76653000D03*
X136910000Y-76653000D03*
X136910000Y-77923000D03*
X136910000Y-79193000D03*
X136910000Y-80463000D03*
X136910000Y-81733000D03*
X136910000Y-83003000D03*
X136910000Y-84273000D03*
X136910000Y-85543000D03*
D13*
X155392000Y-95250000D03*
D14*
X148392000Y-95250000D03*
D13*
X243134000Y-94488000D03*
D14*
X250134000Y-94488000D03*
D52*
X247226000Y-33970000D03*
X245026000Y-33020000D03*
X247226000Y-32070000D03*
X245026000Y-28514000D03*
X247226000Y-29464000D03*
X245026000Y-30414000D03*
X234612000Y-28514000D03*
X236812000Y-29464000D03*
X234612000Y-30414000D03*
X236812000Y-33970000D03*
X234612000Y-33020000D03*
X236812000Y-32070000D03*
D35*
X230552000Y-49784000D03*
X233252000Y-49784000D03*
X233252000Y-47244000D03*
X230552000Y-47244000D03*
D13*
X172664000Y-95250000D03*
D14*
X165664000Y-95250000D03*
D53*
X180914000Y-79332000D03*
X181864000Y-77132000D03*
X182814000Y-79332000D03*
X198054000Y-67480000D03*
X197104000Y-69680000D03*
X196154000Y-67480000D03*
D19*
X133870000Y-84488000D03*
X131370000Y-84488000D03*
D17*
X152146000Y-39136000D03*
X152146000Y-41636000D03*
D19*
X133870000Y-81488000D03*
X131370000Y-81488000D03*
D20*
X235458000Y-43656000D03*
X235458000Y-39656000D03*
D19*
X133870000Y-75488000D03*
X131370000Y-75488000D03*
X133870000Y-78488000D03*
X131370000Y-78488000D03*
D54*
X161622740Y-38608000D03*
X171625260Y-38608000D03*
D30*
X159258000Y-54356000D03*
D31*
X161544000Y-48006000D03*
D30*
X163830000Y-54356000D03*
D33*
X181704000Y-71755000D03*
X181704000Y-73025000D03*
X181704000Y-74295000D03*
X181704000Y-75565000D03*
X187104000Y-75565000D03*
X187104000Y-74295000D03*
X187104000Y-73025000D03*
X187104000Y-71755000D03*
D55*
X123396240Y-23876000D03*
X123444000Y-94996000D03*
X258064000Y-94996000D03*
X258064000Y-23876000D03*
D56*
X247634000Y-93304000D03*
X245634000Y-93304000D03*
M02*
