G04 #@! TF.FileFunction,Copper,L1,Top,Signal*
%FSLAX46Y46*%
G04 Gerber Fmt 4.6, Leading zero omitted, Abs format (unit mm)*
G04 Created by KiCad (PCBNEW (2015-06-14 BZR 5748)-product) date Monday, August 03, 2015 'AMt' 10:40:36 AM*
%MOMM*%
G01*
G04 APERTURE LIST*
%ADD10C,0.100000*%
%ADD11R,2.032000X2.032000*%
%ADD12O,2.032000X2.032000*%
%ADD13R,2.000000X2.000000*%
%ADD14C,2.000000*%
%ADD15R,1.300000X1.300000*%
%ADD16C,1.300000*%
%ADD17R,1.250000X1.500000*%
%ADD18R,2.000000X1.600000*%
%ADD19R,1.500000X1.250000*%
%ADD20R,1.600000X2.000000*%
%ADD21R,3.500120X1.800860*%
%ADD22R,1.800860X3.500120*%
%ADD23R,3.599180X1.998980*%
%ADD24C,1.501140*%
%ADD25C,2.999740*%
%ADD26R,1.727200X1.727200*%
%ADD27O,1.727200X1.727200*%
%ADD28R,1.727200X2.032000*%
%ADD29O,1.727200X2.032000*%
%ADD30R,1.651000X3.048000*%
%ADD31R,6.096000X6.096000*%
%ADD32R,3.048000X1.651000*%
%ADD33R,1.550000X0.600000*%
%ADD34R,1.300000X1.500000*%
%ADD35R,1.500000X1.300000*%
%ADD36C,1.800000*%
%ADD37C,3.000000*%
%ADD38C,1.524000*%
%ADD39C,2.612000*%
%ADD40R,1.143000X0.508000*%
%ADD41R,1.066800X2.286000*%
%ADD42R,10.668000X8.890000*%
%ADD43R,2.000000X1.000000*%
%ADD44R,0.508000X1.143000*%
%ADD45O,1.600000X1.600000*%
%ADD46R,0.600000X1.500000*%
%ADD47R,0.600000X1.550000*%
%ADD48R,1.175000X1.175000*%
%ADD49C,1.900000*%
%ADD50R,1.500000X0.600000*%
%ADD51R,1.060000X0.650000*%
%ADD52R,0.650000X1.060000*%
%ADD53R,2.900680X5.400040*%
%ADD54C,5.700000*%
%ADD55C,1.500000*%
%ADD56C,0.838200*%
%ADD57C,0.600000*%
%ADD58C,0.203200*%
%ADD59C,0.304800*%
%ADD60C,0.406400*%
%ADD61C,1.828800*%
%ADD62C,0.228600*%
%ADD63C,0.250000*%
%ADD64C,0.609600*%
%ADD65C,0.812800*%
%ADD66C,0.254000*%
G04 APERTURE END LIST*
D10*
D11*
X238506000Y-23368000D03*
D12*
X241046000Y-23368000D03*
D13*
X138120000Y-95250000D03*
D14*
X131120000Y-95250000D03*
D15*
X167640000Y-83312000D03*
D16*
X162640000Y-83312000D03*
D15*
X167894000Y-61976000D03*
D16*
X162894000Y-61976000D03*
D15*
X167640000Y-72644000D03*
D16*
X162640000Y-72644000D03*
X151836000Y-69342000D03*
D15*
X148336000Y-69342000D03*
D16*
X151836000Y-60452000D03*
D15*
X148336000Y-60452000D03*
D17*
X141478000Y-39136000D03*
X141478000Y-41636000D03*
D18*
X188182000Y-69088000D03*
X184182000Y-69088000D03*
D16*
X213162000Y-79248000D03*
D15*
X216662000Y-79248000D03*
D16*
X213162000Y-70612000D03*
D15*
X216662000Y-70612000D03*
D17*
X225298000Y-33762000D03*
X225298000Y-31262000D03*
D19*
X196108000Y-97028000D03*
X198608000Y-97028000D03*
D16*
X207716000Y-68834000D03*
D15*
X204216000Y-68834000D03*
D16*
X207716000Y-77724000D03*
D15*
X204216000Y-77724000D03*
D20*
X219456000Y-66262000D03*
X219456000Y-62262000D03*
X232791000Y-66008000D03*
X232791000Y-62008000D03*
X235331000Y-66008000D03*
X235331000Y-62008000D03*
D18*
X230473000Y-74041000D03*
X226473000Y-74041000D03*
X230473000Y-79121000D03*
X226473000Y-79121000D03*
D19*
X245892000Y-50292000D03*
X248392000Y-50292000D03*
D17*
X217170000Y-33762000D03*
X217170000Y-31262000D03*
D18*
X245142000Y-52832000D03*
X249142000Y-52832000D03*
D17*
X239522000Y-39858000D03*
X239522000Y-37358000D03*
X217170000Y-45446000D03*
X217170000Y-42946000D03*
D21*
X144566640Y-35814000D03*
X149565360Y-35814000D03*
X155915360Y-54356000D03*
X150916640Y-54356000D03*
D22*
X167132000Y-54315360D03*
X167132000Y-49316640D03*
D21*
X207985360Y-84201000D03*
X202986640Y-84201000D03*
D23*
X217932000Y-84836000D03*
X217932000Y-94488000D03*
D24*
X189230860Y-86357880D03*
X186690860Y-86357880D03*
X184658860Y-86357880D03*
X182118860Y-86357880D03*
D25*
X192278860Y-89024880D03*
X178562860Y-89024880D03*
D11*
X249174000Y-23368000D03*
D12*
X251714000Y-23368000D03*
D26*
X216662000Y-23876000D03*
D27*
X214122000Y-23876000D03*
X216662000Y-26416000D03*
X214122000Y-26416000D03*
X216662000Y-28956000D03*
X214122000Y-28956000D03*
D28*
X172212000Y-23876000D03*
D29*
X169672000Y-23876000D03*
X167132000Y-23876000D03*
X164592000Y-23876000D03*
X162052000Y-23876000D03*
X159512000Y-23876000D03*
D30*
X140462000Y-54356000D03*
D31*
X142748000Y-48006000D03*
D30*
X145034000Y-54356000D03*
D32*
X155956000Y-50546000D03*
D31*
X149606000Y-48260000D03*
D32*
X155956000Y-45974000D03*
D33*
X195994000Y-75565000D03*
X195994000Y-74295000D03*
X195994000Y-73025000D03*
X195994000Y-71755000D03*
X190594000Y-71755000D03*
X190594000Y-73025000D03*
X190594000Y-74295000D03*
X190594000Y-75565000D03*
D32*
X202946000Y-87630000D03*
D31*
X209296000Y-89916000D03*
D32*
X202946000Y-92202000D03*
D34*
X178562000Y-72818000D03*
X178562000Y-75518000D03*
D35*
X143844000Y-57912000D03*
X141144000Y-57912000D03*
X178388000Y-77978000D03*
X175688000Y-77978000D03*
X191182000Y-69088000D03*
X193882000Y-69088000D03*
X191182000Y-65278000D03*
X193882000Y-65278000D03*
D34*
X200152000Y-70278000D03*
X200152000Y-72978000D03*
D35*
X131238000Y-73152000D03*
X133938000Y-73152000D03*
D34*
X200152000Y-65198000D03*
X200152000Y-67898000D03*
D35*
X203628000Y-94996000D03*
X206328000Y-94996000D03*
X244268000Y-26416000D03*
X246968000Y-26416000D03*
X234108000Y-26416000D03*
X236808000Y-26416000D03*
D34*
X238506000Y-76628000D03*
X238506000Y-79328000D03*
D35*
X232330000Y-70612000D03*
X235030000Y-70612000D03*
X248492000Y-42164000D03*
X245792000Y-42164000D03*
X220900000Y-78994000D03*
X223600000Y-78994000D03*
D34*
X252730000Y-40814000D03*
X252730000Y-43514000D03*
X242062000Y-42846000D03*
X242062000Y-45546000D03*
X252730000Y-45894000D03*
X252730000Y-48594000D03*
X239522000Y-45546000D03*
X239522000Y-42846000D03*
D35*
X158416000Y-28194000D03*
X161116000Y-28194000D03*
D34*
X173990000Y-72724000D03*
X173990000Y-70024000D03*
D36*
X130008000Y-46624000D03*
X130008000Y-32124000D03*
X127508000Y-32124000D03*
X125008000Y-32124000D03*
X125008000Y-46624000D03*
D37*
X121908000Y-39624000D03*
X133108000Y-39624000D03*
D38*
X229362000Y-29972000D03*
X229362000Y-27432000D03*
X229362000Y-32512000D03*
X251206000Y-29972000D03*
X251206000Y-27432000D03*
X251206000Y-32512000D03*
X241046000Y-29972000D03*
X241046000Y-27432000D03*
X241046000Y-32512000D03*
X221234000Y-29972000D03*
X221234000Y-27432000D03*
X221234000Y-32512000D03*
X246126000Y-38100000D03*
X243586000Y-38100000D03*
X248666000Y-38100000D03*
X221234000Y-41656000D03*
X221234000Y-39116000D03*
X221234000Y-44196000D03*
D39*
X226694000Y-84836000D03*
X231394000Y-84836000D03*
X236094000Y-84836000D03*
X228854000Y-97536000D03*
X233934000Y-97536000D03*
D40*
X150241000Y-38989000D03*
X150241000Y-40259000D03*
X150241000Y-41529000D03*
X150241000Y-42799000D03*
X143891000Y-42799000D03*
X143891000Y-41529000D03*
X143891000Y-40259000D03*
X143891000Y-38989000D03*
D41*
X182150400Y-66100000D03*
D42*
X185554000Y-57337000D03*
D41*
X185554000Y-66100000D03*
X183852200Y-66100000D03*
X187255800Y-66100000D03*
X188957600Y-66100000D03*
D43*
X191650000Y-42266000D03*
X191650000Y-40266000D03*
X191650000Y-38266000D03*
X191650000Y-36266000D03*
X191650000Y-34266000D03*
X191650000Y-32266000D03*
X191650000Y-30266000D03*
X191650000Y-28266000D03*
X176650000Y-42266000D03*
X176650000Y-40266000D03*
X176650000Y-38266000D03*
X176650000Y-36266000D03*
X176650000Y-34266000D03*
X176650000Y-32266000D03*
X176650000Y-30266000D03*
X176650000Y-28266000D03*
D44*
X199771000Y-94615000D03*
X198501000Y-94615000D03*
X197231000Y-94615000D03*
X195961000Y-94615000D03*
X195961000Y-88265000D03*
X197231000Y-88265000D03*
X198501000Y-88265000D03*
X199771000Y-88265000D03*
D45*
X129286000Y-66548000D03*
X129286000Y-69088000D03*
X136906000Y-69088000D03*
X136906000Y-66548000D03*
D46*
X233172000Y-38956000D03*
X231902000Y-38956000D03*
X230632000Y-38956000D03*
X229362000Y-38956000D03*
X228092000Y-38956000D03*
X226822000Y-38956000D03*
X225552000Y-38956000D03*
X225552000Y-44356000D03*
X226822000Y-44356000D03*
X228092000Y-44356000D03*
X229362000Y-44356000D03*
X230632000Y-44356000D03*
X231902000Y-44356000D03*
X233172000Y-44356000D03*
D41*
X222656400Y-66294000D03*
D42*
X226060000Y-57531000D03*
D41*
X226060000Y-66294000D03*
X224358200Y-66294000D03*
X227761800Y-66294000D03*
X229463600Y-66294000D03*
D47*
X236474000Y-73881000D03*
X235204000Y-73881000D03*
X233934000Y-73881000D03*
X232664000Y-73881000D03*
X232664000Y-79281000D03*
X233934000Y-79281000D03*
X235204000Y-79281000D03*
X236474000Y-79281000D03*
D48*
X233981500Y-77168500D03*
X235156500Y-77168500D03*
X233981500Y-75993500D03*
X235156500Y-75993500D03*
D33*
X249842000Y-48133000D03*
X249842000Y-46863000D03*
X249842000Y-45593000D03*
X249842000Y-44323000D03*
X244442000Y-44323000D03*
X244442000Y-45593000D03*
X244442000Y-46863000D03*
X244442000Y-48133000D03*
D45*
X223520000Y-81026000D03*
X220980000Y-81026000D03*
X220980000Y-73406000D03*
X223520000Y-73406000D03*
D40*
X163449000Y-30861000D03*
X163449000Y-29591000D03*
X163449000Y-28321000D03*
X163449000Y-27051000D03*
X169799000Y-27051000D03*
X169799000Y-28321000D03*
X169799000Y-29591000D03*
X169799000Y-30861000D03*
D49*
X195326000Y-26416000D03*
X195326000Y-28956000D03*
X195326000Y-31496000D03*
X195326000Y-34036000D03*
X195326000Y-36576000D03*
X195326000Y-39116000D03*
X195326000Y-41656000D03*
X195326000Y-44196000D03*
X195326000Y-46736000D03*
X195326000Y-49276000D03*
X195326000Y-51816000D03*
X195326000Y-54356000D03*
X195326000Y-56896000D03*
X210566000Y-56896000D03*
X210566000Y-54356000D03*
X210566000Y-51816000D03*
X210566000Y-49276000D03*
X210566000Y-46736000D03*
X210566000Y-44196000D03*
X210566000Y-41656000D03*
X210566000Y-39116000D03*
X210566000Y-36576000D03*
X210566000Y-34036000D03*
X210566000Y-31496000D03*
X210566000Y-28956000D03*
X210566000Y-26416000D03*
X210566000Y-23876000D03*
X195326000Y-23876000D03*
X197866000Y-56896000D03*
X200406000Y-56896000D03*
X202946000Y-56896000D03*
X205486000Y-56896000D03*
X208026000Y-56896000D03*
D45*
X173990000Y-67564000D03*
X176530000Y-67564000D03*
X176530000Y-59944000D03*
X173990000Y-59944000D03*
D28*
X182372000Y-48768000D03*
D29*
X184912000Y-48768000D03*
X187452000Y-48768000D03*
D50*
X146210000Y-85543000D03*
X146210000Y-84273000D03*
X146210000Y-83003000D03*
X146210000Y-81733000D03*
X146210000Y-80463000D03*
X146210000Y-79193000D03*
X146210000Y-77923000D03*
X146210000Y-76653000D03*
X136910000Y-76653000D03*
X136910000Y-77923000D03*
X136910000Y-79193000D03*
X136910000Y-80463000D03*
X136910000Y-81733000D03*
X136910000Y-83003000D03*
X136910000Y-84273000D03*
X136910000Y-85543000D03*
D13*
X155392000Y-95250000D03*
D14*
X148392000Y-95250000D03*
D13*
X243134000Y-94488000D03*
D14*
X250134000Y-94488000D03*
D51*
X247226000Y-33970000D03*
X245026000Y-33020000D03*
X247226000Y-32070000D03*
X245026000Y-28514000D03*
X247226000Y-29464000D03*
X245026000Y-30414000D03*
X234612000Y-28514000D03*
X236812000Y-29464000D03*
X234612000Y-30414000D03*
X236812000Y-33970000D03*
X234612000Y-33020000D03*
X236812000Y-32070000D03*
D35*
X230552000Y-49784000D03*
X233252000Y-49784000D03*
X233252000Y-47244000D03*
X230552000Y-47244000D03*
D13*
X172664000Y-95250000D03*
D14*
X165664000Y-95250000D03*
D52*
X180914000Y-79332000D03*
X181864000Y-77132000D03*
X182814000Y-79332000D03*
X198054000Y-67480000D03*
X197104000Y-69680000D03*
X196154000Y-67480000D03*
D19*
X133870000Y-84488000D03*
X131370000Y-84488000D03*
D17*
X152146000Y-39136000D03*
X152146000Y-41636000D03*
D19*
X133870000Y-81488000D03*
X131370000Y-81488000D03*
D20*
X235458000Y-43656000D03*
X235458000Y-39656000D03*
D19*
X133870000Y-75488000D03*
X131370000Y-75488000D03*
X133870000Y-78488000D03*
X131370000Y-78488000D03*
D53*
X161622740Y-38608000D03*
X171625260Y-38608000D03*
D30*
X159258000Y-54356000D03*
D31*
X161544000Y-48006000D03*
D30*
X163830000Y-54356000D03*
D33*
X181704000Y-71755000D03*
X181704000Y-73025000D03*
X181704000Y-74295000D03*
X181704000Y-75565000D03*
X187104000Y-75565000D03*
X187104000Y-74295000D03*
X187104000Y-73025000D03*
X187104000Y-71755000D03*
D54*
X123396240Y-23876000D03*
X123444000Y-94996000D03*
X258064000Y-94996000D03*
X258064000Y-23876000D03*
D55*
X247634000Y-93304000D03*
X245634000Y-93304000D03*
D56*
X234569000Y-76581000D03*
D57*
X128016000Y-37592000D03*
X135636000Y-47752000D03*
X130556000Y-26416000D03*
X234188000Y-42672000D03*
X208788000Y-22606000D03*
X207264000Y-22606000D03*
X205994000Y-22606000D03*
X204724000Y-22606000D03*
X178308000Y-32512000D03*
X178435000Y-42672000D03*
X236220000Y-68834000D03*
X236220000Y-67818000D03*
X235204000Y-67818000D03*
X235204000Y-68834000D03*
X234188000Y-68834000D03*
X234188000Y-67818000D03*
X233172000Y-67818000D03*
X233172000Y-68834000D03*
X232156000Y-68834000D03*
X232156000Y-67818000D03*
X230886000Y-64770000D03*
X230886000Y-65786000D03*
X230886000Y-66802000D03*
X230886000Y-67818000D03*
X230886000Y-68834000D03*
X229870000Y-68834000D03*
X228854000Y-68834000D03*
X227838000Y-68834000D03*
X227838000Y-67818000D03*
X228854000Y-67818000D03*
X229870000Y-67818000D03*
X204216000Y-44196000D03*
X204216000Y-41656000D03*
X162306000Y-30734000D03*
X158496000Y-29464000D03*
X229362000Y-49784000D03*
X229362000Y-45720000D03*
X235458000Y-44196000D03*
X235966000Y-30988000D03*
X246634000Y-30988000D03*
X244602000Y-50292000D03*
X249682000Y-42164000D03*
X134366000Y-83058000D03*
X249936000Y-74676000D03*
X131064000Y-36576000D03*
X137668000Y-48260000D03*
X133604000Y-25908000D03*
X234188000Y-40386000D03*
X208381600Y-28956000D03*
X205740000Y-26568400D03*
X191516000Y-43434000D03*
X179324000Y-49276000D03*
X219456000Y-55372000D03*
X219456000Y-57658000D03*
X219456000Y-59944000D03*
X170942000Y-27432000D03*
X164592000Y-29464000D03*
X164592000Y-27432000D03*
X208026000Y-27686000D03*
X228092000Y-45720000D03*
X176657000Y-48133000D03*
X179832000Y-80264000D03*
X190500000Y-80264000D03*
X229362000Y-47244000D03*
X235458000Y-39116000D03*
X239522000Y-36068000D03*
X248158000Y-44196000D03*
X250698000Y-52832000D03*
X199898000Y-97028000D03*
X242062000Y-78740000D03*
X240284000Y-73406000D03*
X244856000Y-70866000D03*
X249936000Y-72136000D03*
X136906000Y-75946000D03*
X129286000Y-76962000D03*
X129286000Y-75438000D03*
X129286000Y-80010000D03*
X129286000Y-78486000D03*
X129286000Y-84582000D03*
X129286000Y-83058000D03*
X129286000Y-81534000D03*
X193548000Y-64008000D03*
X233934000Y-72644000D03*
X233934000Y-80772000D03*
X228346000Y-37592000D03*
X228346000Y-36830000D03*
X229362000Y-36830000D03*
X229362000Y-37592000D03*
X230632000Y-37592000D03*
X230378000Y-36830000D03*
X235204000Y-54864000D03*
X232664000Y-54864000D03*
X232664000Y-57404000D03*
X235204000Y-57404000D03*
X235204000Y-59944000D03*
X232664000Y-59944000D03*
X226060000Y-64008000D03*
X226060000Y-62484000D03*
X226123500Y-68008500D03*
X249682000Y-50292000D03*
X185420000Y-68072000D03*
X185420000Y-62484000D03*
X185420000Y-64008000D03*
X140716000Y-42672000D03*
X141986000Y-42672000D03*
X143764000Y-43434000D03*
X141986000Y-43434000D03*
X140716000Y-43434000D03*
X182880000Y-78232000D03*
X196088000Y-66548000D03*
X227076000Y-75311000D03*
X225933000Y-75311000D03*
X225806000Y-77851000D03*
X227203000Y-77851000D03*
X225933000Y-76581000D03*
X227203000Y-76581000D03*
X159512000Y-58928000D03*
X162052000Y-58928000D03*
X164592000Y-58928000D03*
X164592000Y-61468000D03*
X162052000Y-61468000D03*
X159512000Y-61468000D03*
X156972000Y-61468000D03*
X154432000Y-61468000D03*
X151892000Y-61468000D03*
X151892000Y-64008000D03*
X154432000Y-64008000D03*
X156972000Y-64008000D03*
X159512000Y-64008000D03*
X162052000Y-64008000D03*
X162052000Y-66548000D03*
X159512000Y-66548000D03*
X156972000Y-66548000D03*
X154432000Y-66548000D03*
X151892000Y-66548000D03*
X162052000Y-56388000D03*
X162052000Y-53848000D03*
X164592000Y-56388000D03*
X167132000Y-56388000D03*
X156972000Y-56388000D03*
X154432000Y-56388000D03*
X151892000Y-56388000D03*
X154432000Y-69088000D03*
X156972000Y-69088000D03*
X159512000Y-69088000D03*
X162052000Y-69088000D03*
X162052000Y-71628000D03*
X159512000Y-71628000D03*
X156972000Y-71628000D03*
X154432000Y-71628000D03*
X164592000Y-71628000D03*
X164592000Y-69088000D03*
X164592000Y-66548000D03*
X164592000Y-64008000D03*
X164592000Y-74168000D03*
X162052000Y-74168000D03*
X159512000Y-74168000D03*
X156972000Y-74168000D03*
X154432000Y-74168000D03*
X154432000Y-76708000D03*
X156972000Y-76708000D03*
X159512000Y-76708000D03*
X162052000Y-76708000D03*
X162052000Y-79248000D03*
X164592000Y-79248000D03*
X164592000Y-76708000D03*
X198628000Y-98044000D03*
X205994000Y-96012000D03*
X206756000Y-96012000D03*
X207518000Y-94742000D03*
X207518000Y-95504000D03*
X197358000Y-87122000D03*
X197358000Y-95758000D03*
X159512000Y-79248000D03*
X156972000Y-79248000D03*
X154432000Y-79248000D03*
X154432000Y-81788000D03*
X156972000Y-81788000D03*
X159512000Y-81788000D03*
X162052000Y-81788000D03*
X164592000Y-81788000D03*
X159512000Y-84328000D03*
X156972000Y-84328000D03*
X154432000Y-84328000D03*
X154432000Y-86868000D03*
X156972000Y-86868000D03*
X159512000Y-86868000D03*
X162052000Y-86868000D03*
X162052000Y-89408000D03*
X159512000Y-89408000D03*
X156972000Y-89408000D03*
X154432000Y-89408000D03*
X159512000Y-94488000D03*
X162052000Y-94488000D03*
X162052000Y-91948000D03*
X159512000Y-91948000D03*
X156972000Y-91948000D03*
X154432000Y-91948000D03*
X156972000Y-94488000D03*
X212852000Y-76708000D03*
X212852000Y-74168000D03*
X210312000Y-74168000D03*
X207772000Y-74168000D03*
X207772000Y-76708000D03*
X210312000Y-76708000D03*
X207772000Y-79248000D03*
X210312000Y-79248000D03*
X210312000Y-71628000D03*
X207772000Y-71628000D03*
X210312000Y-69088000D03*
X207772000Y-66548000D03*
X210312000Y-66548000D03*
X212852000Y-66548000D03*
X212852000Y-69088000D03*
X149352000Y-77978000D03*
X150622000Y-77978000D03*
X150622000Y-76962000D03*
X149352000Y-76962000D03*
X149352000Y-75946000D03*
X150622000Y-75946000D03*
X146304000Y-75184000D03*
X143256000Y-37084000D03*
X142240000Y-37084000D03*
X141224000Y-37084000D03*
X141224000Y-38100000D03*
X142240000Y-38100000D03*
X143256000Y-38100000D03*
X145542000Y-56642000D03*
X145542000Y-57404000D03*
X145542000Y-58166000D03*
X146304000Y-58166000D03*
X146304000Y-57404000D03*
X146304000Y-56642000D03*
X139192000Y-89662000D03*
X172720000Y-61722000D03*
X139954000Y-30734000D03*
X232664000Y-40640000D03*
X150622000Y-86360000D03*
X149352000Y-86360000D03*
X149352000Y-85344000D03*
X150622000Y-85344000D03*
X150622000Y-84328000D03*
X149352000Y-84328000D03*
X146304000Y-86614000D03*
X144780000Y-84328000D03*
X144780000Y-85598000D03*
X144780000Y-81788000D03*
X144780000Y-83058000D03*
X129794000Y-73152000D03*
X241046000Y-86868000D03*
X242189000Y-85852000D03*
X243459000Y-85852000D03*
X244729000Y-85852000D03*
X245999000Y-85852000D03*
X241300000Y-89916000D03*
X240284000Y-89916000D03*
X239268000Y-89916000D03*
X239268000Y-90932000D03*
X240284000Y-90932000D03*
X241300000Y-90932000D03*
X241300000Y-91948000D03*
X240284000Y-91948000D03*
X239268000Y-91948000D03*
X215709500Y-53784500D03*
X221234000Y-48260000D03*
X225806000Y-42418000D03*
X225806000Y-36576000D03*
X239522000Y-41148000D03*
X199136000Y-58420000D03*
X148717000Y-40386000D03*
X155956000Y-52451000D03*
X148336000Y-54356000D03*
X142240000Y-54356000D03*
X198120000Y-34290000D03*
X194056000Y-72136000D03*
X195834000Y-87122000D03*
X175768000Y-76454000D03*
X196850000Y-65024000D03*
X247142000Y-27940000D03*
X236423200Y-27889200D03*
X236474000Y-80772000D03*
X248412000Y-48260000D03*
X242570000Y-46990000D03*
X145288000Y-41656000D03*
X145288000Y-40132000D03*
X216408000Y-59436000D03*
X235204000Y-72390000D03*
X235204000Y-80772000D03*
X247269000Y-85852000D03*
X248539000Y-85852000D03*
X249682000Y-85852000D03*
X251079000Y-85852000D03*
X252222000Y-86995000D03*
X251968000Y-89916000D03*
X252984000Y-89916000D03*
X254000000Y-89916000D03*
X254000000Y-90932000D03*
X252984000Y-90932000D03*
X251968000Y-90932000D03*
X251968000Y-91948000D03*
X252984000Y-91948000D03*
X254000000Y-91948000D03*
X190500000Y-77470000D03*
X186690000Y-78994000D03*
X230378000Y-70358000D03*
X238506000Y-75184000D03*
X183388000Y-75438000D03*
X183896000Y-64262000D03*
X159258000Y-56642000D03*
X150368000Y-43942000D03*
D58*
X215773000Y-31369000D02*
X215265000Y-31369000D01*
D59*
X235458000Y-42906000D02*
X235224000Y-42672000D01*
X235224000Y-42672000D02*
X234188000Y-42672000D01*
X133970000Y-84488000D02*
X134366000Y-84884000D01*
X176650000Y-32266000D02*
X176658000Y-32258000D01*
X176658000Y-32258000D02*
X177800000Y-32258000D01*
X177800000Y-32258000D02*
X178308000Y-32512000D01*
X176650000Y-42266000D02*
X178029000Y-42266000D01*
X178029000Y-42266000D02*
X178435000Y-42672000D01*
X232791000Y-66008000D02*
X232791000Y-67183000D01*
X235204000Y-67818000D02*
X236220000Y-67818000D01*
X234188000Y-68834000D02*
X235204000Y-68834000D01*
X233172000Y-67818000D02*
X234188000Y-67818000D01*
X232156000Y-68834000D02*
X233172000Y-68834000D01*
X232791000Y-67183000D02*
X232156000Y-67818000D01*
X229463600Y-66294000D02*
X229463600Y-66192400D01*
X229463600Y-66192400D02*
X230886000Y-64770000D01*
X230886000Y-65786000D02*
X230886000Y-66802000D01*
X230886000Y-67818000D02*
X230886000Y-68834000D01*
X229870000Y-68834000D02*
X228854000Y-68834000D01*
X227838000Y-68834000D02*
X227838000Y-67818000D01*
X228854000Y-67818000D02*
X229870000Y-67818000D01*
X163449000Y-30861000D02*
X162433000Y-30861000D01*
X162433000Y-30861000D02*
X162306000Y-30734000D01*
X158416000Y-28194000D02*
X158416000Y-29384000D01*
X158416000Y-29384000D02*
X158496000Y-29464000D01*
D60*
X230552000Y-49784000D02*
X229362000Y-49784000D01*
X235458000Y-42906000D02*
X235458000Y-44196000D01*
X229362000Y-45720000D02*
X229362000Y-44356000D01*
X245892000Y-50292000D02*
X244602000Y-50292000D01*
X249682000Y-42164000D02*
X248492000Y-42164000D01*
X236812000Y-31834000D02*
X235966000Y-30988000D01*
X234612000Y-30414000D02*
X235392000Y-30414000D01*
X235392000Y-30414000D02*
X235966000Y-30988000D01*
X245026000Y-30414000D02*
X246060000Y-30414000D01*
X246060000Y-30414000D02*
X246634000Y-30988000D01*
X236812000Y-31834000D02*
X235966000Y-30988000D01*
X246634000Y-30988000D02*
X247226000Y-31580000D01*
X247226000Y-31580000D02*
X247226000Y-32070000D01*
X245892000Y-48788000D02*
X245237000Y-48133000D01*
X245237000Y-48133000D02*
X244442000Y-48133000D01*
X245892000Y-50292000D02*
X245892000Y-48788000D01*
X245142000Y-52038000D02*
X245142000Y-52832000D01*
X245892000Y-51288000D02*
X245142000Y-52038000D01*
X245892000Y-50292000D02*
X245892000Y-51288000D01*
X237066000Y-32070000D02*
X236794000Y-32070000D01*
D59*
X236812000Y-31834000D02*
X235966000Y-30988000D01*
X236812000Y-32070000D02*
X236812000Y-31834000D01*
X133970000Y-84488000D02*
X133970000Y-83962000D01*
X133970000Y-83454000D02*
X134366000Y-83058000D01*
X134421000Y-83003000D02*
X136910000Y-83003000D01*
X134421000Y-83003000D02*
X134366000Y-83058000D01*
X133970000Y-84488000D02*
X133970000Y-83454000D01*
X235458000Y-40406000D02*
X235438000Y-40386000D01*
X235438000Y-40386000D02*
X234188000Y-40386000D01*
X191650000Y-42266000D02*
X191770000Y-42386000D01*
X191770000Y-42386000D02*
X191770000Y-43180000D01*
X191770000Y-43180000D02*
X191516000Y-43434000D01*
X219456000Y-62262000D02*
X219456000Y-59944000D01*
X219456000Y-57658000D02*
X219456000Y-55372000D01*
X169799000Y-27051000D02*
X170561000Y-27051000D01*
X170561000Y-27051000D02*
X170942000Y-27432000D01*
X163449000Y-27051000D02*
X164211000Y-27051000D01*
X164465000Y-29591000D02*
X163449000Y-29591000D01*
X164592000Y-29464000D02*
X164465000Y-29591000D01*
X164211000Y-27051000D02*
X164592000Y-27432000D01*
X228092000Y-44356000D02*
X228092000Y-45720000D01*
D60*
X230552000Y-47244000D02*
X229362000Y-47244000D01*
X235458000Y-40406000D02*
X235458000Y-39116000D01*
X239522000Y-37358000D02*
X239522000Y-36068000D01*
X249842000Y-44323000D02*
X249715000Y-44196000D01*
X249715000Y-44196000D02*
X248158000Y-44196000D01*
X249142000Y-52832000D02*
X250698000Y-52832000D01*
D59*
X198608000Y-97028000D02*
X199898000Y-97028000D01*
X198501000Y-96921000D02*
X198501000Y-94615000D01*
X198608000Y-97028000D02*
X198501000Y-96921000D01*
X136906000Y-76649000D02*
X136906000Y-75946000D01*
X136910000Y-76653000D02*
X136906000Y-76649000D01*
X129286000Y-78486000D02*
X131268000Y-78486000D01*
X129286000Y-78232000D02*
X129286000Y-78486000D01*
X129286000Y-76962000D02*
X129286000Y-78232000D01*
X131220000Y-75438000D02*
X129286000Y-75438000D01*
X131270000Y-75488000D02*
X131220000Y-75438000D01*
X129286000Y-81534000D02*
X131224000Y-81534000D01*
X129286000Y-80010000D02*
X129286000Y-81534000D01*
X131268000Y-78486000D02*
X129286000Y-78486000D01*
X131270000Y-78488000D02*
X131268000Y-78486000D01*
X129286000Y-83058000D02*
X129286000Y-84582000D01*
X131224000Y-81534000D02*
X129286000Y-81534000D01*
X131270000Y-81488000D02*
X131224000Y-81534000D01*
X131176000Y-84582000D02*
X129286000Y-84582000D01*
X131270000Y-84488000D02*
X131176000Y-84582000D01*
X193882000Y-64342000D02*
X193548000Y-64008000D01*
X193882000Y-65278000D02*
X193882000Y-64342000D01*
X226600000Y-79248000D02*
X226568000Y-79216000D01*
X226346000Y-73914000D02*
X226314000Y-73946000D01*
X233934000Y-73881000D02*
X233934000Y-72644000D01*
X233934000Y-79281000D02*
X233934000Y-80772000D01*
X228346000Y-37846000D02*
X228346000Y-37592000D01*
X228346000Y-36830000D02*
X229362000Y-36830000D01*
X229362000Y-37592000D02*
X230632000Y-37592000D01*
X228092000Y-38956000D02*
X228346000Y-37846000D01*
X232664000Y-57404000D02*
X232664000Y-54864000D01*
X235204000Y-59944000D02*
X235204000Y-57404000D01*
X232664000Y-61881000D02*
X232664000Y-59944000D01*
X232791000Y-62008000D02*
X232664000Y-61881000D01*
X226060000Y-66294000D02*
X226060000Y-64008000D01*
X226060000Y-66294000D02*
X226123500Y-68008500D01*
X248392000Y-50292000D02*
X249682000Y-50292000D01*
X185198000Y-68072000D02*
X185420000Y-68072000D01*
X184182000Y-69088000D02*
X185198000Y-68072000D01*
X185420000Y-57471000D02*
X185554000Y-57337000D01*
X185420000Y-62484000D02*
X185420000Y-57471000D01*
X185420000Y-65966000D02*
X185420000Y-64008000D01*
X185554000Y-66100000D02*
X185420000Y-65966000D01*
X143891000Y-42799000D02*
X143764000Y-42926000D01*
X141986000Y-42672000D02*
X142240000Y-42672000D01*
X143764000Y-42926000D02*
X143764000Y-43434000D01*
X141986000Y-43434000D02*
X140716000Y-43434000D01*
X140716000Y-43434000D02*
X140716000Y-42672000D01*
X182814000Y-78298000D02*
X182880000Y-78232000D01*
X182814000Y-79332000D02*
X182814000Y-78298000D01*
X196154000Y-66614000D02*
X196088000Y-66548000D01*
X196154000Y-67480000D02*
X196154000Y-66614000D01*
X226600000Y-78708000D02*
X226600000Y-79248000D01*
X226600000Y-79248000D02*
X226600000Y-78772000D01*
X226473000Y-74708000D02*
X227076000Y-75311000D01*
X226473000Y-74041000D02*
X226473000Y-74708000D01*
X226473000Y-74771000D02*
X225933000Y-75311000D01*
X226473000Y-74041000D02*
X226473000Y-74771000D01*
X226473000Y-78581000D02*
X226473000Y-79121000D01*
X227203000Y-77851000D02*
X226473000Y-78581000D01*
X226473000Y-78518000D02*
X225806000Y-77851000D01*
X226473000Y-79121000D02*
X226473000Y-78518000D01*
X226473000Y-77121000D02*
X225933000Y-76581000D01*
X226473000Y-79121000D02*
X226473000Y-77121000D01*
X151836000Y-58984000D02*
X151892000Y-58928000D01*
X159512000Y-58928000D02*
X162052000Y-58928000D01*
X164592000Y-58928000D02*
X164592000Y-61468000D01*
X162052000Y-61468000D02*
X159512000Y-61468000D01*
X156972000Y-61468000D02*
X154432000Y-61468000D01*
X151892000Y-61468000D02*
X151892000Y-64008000D01*
X154432000Y-64008000D02*
X156972000Y-64008000D01*
X159512000Y-64008000D02*
X162052000Y-64008000D01*
X162052000Y-66548000D02*
X159512000Y-66548000D01*
X156972000Y-66548000D02*
X154432000Y-66548000D01*
X151836000Y-60452000D02*
X151836000Y-58984000D01*
X162052000Y-53848000D02*
X164592000Y-56388000D01*
X159512000Y-58928000D02*
X162052000Y-56388000D01*
X167132000Y-54315360D02*
X167132000Y-56388000D01*
X156972000Y-56388000D02*
X154432000Y-56388000D01*
X151892000Y-56388000D02*
X151892000Y-58928000D01*
X154178000Y-69342000D02*
X154432000Y-69088000D01*
X156972000Y-69088000D02*
X159512000Y-69088000D01*
X162052000Y-69088000D02*
X162052000Y-71628000D01*
X159512000Y-71628000D02*
X156972000Y-71628000D01*
X151836000Y-69342000D02*
X154178000Y-69342000D01*
X163576000Y-72644000D02*
X164592000Y-71628000D01*
X164592000Y-69088000D02*
X164592000Y-66548000D01*
X162640000Y-72644000D02*
X163576000Y-72644000D01*
X162052000Y-74168000D02*
X159512000Y-74168000D01*
X156972000Y-74168000D02*
X154432000Y-74168000D01*
X154432000Y-76708000D02*
X156972000Y-76708000D01*
X159512000Y-76708000D02*
X162052000Y-76708000D01*
X162052000Y-79248000D02*
X164592000Y-79248000D01*
X163068000Y-72644000D02*
X164592000Y-74168000D01*
X162640000Y-72644000D02*
X163068000Y-72644000D01*
X198608000Y-98024000D02*
X198628000Y-98044000D01*
X198608000Y-97028000D02*
X198608000Y-98024000D01*
X206328000Y-95678000D02*
X205994000Y-96012000D01*
X206756000Y-96012000D02*
X206328000Y-95584000D01*
X206328000Y-94996000D02*
X206328000Y-95678000D01*
X207264000Y-94996000D02*
X207518000Y-94742000D01*
X207518000Y-95504000D02*
X207010000Y-94996000D01*
X206328000Y-94996000D02*
X207264000Y-94996000D01*
X197231000Y-87249000D02*
X197358000Y-87122000D01*
X197231000Y-88265000D02*
X197231000Y-87249000D01*
X197231000Y-95631000D02*
X197358000Y-95758000D01*
X197231000Y-94615000D02*
X197231000Y-95631000D01*
X154432000Y-79248000D02*
X156972000Y-79248000D01*
X156972000Y-81788000D02*
X154432000Y-81788000D01*
X162052000Y-81788000D02*
X159512000Y-81788000D01*
X163068000Y-83312000D02*
X164592000Y-81788000D01*
X162640000Y-83312000D02*
X163068000Y-83312000D01*
X160528000Y-83312000D02*
X159512000Y-84328000D01*
X156972000Y-84328000D02*
X154432000Y-84328000D01*
X154432000Y-86868000D02*
X156972000Y-86868000D01*
X159512000Y-86868000D02*
X162052000Y-86868000D01*
X162052000Y-89408000D02*
X159512000Y-89408000D01*
X156972000Y-89408000D02*
X154432000Y-89408000D01*
X162640000Y-83312000D02*
X160528000Y-83312000D01*
X159512000Y-94488000D02*
X156972000Y-94488000D01*
X162052000Y-91948000D02*
X162052000Y-94488000D01*
X156972000Y-91948000D02*
X159512000Y-91948000D01*
X154432000Y-89408000D02*
X154432000Y-91948000D01*
X210312000Y-74168000D02*
X212852000Y-74168000D01*
X207772000Y-76708000D02*
X207772000Y-74168000D01*
X210622000Y-76708000D02*
X210312000Y-76708000D01*
X213162000Y-79248000D02*
X210622000Y-76708000D01*
X207716000Y-79192000D02*
X207772000Y-79248000D01*
X210312000Y-79248000D02*
X213162000Y-79248000D01*
X207716000Y-77724000D02*
X207716000Y-79192000D01*
X207772000Y-71628000D02*
X210312000Y-69088000D01*
X207772000Y-66548000D02*
X210312000Y-66548000D01*
X212852000Y-66548000D02*
X212852000Y-69088000D01*
X210312000Y-74168000D02*
X210312000Y-71628000D01*
D61*
X244450000Y-94488000D02*
X245634000Y-93304000D01*
X243134000Y-94488000D02*
X244450000Y-94488000D01*
D59*
X146210000Y-77923000D02*
X146265000Y-77978000D01*
X146265000Y-77978000D02*
X149352000Y-77978000D01*
X150622000Y-77978000D02*
X150622000Y-76962000D01*
X149352000Y-76962000D02*
X149352000Y-75946000D01*
X146210000Y-76653000D02*
X146304000Y-76559000D01*
X146304000Y-76559000D02*
X146304000Y-75184000D01*
X143891000Y-38989000D02*
X143256000Y-38354000D01*
X141224000Y-37084000D02*
X142240000Y-37084000D01*
X142240000Y-38100000D02*
X141224000Y-38100000D01*
X143256000Y-38354000D02*
X143256000Y-38100000D01*
D60*
X144566640Y-35814000D02*
X144566640Y-36535360D01*
X143891000Y-38862000D02*
X143891000Y-38989000D01*
X145034000Y-54356000D02*
X145415000Y-54356000D01*
X143891000Y-38989000D02*
X141625000Y-38989000D01*
X141625000Y-38989000D02*
X141478000Y-39136000D01*
X144566640Y-36535360D02*
X143891000Y-37211000D01*
X143891000Y-37211000D02*
X143891000Y-38989000D01*
D59*
X145034000Y-56134000D02*
X145542000Y-56642000D01*
X145542000Y-57404000D02*
X145542000Y-58166000D01*
X146304000Y-58166000D02*
X146304000Y-57404000D01*
X145034000Y-54356000D02*
X145034000Y-56134000D01*
D60*
X150241000Y-38989000D02*
X152099000Y-38989000D01*
X152099000Y-38989000D02*
X152146000Y-39036000D01*
X150241000Y-38989000D02*
X150241000Y-36489640D01*
X150241000Y-41529000D02*
X151939000Y-41529000D01*
X151939000Y-41529000D02*
X152146000Y-41736000D01*
X133970000Y-81488000D02*
X134940000Y-80518000D01*
X134940000Y-80518000D02*
X135382000Y-80518000D01*
X135437000Y-80463000D02*
X136910000Y-80463000D01*
X135382000Y-80518000D02*
X135437000Y-80463000D01*
D59*
X138375000Y-80463000D02*
X139192000Y-81280000D01*
X139192000Y-81280000D02*
X139192000Y-89662000D01*
X136910000Y-80463000D02*
X138375000Y-80463000D01*
D60*
X231902000Y-38956000D02*
X231902000Y-35052000D01*
X231902000Y-35052000D02*
X229362000Y-32512000D01*
X229362000Y-32512000D02*
X228112000Y-33762000D01*
X228112000Y-33762000D02*
X225298000Y-33762000D01*
X225532000Y-33762000D02*
X225298000Y-33762000D01*
D59*
X138684000Y-32512000D02*
X138684000Y-32512000D01*
X138430000Y-32766000D02*
X138684000Y-32512000D01*
X134112000Y-67056000D02*
X134112000Y-42926000D01*
X134112000Y-42926000D02*
X135890000Y-41148000D01*
X135890000Y-41148000D02*
X135890000Y-35306000D01*
X135890000Y-35306000D02*
X138430000Y-32766000D01*
X136144000Y-69088000D02*
X134112000Y-67056000D01*
X136906000Y-69088000D02*
X136144000Y-69088000D01*
X139954000Y-30734000D02*
X139954000Y-31242000D01*
X139954000Y-31242000D02*
X138430000Y-32766000D01*
X233172000Y-40132000D02*
X233172000Y-38956000D01*
X232664000Y-40640000D02*
X233172000Y-40132000D01*
D60*
X233172000Y-38956000D02*
X233172000Y-33782000D01*
X233172000Y-33782000D02*
X229362000Y-29972000D01*
X225298000Y-31262000D02*
X229128000Y-27432000D01*
X229128000Y-27432000D02*
X229362000Y-27432000D01*
X229362000Y-29972000D02*
X229362000Y-27432000D01*
D59*
X195961000Y-96881000D02*
X195961000Y-94615000D01*
X196108000Y-97028000D02*
X195961000Y-96881000D01*
X146210000Y-84273000D02*
X146265000Y-84328000D01*
X146265000Y-84328000D02*
X149352000Y-84328000D01*
X149352000Y-85344000D02*
X149352000Y-86360000D01*
X150622000Y-84328000D02*
X150622000Y-85344000D01*
X146210000Y-85543000D02*
X146409000Y-85344000D01*
X146210000Y-85543000D02*
X146304000Y-85637000D01*
X146304000Y-85637000D02*
X146304000Y-86614000D01*
X146210000Y-84273000D02*
X146155000Y-84328000D01*
X146155000Y-84328000D02*
X144780000Y-84328000D01*
X144780000Y-85598000D02*
X146155000Y-85598000D01*
X146155000Y-85598000D02*
X146210000Y-85543000D01*
X146210000Y-81733000D02*
X146155000Y-81788000D01*
X146155000Y-81788000D02*
X144780000Y-81788000D01*
X144780000Y-83058000D02*
X146155000Y-83058000D01*
X146155000Y-83058000D02*
X146210000Y-83003000D01*
D60*
X131238000Y-73152000D02*
X129794000Y-73152000D01*
D61*
X134930000Y-91440000D02*
X148844000Y-91440000D01*
X148844000Y-91440000D02*
X150368000Y-89916000D01*
X150368000Y-89916000D02*
X150368000Y-86614000D01*
X131120000Y-95250000D02*
X134930000Y-91440000D01*
D59*
X242189000Y-85852000D02*
X243459000Y-85852000D01*
X244729000Y-85852000D02*
X245999000Y-85852000D01*
X241300000Y-89916000D02*
X240284000Y-89916000D01*
X239268000Y-89916000D02*
X239268000Y-90932000D01*
X240284000Y-90932000D02*
X241300000Y-90932000D01*
X241300000Y-91948000D02*
X240284000Y-91948000D01*
X226822000Y-38956000D02*
X226822000Y-41402000D01*
X221234000Y-48260000D02*
X215709500Y-53784500D01*
X226822000Y-41402000D02*
X225806000Y-42418000D01*
D60*
X226822000Y-37592000D02*
X226822000Y-38956000D01*
X225806000Y-36576000D02*
X226822000Y-37592000D01*
D59*
X217170000Y-33762000D02*
X219984000Y-33762000D01*
D60*
X219984000Y-33762000D02*
X221234000Y-32512000D01*
D59*
X210566000Y-46736000D02*
X220632000Y-36670000D01*
X220632000Y-36670000D02*
X223266000Y-36670000D01*
D60*
X221234000Y-29972000D02*
X223266000Y-32004000D01*
X223266000Y-36670000D02*
X223346000Y-36750000D01*
X223346000Y-36750000D02*
X225552000Y-38956000D01*
X223266000Y-32004000D02*
X223266000Y-36670000D01*
X217170000Y-31262000D02*
X217404000Y-31262000D01*
X217404000Y-31262000D02*
X221234000Y-27432000D01*
X221234000Y-29972000D02*
X221234000Y-27432000D01*
D59*
X239522000Y-39858000D02*
X239522000Y-41148000D01*
D60*
X246761000Y-45593000D02*
X245491000Y-44323000D01*
X245491000Y-44323000D02*
X244442000Y-44323000D01*
X249842000Y-45593000D02*
X246761000Y-45593000D01*
X245792000Y-44022000D02*
X245491000Y-44323000D01*
X245792000Y-42164000D02*
X245792000Y-44022000D01*
X245792000Y-38434000D02*
X246126000Y-38100000D01*
X245792000Y-42164000D02*
X245792000Y-38434000D01*
X248666000Y-38100000D02*
X246126000Y-38100000D01*
X221234000Y-44196000D02*
X223012000Y-45974000D01*
X223012000Y-45974000D02*
X226822000Y-45974000D01*
X199136000Y-58420000D02*
X214122000Y-58420000D01*
X214122000Y-58420000D02*
X214376000Y-58420000D01*
X214376000Y-58420000D02*
X226822000Y-45974000D01*
X226822000Y-45974000D02*
X226822000Y-44356000D01*
X217170000Y-45446000D02*
X219984000Y-45446000D01*
X219984000Y-45446000D02*
X221234000Y-44196000D01*
X217170000Y-42946000D02*
X221000000Y-39116000D01*
X221000000Y-39116000D02*
X221234000Y-39116000D01*
X221234000Y-39116000D02*
X221234000Y-41656000D01*
X225552000Y-44356000D02*
X222852000Y-41656000D01*
X222852000Y-41656000D02*
X221234000Y-41656000D01*
X155956000Y-50546000D02*
X155956000Y-52451000D01*
X155915360Y-54356000D02*
X155915360Y-52491640D01*
X148844000Y-40259000D02*
X150241000Y-40259000D01*
X148717000Y-40386000D02*
X148844000Y-40259000D01*
X155915360Y-52491640D02*
X155956000Y-52451000D01*
D59*
X155915360Y-54356000D02*
X155956000Y-54315360D01*
D60*
X140462000Y-54356000D02*
X142240000Y-54356000D01*
X148336000Y-54356000D02*
X150916640Y-54356000D01*
X141144000Y-57912000D02*
X141144000Y-57070000D01*
X140462000Y-56388000D02*
X140462000Y-54356000D01*
X141144000Y-57070000D02*
X140462000Y-56388000D01*
D61*
X138120000Y-95250000D02*
X148392000Y-95250000D01*
D60*
X252730000Y-40814000D02*
X252730000Y-36576000D01*
X249174000Y-31412000D02*
X247226000Y-29464000D01*
X249174000Y-33020000D02*
X249174000Y-31412000D01*
X252730000Y-36576000D02*
X249174000Y-33020000D01*
X249174000Y-27516000D02*
X247226000Y-29464000D01*
X249174000Y-23368000D02*
X249174000Y-27516000D01*
X236812000Y-29464000D02*
X238506000Y-27770000D01*
X238506000Y-27770000D02*
X238506000Y-23368000D01*
D59*
X239014000Y-31496000D02*
X239014000Y-33782000D01*
X239014000Y-33782000D02*
X242062000Y-36830000D01*
X242062000Y-36830000D02*
X242062000Y-42846000D01*
X236982000Y-29464000D02*
X239014000Y-31496000D01*
X236812000Y-29464000D02*
X236982000Y-29464000D01*
X187452000Y-48768000D02*
X194818000Y-48768000D01*
X194818000Y-48768000D02*
X195326000Y-49276000D01*
X195326000Y-51816000D02*
X194818000Y-51308000D01*
X194818000Y-51308000D02*
X187452000Y-51308000D01*
X187452000Y-51308000D02*
X184912000Y-48768000D01*
X210566000Y-34036000D02*
X211582000Y-34036000D01*
X215392000Y-27686000D02*
X216662000Y-26416000D01*
X215392000Y-30226000D02*
X215392000Y-27686000D01*
X211582000Y-34036000D02*
X215392000Y-30226000D01*
X210566000Y-31496000D02*
X212344000Y-29718000D01*
X212344000Y-28194000D02*
X214122000Y-26416000D01*
X212344000Y-29718000D02*
X212344000Y-28194000D01*
X171323000Y-30861000D02*
X172212000Y-29972000D01*
X172212000Y-29972000D02*
X172212000Y-23876000D01*
X169799000Y-30861000D02*
X171323000Y-30861000D01*
X179070000Y-33274000D02*
X179324000Y-33274000D01*
X172212000Y-33274000D02*
X179070000Y-33274000D01*
X169799000Y-30861000D02*
X172212000Y-33274000D01*
X198120000Y-34290000D02*
X196596000Y-32766000D01*
X196596000Y-32766000D02*
X196088000Y-32766000D01*
D62*
X196088000Y-32766000D02*
X195834000Y-32766000D01*
D59*
X193548000Y-33274000D02*
X179070000Y-33274000D01*
X194564000Y-32766000D02*
X194818000Y-32766000D01*
X194056000Y-33274000D02*
X194564000Y-32766000D01*
X193548000Y-33274000D02*
X194056000Y-33274000D01*
D62*
X195834000Y-32766000D02*
X194818000Y-32766000D01*
D59*
X169799000Y-29591000D02*
X168783000Y-29591000D01*
X168148000Y-25400000D02*
X169672000Y-23876000D01*
X168148000Y-28956000D02*
X168148000Y-25400000D01*
X168656000Y-29464000D02*
X168148000Y-28956000D01*
X168783000Y-29591000D02*
X168656000Y-29464000D01*
X204216000Y-35306000D02*
X210566000Y-41656000D01*
D62*
X196088000Y-35306000D02*
X194818000Y-35306000D01*
D59*
X168656000Y-29464000D02*
X168656000Y-32512000D01*
X171450000Y-35306000D02*
X179324000Y-35306000D01*
X168656000Y-32512000D02*
X171450000Y-35306000D01*
X194818000Y-35306000D02*
X179324000Y-35306000D01*
X196088000Y-35306000D02*
X204216000Y-35306000D01*
X179742000Y-79332000D02*
X178388000Y-77978000D01*
X180914000Y-79332000D02*
X179742000Y-79332000D01*
X195961000Y-88265000D02*
X195961000Y-87249000D01*
X194437000Y-71755000D02*
X195994000Y-71755000D01*
X194056000Y-72136000D02*
X194437000Y-71755000D01*
X195961000Y-87249000D02*
X195834000Y-87122000D01*
X197104000Y-70645000D02*
X195994000Y-71755000D01*
X197104000Y-69680000D02*
X197104000Y-70645000D01*
X199554000Y-69680000D02*
X200152000Y-70278000D01*
X197104000Y-69680000D02*
X199554000Y-69680000D01*
D60*
X199771000Y-88265000D02*
X199771000Y-87757000D01*
X199771000Y-87757000D02*
X199898000Y-87630000D01*
X199898000Y-87630000D02*
X202946000Y-87630000D01*
D59*
X199734000Y-67480000D02*
X200152000Y-67898000D01*
X198054000Y-67480000D02*
X199734000Y-67480000D01*
D60*
X247226000Y-33970000D02*
X245976000Y-33970000D01*
X245976000Y-33970000D02*
X245026000Y-33020000D01*
X245026000Y-33020000D02*
X244094000Y-33020000D01*
X243586000Y-29954000D02*
X245026000Y-28514000D01*
X243586000Y-32512000D02*
X243586000Y-29954000D01*
X244094000Y-33020000D02*
X243586000Y-32512000D01*
X244268000Y-27756000D02*
X244268000Y-26416000D01*
X245026000Y-28514000D02*
X244268000Y-27756000D01*
X234612000Y-33020000D02*
X235562000Y-33970000D01*
X235562000Y-33970000D02*
X236812000Y-33970000D01*
X234108000Y-28010000D02*
X234612000Y-28514000D01*
X234108000Y-26416000D02*
X234108000Y-28010000D01*
X233426000Y-29700000D02*
X233426000Y-31834000D01*
X234612000Y-28514000D02*
X233426000Y-29700000D01*
X233426000Y-31834000D02*
X234612000Y-33020000D01*
D59*
X175768000Y-76454000D02*
X175768000Y-77898000D01*
X175768000Y-77898000D02*
X175688000Y-77978000D01*
D58*
X175768000Y-78058000D02*
X175688000Y-77978000D01*
D59*
X175768000Y-77898000D02*
X175688000Y-77978000D01*
D63*
X193882000Y-69088000D02*
X193882000Y-67978000D01*
X193882000Y-67978000D02*
X191182000Y-65278000D01*
X188957600Y-66100000D02*
X190360000Y-66100000D01*
X190360000Y-66100000D02*
X191182000Y-65278000D01*
D60*
X129286000Y-66548000D02*
X133938000Y-71200000D01*
X133938000Y-71200000D02*
X133938000Y-73152000D01*
D59*
X196850000Y-65024000D02*
X199644000Y-65024000D01*
X199644000Y-65024000D02*
X199724000Y-64944000D01*
D58*
X199724000Y-64944000D02*
X199724000Y-64944000D01*
D59*
X247142000Y-27940000D02*
X247142000Y-26590000D01*
X247142000Y-26590000D02*
X246968000Y-26416000D01*
X236423200Y-27889200D02*
X236423200Y-26800800D01*
X236423200Y-26800800D02*
X236808000Y-26416000D01*
D60*
X236808000Y-26416000D02*
X236474000Y-26750000D01*
D59*
X236474000Y-80772000D02*
X236474000Y-79281000D01*
D60*
X236474000Y-79281000D02*
X238459000Y-79281000D01*
X238459000Y-79281000D02*
X238506000Y-79328000D01*
X236474000Y-73881000D02*
X236474000Y-72056000D01*
X236474000Y-72056000D02*
X235030000Y-70612000D01*
D59*
X223520000Y-79074000D02*
X223600000Y-78994000D01*
X223520000Y-81026000D02*
X223520000Y-79074000D01*
D60*
X252730000Y-45894000D02*
X252730000Y-43514000D01*
X251761000Y-46863000D02*
X252730000Y-45894000D01*
X252730000Y-45894000D02*
X252730000Y-46054000D01*
X249842000Y-46863000D02*
X251761000Y-46863000D01*
X239522000Y-43006000D02*
X239522000Y-42846000D01*
X242109000Y-45593000D02*
X239522000Y-43006000D01*
X244442000Y-45593000D02*
X242109000Y-45593000D01*
D59*
X249842000Y-48133000D02*
X248539000Y-48133000D01*
X248539000Y-48133000D02*
X248412000Y-48260000D01*
D60*
X252269000Y-48133000D02*
X252730000Y-48594000D01*
X249842000Y-48133000D02*
X252269000Y-48133000D01*
D59*
X239522000Y-45546000D02*
X240966000Y-46990000D01*
X240966000Y-46990000D02*
X242570000Y-46990000D01*
X242697000Y-46863000D02*
X244442000Y-46863000D01*
X242570000Y-46990000D02*
X242697000Y-46863000D01*
X239776000Y-45800000D02*
X239522000Y-45546000D01*
X161116000Y-28194000D02*
X161243000Y-28321000D01*
X161243000Y-28321000D02*
X163449000Y-28321000D01*
X173990000Y-70024000D02*
X173990000Y-67564000D01*
X143891000Y-41529000D02*
X145161000Y-41529000D01*
X145161000Y-41529000D02*
X145288000Y-41656000D01*
X143891000Y-40259000D02*
X145161000Y-40259000D01*
X145161000Y-40259000D02*
X145288000Y-40132000D01*
X191650000Y-30266000D02*
X194016000Y-30266000D01*
X194016000Y-30266000D02*
X195326000Y-28956000D01*
X191650000Y-28266000D02*
X193476000Y-28266000D01*
X193476000Y-28266000D02*
X195326000Y-26416000D01*
D60*
X233172000Y-44356000D02*
X231902000Y-44356000D01*
D59*
X235204000Y-73881000D02*
X235204000Y-72390000D01*
X197866000Y-59436000D02*
X195326000Y-56896000D01*
X198120000Y-59436000D02*
X197866000Y-59436000D01*
X216408000Y-59436000D02*
X198120000Y-59436000D01*
X235204000Y-80772000D02*
X235204000Y-79281000D01*
D60*
X136910000Y-77923000D02*
X135623000Y-77923000D01*
X133970000Y-76270000D02*
X133970000Y-75488000D01*
X135623000Y-77923000D02*
X133970000Y-76270000D01*
X136910000Y-79193000D02*
X134675000Y-79193000D01*
X134675000Y-79193000D02*
X133970000Y-78488000D01*
D59*
X247269000Y-85852000D02*
X248539000Y-85852000D01*
X249682000Y-85852000D02*
X251079000Y-85852000D01*
X252222000Y-86995000D02*
X252222000Y-86868000D01*
X251968000Y-89916000D02*
X252984000Y-89916000D01*
X254000000Y-89916000D02*
X254000000Y-90932000D01*
X252984000Y-90932000D02*
X251968000Y-90932000D01*
X251968000Y-91948000D02*
X252984000Y-91948000D01*
D60*
X187254000Y-75748000D02*
X187254000Y-75505000D01*
D64*
X190594000Y-77376000D02*
X190594000Y-75565000D01*
X190500000Y-77470000D02*
X190594000Y-77376000D01*
D60*
X232330000Y-70612000D02*
X232076000Y-70358000D01*
X232076000Y-70358000D02*
X230378000Y-70358000D01*
X232664000Y-73881000D02*
X232631000Y-73914000D01*
X232631000Y-73914000D02*
X230346000Y-73914000D01*
D65*
X230378000Y-70358000D02*
X230346000Y-70390000D01*
D60*
X190119000Y-71755000D02*
X190594000Y-71755000D01*
X238506000Y-76628000D02*
X238506000Y-75184000D01*
D65*
X230346000Y-70390000D02*
X230346000Y-73914000D01*
D60*
X214122000Y-23876000D02*
X216662000Y-23876000D01*
X216662000Y-23876000D02*
X216662000Y-23622000D01*
X238506000Y-70866000D02*
X238506000Y-76628000D01*
X216662000Y-23622000D02*
X219456000Y-20828000D01*
X239776000Y-69596000D02*
X238760000Y-70612000D01*
X245872000Y-69596000D02*
X239776000Y-69596000D01*
X254508000Y-60960000D02*
X245872000Y-69596000D01*
X254508000Y-20828000D02*
X254508000Y-60960000D01*
X219456000Y-20828000D02*
X254508000Y-20828000D01*
X238760000Y-70612000D02*
X238506000Y-70866000D01*
X233252000Y-49784000D02*
X233252000Y-47244000D01*
X230632000Y-44356000D02*
X230632000Y-45466000D01*
X231728000Y-45720000D02*
X233252000Y-47244000D01*
X230886000Y-45720000D02*
X231728000Y-45720000D01*
X230632000Y-45466000D02*
X230886000Y-45720000D01*
D58*
X183852200Y-66100000D02*
X184277000Y-66524800D01*
D60*
X181854000Y-75505000D02*
X178575000Y-75505000D01*
X178575000Y-75505000D02*
X178562000Y-75518000D01*
D59*
X183896000Y-66056200D02*
X183852200Y-66100000D01*
X183896000Y-64262000D02*
X183896000Y-66056200D01*
X181921000Y-75438000D02*
X183388000Y-75438000D01*
X181854000Y-75505000D02*
X181921000Y-75438000D01*
X181864000Y-75515000D02*
X181854000Y-75505000D01*
X181864000Y-77132000D02*
X181864000Y-75515000D01*
D60*
X159258000Y-54356000D02*
X159258000Y-56896000D01*
X159258000Y-56896000D02*
X159258000Y-56642000D01*
X150368000Y-43942000D02*
X150241000Y-43815000D01*
X150241000Y-43815000D02*
X150241000Y-42799000D01*
D66*
G36*
X153289000Y-52197000D02*
X139319000Y-52197000D01*
X139319000Y-44323000D01*
X149862396Y-44323000D01*
X150012369Y-44473235D01*
X150242735Y-44568891D01*
X150492171Y-44569109D01*
X150722703Y-44473855D01*
X150873822Y-44323000D01*
X153289000Y-44323000D01*
X153289000Y-52197000D01*
X153289000Y-52197000D01*
G37*
X153289000Y-52197000D02*
X139319000Y-52197000D01*
X139319000Y-44323000D01*
X149862396Y-44323000D01*
X150012369Y-44473235D01*
X150242735Y-44568891D01*
X150492171Y-44569109D01*
X150722703Y-44473855D01*
X150873822Y-44323000D01*
X153289000Y-44323000D01*
X153289000Y-52197000D01*
G36*
X214249000Y-80899000D02*
X206248000Y-80899000D01*
X206248000Y-65913000D01*
X214249000Y-65913000D01*
X214249000Y-80899000D01*
X214249000Y-80899000D01*
G37*
X214249000Y-80899000D02*
X206248000Y-80899000D01*
X206248000Y-65913000D01*
X214249000Y-65913000D01*
X214249000Y-80899000D01*
G36*
X204851000Y-95885000D02*
X199517000Y-95885000D01*
X199517000Y-91059000D01*
X204851000Y-91059000D01*
X204851000Y-95885000D01*
X204851000Y-95885000D01*
G37*
X204851000Y-95885000D02*
X199517000Y-95885000D01*
X199517000Y-91059000D01*
X204851000Y-91059000D01*
X204851000Y-95885000D01*
G36*
X205359000Y-85979000D02*
X198882000Y-85979000D01*
X198833399Y-85988667D01*
X198792197Y-86016197D01*
X198764667Y-86057399D01*
X198755000Y-86106000D01*
X198755000Y-88773000D01*
X198247000Y-88773000D01*
X198247000Y-86106000D01*
X198237333Y-86057399D01*
X198209803Y-86016197D01*
X198168601Y-85988667D01*
X198120000Y-85979000D01*
X194945000Y-85979000D01*
X194945000Y-72771000D01*
X197866000Y-72771000D01*
X197887954Y-72766633D01*
X197910056Y-72763114D01*
X197912169Y-72761816D01*
X197914601Y-72761333D01*
X197933212Y-72748897D01*
X197952285Y-72737188D01*
X197953740Y-72735181D01*
X197955803Y-72733803D01*
X197968240Y-72715189D01*
X197981378Y-72697075D01*
X197981954Y-72694663D01*
X197983333Y-72692601D01*
X197987700Y-72670642D01*
X197992906Y-72648881D01*
X198088655Y-70159400D01*
X199168594Y-70159400D01*
X199168594Y-71028000D01*
X199192785Y-71152684D01*
X199264771Y-71262270D01*
X199373445Y-71335625D01*
X199502000Y-71361406D01*
X200802000Y-71361406D01*
X200926684Y-71337215D01*
X201036270Y-71265229D01*
X201109625Y-71156555D01*
X201135406Y-71028000D01*
X201135406Y-69528000D01*
X201111215Y-69403316D01*
X201039229Y-69293730D01*
X200930555Y-69220375D01*
X200802000Y-69194594D01*
X199502000Y-69194594D01*
X199471044Y-69200600D01*
X198125532Y-69200600D01*
X198158501Y-68343406D01*
X198379000Y-68343406D01*
X198503684Y-68319215D01*
X198613270Y-68247229D01*
X198686625Y-68138555D01*
X198712406Y-68010000D01*
X198712406Y-67959400D01*
X199168594Y-67959400D01*
X199168594Y-68648000D01*
X199192785Y-68772684D01*
X199264771Y-68882270D01*
X199373445Y-68955625D01*
X199502000Y-68981406D01*
X200802000Y-68981406D01*
X200926684Y-68957215D01*
X201036270Y-68885229D01*
X201109625Y-68776555D01*
X201135406Y-68648000D01*
X201135406Y-67148000D01*
X201111215Y-67023316D01*
X201039229Y-66913730D01*
X200930555Y-66840375D01*
X200802000Y-66814594D01*
X199502000Y-66814594D01*
X199377316Y-66838785D01*
X199267730Y-66910771D01*
X199207095Y-67000600D01*
X198712406Y-67000600D01*
X198712406Y-66950000D01*
X198688215Y-66825316D01*
X198616229Y-66715730D01*
X198507555Y-66642375D01*
X198379000Y-66616594D01*
X198224917Y-66616594D01*
X198242209Y-66167000D01*
X199254740Y-66167000D01*
X199264771Y-66182270D01*
X199373445Y-66255625D01*
X199502000Y-66281406D01*
X200802000Y-66281406D01*
X200926684Y-66257215D01*
X201036270Y-66185229D01*
X201048575Y-66167000D01*
X205359000Y-66167000D01*
X205359000Y-85979000D01*
X205359000Y-85979000D01*
G37*
X205359000Y-85979000D02*
X198882000Y-85979000D01*
X198833399Y-85988667D01*
X198792197Y-86016197D01*
X198764667Y-86057399D01*
X198755000Y-86106000D01*
X198755000Y-88773000D01*
X198247000Y-88773000D01*
X198247000Y-86106000D01*
X198237333Y-86057399D01*
X198209803Y-86016197D01*
X198168601Y-85988667D01*
X198120000Y-85979000D01*
X194945000Y-85979000D01*
X194945000Y-72771000D01*
X197866000Y-72771000D01*
X197887954Y-72766633D01*
X197910056Y-72763114D01*
X197912169Y-72761816D01*
X197914601Y-72761333D01*
X197933212Y-72748897D01*
X197952285Y-72737188D01*
X197953740Y-72735181D01*
X197955803Y-72733803D01*
X197968240Y-72715189D01*
X197981378Y-72697075D01*
X197981954Y-72694663D01*
X197983333Y-72692601D01*
X197987700Y-72670642D01*
X197992906Y-72648881D01*
X198088655Y-70159400D01*
X199168594Y-70159400D01*
X199168594Y-71028000D01*
X199192785Y-71152684D01*
X199264771Y-71262270D01*
X199373445Y-71335625D01*
X199502000Y-71361406D01*
X200802000Y-71361406D01*
X200926684Y-71337215D01*
X201036270Y-71265229D01*
X201109625Y-71156555D01*
X201135406Y-71028000D01*
X201135406Y-69528000D01*
X201111215Y-69403316D01*
X201039229Y-69293730D01*
X200930555Y-69220375D01*
X200802000Y-69194594D01*
X199502000Y-69194594D01*
X199471044Y-69200600D01*
X198125532Y-69200600D01*
X198158501Y-68343406D01*
X198379000Y-68343406D01*
X198503684Y-68319215D01*
X198613270Y-68247229D01*
X198686625Y-68138555D01*
X198712406Y-68010000D01*
X198712406Y-67959400D01*
X199168594Y-67959400D01*
X199168594Y-68648000D01*
X199192785Y-68772684D01*
X199264771Y-68882270D01*
X199373445Y-68955625D01*
X199502000Y-68981406D01*
X200802000Y-68981406D01*
X200926684Y-68957215D01*
X201036270Y-68885229D01*
X201109625Y-68776555D01*
X201135406Y-68648000D01*
X201135406Y-67148000D01*
X201111215Y-67023316D01*
X201039229Y-66913730D01*
X200930555Y-66840375D01*
X200802000Y-66814594D01*
X199502000Y-66814594D01*
X199377316Y-66838785D01*
X199267730Y-66910771D01*
X199207095Y-67000600D01*
X198712406Y-67000600D01*
X198712406Y-66950000D01*
X198688215Y-66825316D01*
X198616229Y-66715730D01*
X198507555Y-66642375D01*
X198379000Y-66616594D01*
X198224917Y-66616594D01*
X198242209Y-66167000D01*
X199254740Y-66167000D01*
X199264771Y-66182270D01*
X199373445Y-66255625D01*
X199502000Y-66281406D01*
X200802000Y-66281406D01*
X200926684Y-66257215D01*
X201036270Y-66185229D01*
X201048575Y-66167000D01*
X205359000Y-66167000D01*
X205359000Y-85979000D01*
G36*
X212725000Y-86868000D02*
X212734667Y-86916601D01*
X212762197Y-86957803D01*
X212803399Y-86985333D01*
X212852000Y-86995000D01*
X219837000Y-86995000D01*
X219837000Y-95885000D01*
X208023822Y-95885000D01*
X208049235Y-95859631D01*
X208144891Y-95629265D01*
X208145109Y-95379829D01*
X208049855Y-95149297D01*
X208023713Y-95123109D01*
X208049235Y-95097631D01*
X208144891Y-94867265D01*
X208145109Y-94617829D01*
X208049855Y-94387297D01*
X207899000Y-94236178D01*
X207899000Y-93726000D01*
X207889333Y-93677399D01*
X207861803Y-93636197D01*
X207820601Y-93608667D01*
X207772000Y-93599000D01*
X206121000Y-93599000D01*
X206121000Y-82931000D01*
X212725000Y-82931000D01*
X212725000Y-86868000D01*
X212725000Y-86868000D01*
G37*
X212725000Y-86868000D02*
X212734667Y-86916601D01*
X212762197Y-86957803D01*
X212803399Y-86985333D01*
X212852000Y-86995000D01*
X219837000Y-86995000D01*
X219837000Y-95885000D01*
X208023822Y-95885000D01*
X208049235Y-95859631D01*
X208144891Y-95629265D01*
X208145109Y-95379829D01*
X208049855Y-95149297D01*
X208023713Y-95123109D01*
X208049235Y-95097631D01*
X208144891Y-94867265D01*
X208145109Y-94617829D01*
X208049855Y-94387297D01*
X207899000Y-94236178D01*
X207899000Y-93726000D01*
X207889333Y-93677399D01*
X207861803Y-93636197D01*
X207820601Y-93608667D01*
X207772000Y-93599000D01*
X206121000Y-93599000D01*
X206121000Y-82931000D01*
X212725000Y-82931000D01*
X212725000Y-86868000D01*
G36*
X233045000Y-75057000D02*
X228727000Y-75057000D01*
X228727000Y-69469000D01*
X233045000Y-69469000D01*
X233045000Y-75057000D01*
X233045000Y-75057000D01*
G37*
X233045000Y-75057000D02*
X228727000Y-75057000D01*
X228727000Y-69469000D01*
X233045000Y-69469000D01*
X233045000Y-75057000D01*
G36*
X232791000Y-86359994D02*
X232790999Y-86360000D01*
X232800667Y-86408601D01*
X232828197Y-86449803D01*
X235622194Y-89243799D01*
X235622197Y-89243803D01*
X235622198Y-89243803D01*
X235663399Y-89271333D01*
X235712000Y-89281001D01*
X235712000Y-89281000D01*
X246253000Y-89281000D01*
X246253000Y-92253272D01*
X246109063Y-92157096D01*
X245634000Y-92062600D01*
X245158937Y-92157096D01*
X244756198Y-92426198D01*
X244345396Y-92837000D01*
X229235000Y-92837000D01*
X229235000Y-78359000D01*
X232791000Y-78359000D01*
X232791000Y-86359994D01*
X232791000Y-86359994D01*
G37*
X232791000Y-86359994D02*
X232790999Y-86360000D01*
X232800667Y-86408601D01*
X232828197Y-86449803D01*
X235622194Y-89243799D01*
X235622197Y-89243803D01*
X235622198Y-89243803D01*
X235663399Y-89271333D01*
X235712000Y-89281001D01*
X235712000Y-89281000D01*
X246253000Y-89281000D01*
X246253000Y-92253272D01*
X246109063Y-92157096D01*
X245634000Y-92062600D01*
X245158937Y-92157096D01*
X244756198Y-92426198D01*
X244345396Y-92837000D01*
X229235000Y-92837000D01*
X229235000Y-78359000D01*
X232791000Y-78359000D01*
X232791000Y-86359994D01*
G36*
X146431000Y-37046352D02*
X144838078Y-39497000D01*
X140462000Y-39497000D01*
X140462000Y-34798000D01*
X146431000Y-34798000D01*
X146431000Y-37046352D01*
X146431000Y-37046352D01*
G37*
X146431000Y-37046352D02*
X144838078Y-39497000D01*
X140462000Y-39497000D01*
X140462000Y-34798000D01*
X146431000Y-34798000D01*
X146431000Y-37046352D01*
G36*
X152781000Y-39370000D02*
X149547921Y-39370000D01*
X147955000Y-36919352D01*
X147955000Y-34925000D01*
X152781000Y-34925000D01*
X152781000Y-39370000D01*
X152781000Y-39370000D01*
G37*
X152781000Y-39370000D02*
X149547921Y-39370000D01*
X147955000Y-36919352D01*
X147955000Y-34925000D01*
X152781000Y-34925000D01*
X152781000Y-39370000D01*
G36*
X173863000Y-58820183D02*
X173863000Y-58820183D01*
X173558716Y-58880709D01*
X173193091Y-59125012D01*
X172948788Y-59490637D01*
X172863000Y-59921921D01*
X172863000Y-59966079D01*
X172948788Y-60397363D01*
X173193091Y-60762988D01*
X173558716Y-61007291D01*
X173863000Y-61067817D01*
X173863000Y-63754000D01*
X173872667Y-63802601D01*
X173900197Y-63843803D01*
X173941399Y-63871333D01*
X173990000Y-63881000D01*
X182753000Y-63881000D01*
X182753000Y-74958600D01*
X182609370Y-74958600D01*
X182607555Y-74957375D01*
X182479000Y-74931594D01*
X180929000Y-74931594D01*
X180804316Y-74955785D01*
X180775369Y-74974800D01*
X179545406Y-74974800D01*
X179545406Y-74768000D01*
X179521215Y-74643316D01*
X179449229Y-74533730D01*
X179340555Y-74460375D01*
X179212000Y-74434594D01*
X177912000Y-74434594D01*
X177787316Y-74458785D01*
X177677730Y-74530771D01*
X177604375Y-74639445D01*
X177578594Y-74768000D01*
X177578594Y-75057000D01*
X173990000Y-75057000D01*
X173941399Y-75066667D01*
X173900197Y-75094197D01*
X173872667Y-75135399D01*
X173863000Y-75184000D01*
X173863000Y-85217000D01*
X166497000Y-85217000D01*
X166497000Y-66414921D01*
X173990000Y-66414921D01*
X173558716Y-66500709D01*
X173193091Y-66745012D01*
X172948788Y-67110637D01*
X172863000Y-67541921D01*
X172863000Y-67586079D01*
X172948788Y-68017363D01*
X173193091Y-68382988D01*
X173510600Y-68595141D01*
X173510600Y-68940594D01*
X173340000Y-68940594D01*
X173215316Y-68964785D01*
X173105730Y-69036771D01*
X173032375Y-69145445D01*
X173006594Y-69274000D01*
X173006594Y-70774000D01*
X173030785Y-70898684D01*
X173102771Y-71008270D01*
X173211445Y-71081625D01*
X173340000Y-71107406D01*
X174640000Y-71107406D01*
X174764684Y-71083215D01*
X174874270Y-71011229D01*
X174947625Y-70902555D01*
X174973406Y-70774000D01*
X174973406Y-69274000D01*
X174949215Y-69149316D01*
X174877229Y-69039730D01*
X174768555Y-68966375D01*
X174640000Y-68940594D01*
X174469400Y-68940594D01*
X174469400Y-68595141D01*
X174786909Y-68382988D01*
X175031212Y-68017363D01*
X175117000Y-67586079D01*
X175117000Y-67541921D01*
X175031212Y-67110637D01*
X174786909Y-66745012D01*
X174421284Y-66500709D01*
X173990000Y-66414921D01*
X176530000Y-66414921D01*
X176098716Y-66500709D01*
X175733091Y-66745012D01*
X175488788Y-67110637D01*
X175403000Y-67541921D01*
X175403000Y-67586079D01*
X175488788Y-68017363D01*
X175733091Y-68382988D01*
X176098716Y-68627291D01*
X176530000Y-68713079D01*
X176961284Y-68627291D01*
X177326909Y-68382988D01*
X177571212Y-68017363D01*
X177657000Y-67586079D01*
X177657000Y-67541921D01*
X177571212Y-67110637D01*
X177326909Y-66745012D01*
X176961284Y-66500709D01*
X176530000Y-66414921D01*
X173990000Y-66414921D01*
X173990000Y-66414921D01*
X166497000Y-66414921D01*
X166497000Y-61266605D01*
X166668713Y-61094891D01*
X172595829Y-61094891D01*
X172365297Y-61190145D01*
X172188765Y-61366369D01*
X172093109Y-61596735D01*
X172092891Y-61846171D01*
X172188145Y-62076703D01*
X172364369Y-62253235D01*
X172594735Y-62348891D01*
X172844171Y-62349109D01*
X173074703Y-62253855D01*
X173251235Y-62077631D01*
X173346891Y-61847265D01*
X173347109Y-61597829D01*
X173251855Y-61367297D01*
X173075631Y-61190765D01*
X172845265Y-61095109D01*
X172595829Y-61094891D01*
X166668713Y-61094891D01*
X170269799Y-57493805D01*
X170269803Y-57493803D01*
X170269803Y-57493802D01*
X170297333Y-57452601D01*
X170307000Y-57404000D01*
X170307001Y-57404000D01*
X170307000Y-57403994D01*
X170307000Y-35941000D01*
X173863000Y-35941000D01*
X173863000Y-58820183D01*
X173863000Y-58820183D01*
G37*
X173863000Y-58820183D02*
X173863000Y-58820183D01*
X173558716Y-58880709D01*
X173193091Y-59125012D01*
X172948788Y-59490637D01*
X172863000Y-59921921D01*
X172863000Y-59966079D01*
X172948788Y-60397363D01*
X173193091Y-60762988D01*
X173558716Y-61007291D01*
X173863000Y-61067817D01*
X173863000Y-63754000D01*
X173872667Y-63802601D01*
X173900197Y-63843803D01*
X173941399Y-63871333D01*
X173990000Y-63881000D01*
X182753000Y-63881000D01*
X182753000Y-74958600D01*
X182609370Y-74958600D01*
X182607555Y-74957375D01*
X182479000Y-74931594D01*
X180929000Y-74931594D01*
X180804316Y-74955785D01*
X180775369Y-74974800D01*
X179545406Y-74974800D01*
X179545406Y-74768000D01*
X179521215Y-74643316D01*
X179449229Y-74533730D01*
X179340555Y-74460375D01*
X179212000Y-74434594D01*
X177912000Y-74434594D01*
X177787316Y-74458785D01*
X177677730Y-74530771D01*
X177604375Y-74639445D01*
X177578594Y-74768000D01*
X177578594Y-75057000D01*
X173990000Y-75057000D01*
X173941399Y-75066667D01*
X173900197Y-75094197D01*
X173872667Y-75135399D01*
X173863000Y-75184000D01*
X173863000Y-85217000D01*
X166497000Y-85217000D01*
X166497000Y-66414921D01*
X173990000Y-66414921D01*
X173558716Y-66500709D01*
X173193091Y-66745012D01*
X172948788Y-67110637D01*
X172863000Y-67541921D01*
X172863000Y-67586079D01*
X172948788Y-68017363D01*
X173193091Y-68382988D01*
X173510600Y-68595141D01*
X173510600Y-68940594D01*
X173340000Y-68940594D01*
X173215316Y-68964785D01*
X173105730Y-69036771D01*
X173032375Y-69145445D01*
X173006594Y-69274000D01*
X173006594Y-70774000D01*
X173030785Y-70898684D01*
X173102771Y-71008270D01*
X173211445Y-71081625D01*
X173340000Y-71107406D01*
X174640000Y-71107406D01*
X174764684Y-71083215D01*
X174874270Y-71011229D01*
X174947625Y-70902555D01*
X174973406Y-70774000D01*
X174973406Y-69274000D01*
X174949215Y-69149316D01*
X174877229Y-69039730D01*
X174768555Y-68966375D01*
X174640000Y-68940594D01*
X174469400Y-68940594D01*
X174469400Y-68595141D01*
X174786909Y-68382988D01*
X175031212Y-68017363D01*
X175117000Y-67586079D01*
X175117000Y-67541921D01*
X175031212Y-67110637D01*
X174786909Y-66745012D01*
X174421284Y-66500709D01*
X173990000Y-66414921D01*
X176530000Y-66414921D01*
X176098716Y-66500709D01*
X175733091Y-66745012D01*
X175488788Y-67110637D01*
X175403000Y-67541921D01*
X175403000Y-67586079D01*
X175488788Y-68017363D01*
X175733091Y-68382988D01*
X176098716Y-68627291D01*
X176530000Y-68713079D01*
X176961284Y-68627291D01*
X177326909Y-68382988D01*
X177571212Y-68017363D01*
X177657000Y-67586079D01*
X177657000Y-67541921D01*
X177571212Y-67110637D01*
X177326909Y-66745012D01*
X176961284Y-66500709D01*
X176530000Y-66414921D01*
X173990000Y-66414921D01*
X173990000Y-66414921D01*
X166497000Y-66414921D01*
X166497000Y-61266605D01*
X166668713Y-61094891D01*
X172595829Y-61094891D01*
X172365297Y-61190145D01*
X172188765Y-61366369D01*
X172093109Y-61596735D01*
X172092891Y-61846171D01*
X172188145Y-62076703D01*
X172364369Y-62253235D01*
X172594735Y-62348891D01*
X172844171Y-62349109D01*
X173074703Y-62253855D01*
X173251235Y-62077631D01*
X173346891Y-61847265D01*
X173347109Y-61597829D01*
X173251855Y-61367297D01*
X173075631Y-61190765D01*
X172845265Y-61095109D01*
X172595829Y-61094891D01*
X166668713Y-61094891D01*
X170269799Y-57493805D01*
X170269803Y-57493803D01*
X170269803Y-57493802D01*
X170297333Y-57452601D01*
X170307000Y-57404000D01*
X170307001Y-57404000D01*
X170307000Y-57403994D01*
X170307000Y-35941000D01*
X173863000Y-35941000D01*
X173863000Y-58820183D01*
G36*
X224663000Y-78238824D02*
X224663000Y-78238824D01*
X224659215Y-78219316D01*
X224587229Y-78109730D01*
X224478555Y-78036375D01*
X224350000Y-78010594D01*
X222850000Y-78010594D01*
X222725316Y-78034785D01*
X222615730Y-78106771D01*
X222542375Y-78215445D01*
X222516594Y-78344000D01*
X222516594Y-79644000D01*
X222540785Y-79768684D01*
X222612771Y-79878270D01*
X222721445Y-79951625D01*
X222850000Y-79977406D01*
X223040600Y-79977406D01*
X223040600Y-79994859D01*
X222723091Y-80207012D01*
X222478788Y-80572637D01*
X222393000Y-81003921D01*
X222393000Y-81048079D01*
X222478788Y-81479363D01*
X222723091Y-81844988D01*
X223088716Y-82089291D01*
X223520000Y-82175079D01*
X223951284Y-82089291D01*
X224316909Y-81844988D01*
X224561212Y-81479363D01*
X224647000Y-81048079D01*
X224647000Y-81003921D01*
X224561212Y-80572637D01*
X224316909Y-80207012D01*
X223999400Y-79994859D01*
X223999400Y-79977406D01*
X224350000Y-79977406D01*
X224474684Y-79953215D01*
X224584270Y-79881229D01*
X224657625Y-79772555D01*
X224663000Y-79745753D01*
X224663000Y-81534000D01*
X224672667Y-81582601D01*
X224700197Y-81623803D01*
X224741399Y-81651333D01*
X224790000Y-81661000D01*
X228219000Y-81661000D01*
X228219000Y-86233000D01*
X215519000Y-86233000D01*
X215519000Y-79876921D01*
X220980000Y-79876921D01*
X220548716Y-79962709D01*
X220183091Y-80207012D01*
X219938788Y-80572637D01*
X219853000Y-81003921D01*
X219853000Y-81048079D01*
X219938788Y-81479363D01*
X220183091Y-81844988D01*
X220548716Y-82089291D01*
X220980000Y-82175079D01*
X221411284Y-82089291D01*
X221776909Y-81844988D01*
X222021212Y-81479363D01*
X222107000Y-81048079D01*
X222107000Y-81003921D01*
X222021212Y-80572637D01*
X221776909Y-80207012D01*
X221411284Y-79962709D01*
X220980000Y-79876921D01*
X215519000Y-79876921D01*
X215519000Y-72256921D01*
X220980000Y-72256921D01*
X220548716Y-72342709D01*
X220183091Y-72587012D01*
X219938788Y-72952637D01*
X219853000Y-73383921D01*
X219853000Y-73428079D01*
X219938788Y-73859363D01*
X220183091Y-74224988D01*
X220548716Y-74469291D01*
X220980000Y-74555079D01*
X221411284Y-74469291D01*
X221776909Y-74224988D01*
X222021212Y-73859363D01*
X222107000Y-73428079D01*
X222107000Y-73383921D01*
X222021212Y-72952637D01*
X221776909Y-72587012D01*
X221411284Y-72342709D01*
X220980000Y-72256921D01*
X223520000Y-72256921D01*
X223088716Y-72342709D01*
X222723091Y-72587012D01*
X222478788Y-72952637D01*
X222393000Y-73383921D01*
X222393000Y-73428079D01*
X222478788Y-73859363D01*
X222723091Y-74224988D01*
X223088716Y-74469291D01*
X223520000Y-74555079D01*
X223951284Y-74469291D01*
X224316909Y-74224988D01*
X224561212Y-73859363D01*
X224647000Y-73428079D01*
X224647000Y-73383921D01*
X224561212Y-72952637D01*
X224316909Y-72587012D01*
X223951284Y-72342709D01*
X223520000Y-72256921D01*
X220980000Y-72256921D01*
X220980000Y-72256921D01*
X215519000Y-72256921D01*
X215519000Y-64389000D01*
X224663000Y-64389000D01*
X224663000Y-78238824D01*
X224663000Y-78238824D01*
G37*
X224663000Y-78238824D02*
X224663000Y-78238824D01*
X224659215Y-78219316D01*
X224587229Y-78109730D01*
X224478555Y-78036375D01*
X224350000Y-78010594D01*
X222850000Y-78010594D01*
X222725316Y-78034785D01*
X222615730Y-78106771D01*
X222542375Y-78215445D01*
X222516594Y-78344000D01*
X222516594Y-79644000D01*
X222540785Y-79768684D01*
X222612771Y-79878270D01*
X222721445Y-79951625D01*
X222850000Y-79977406D01*
X223040600Y-79977406D01*
X223040600Y-79994859D01*
X222723091Y-80207012D01*
X222478788Y-80572637D01*
X222393000Y-81003921D01*
X222393000Y-81048079D01*
X222478788Y-81479363D01*
X222723091Y-81844988D01*
X223088716Y-82089291D01*
X223520000Y-82175079D01*
X223951284Y-82089291D01*
X224316909Y-81844988D01*
X224561212Y-81479363D01*
X224647000Y-81048079D01*
X224647000Y-81003921D01*
X224561212Y-80572637D01*
X224316909Y-80207012D01*
X223999400Y-79994859D01*
X223999400Y-79977406D01*
X224350000Y-79977406D01*
X224474684Y-79953215D01*
X224584270Y-79881229D01*
X224657625Y-79772555D01*
X224663000Y-79745753D01*
X224663000Y-81534000D01*
X224672667Y-81582601D01*
X224700197Y-81623803D01*
X224741399Y-81651333D01*
X224790000Y-81661000D01*
X228219000Y-81661000D01*
X228219000Y-86233000D01*
X215519000Y-86233000D01*
X215519000Y-79876921D01*
X220980000Y-79876921D01*
X220548716Y-79962709D01*
X220183091Y-80207012D01*
X219938788Y-80572637D01*
X219853000Y-81003921D01*
X219853000Y-81048079D01*
X219938788Y-81479363D01*
X220183091Y-81844988D01*
X220548716Y-82089291D01*
X220980000Y-82175079D01*
X221411284Y-82089291D01*
X221776909Y-81844988D01*
X222021212Y-81479363D01*
X222107000Y-81048079D01*
X222107000Y-81003921D01*
X222021212Y-80572637D01*
X221776909Y-80207012D01*
X221411284Y-79962709D01*
X220980000Y-79876921D01*
X215519000Y-79876921D01*
X215519000Y-72256921D01*
X220980000Y-72256921D01*
X220548716Y-72342709D01*
X220183091Y-72587012D01*
X219938788Y-72952637D01*
X219853000Y-73383921D01*
X219853000Y-73428079D01*
X219938788Y-73859363D01*
X220183091Y-74224988D01*
X220548716Y-74469291D01*
X220980000Y-74555079D01*
X221411284Y-74469291D01*
X221776909Y-74224988D01*
X222021212Y-73859363D01*
X222107000Y-73428079D01*
X222107000Y-73383921D01*
X222021212Y-72952637D01*
X221776909Y-72587012D01*
X221411284Y-72342709D01*
X220980000Y-72256921D01*
X223520000Y-72256921D01*
X223088716Y-72342709D01*
X222723091Y-72587012D01*
X222478788Y-72952637D01*
X222393000Y-73383921D01*
X222393000Y-73428079D01*
X222478788Y-73859363D01*
X222723091Y-74224988D01*
X223088716Y-74469291D01*
X223520000Y-74555079D01*
X223951284Y-74469291D01*
X224316909Y-74224988D01*
X224561212Y-73859363D01*
X224647000Y-73428079D01*
X224647000Y-73383921D01*
X224561212Y-72952637D01*
X224316909Y-72587012D01*
X223951284Y-72342709D01*
X223520000Y-72256921D01*
X220980000Y-72256921D01*
X220980000Y-72256921D01*
X215519000Y-72256921D01*
X215519000Y-64389000D01*
X224663000Y-64389000D01*
X224663000Y-78238824D01*
G36*
X187579000Y-67818000D02*
X187579000Y-67818000D01*
X187588667Y-67866601D01*
X187616197Y-67907803D01*
X187657399Y-67935333D01*
X187706000Y-67945000D01*
X191897000Y-67945000D01*
X191897000Y-84963000D01*
X187960000Y-84963000D01*
X187911399Y-84972667D01*
X187870197Y-85000197D01*
X187842667Y-85041399D01*
X187833000Y-85090000D01*
X187833000Y-87249000D01*
X187323429Y-87249000D01*
X187603847Y-86969071D01*
X187768243Y-86573162D01*
X187768617Y-86144478D01*
X187604912Y-85748283D01*
X187302051Y-85444893D01*
X186906142Y-85280497D01*
X186477458Y-85280123D01*
X186081263Y-85443828D01*
X185777873Y-85746689D01*
X185674810Y-85994893D01*
X185572912Y-85748283D01*
X185270051Y-85444893D01*
X184874142Y-85280497D01*
X184445458Y-85280123D01*
X184049263Y-85443828D01*
X183745873Y-85746689D01*
X183581477Y-86142598D01*
X183581103Y-86571282D01*
X183744808Y-86967477D01*
X184025840Y-87249000D01*
X180467000Y-87249000D01*
X180467000Y-80170940D01*
X180589000Y-80195406D01*
X181239000Y-80195406D01*
X181363684Y-80171215D01*
X181473270Y-80099229D01*
X181546625Y-79990555D01*
X181572406Y-79862000D01*
X181572406Y-79629000D01*
X182118000Y-79629000D01*
X182155594Y-79621522D01*
X182155594Y-79862000D01*
X182179785Y-79986684D01*
X182251771Y-80096270D01*
X182360445Y-80169625D01*
X182489000Y-80195406D01*
X183139000Y-80195406D01*
X183263684Y-80171215D01*
X183373270Y-80099229D01*
X183446625Y-79990555D01*
X183472406Y-79862000D01*
X183472406Y-79636891D01*
X190375829Y-79636891D01*
X190145297Y-79732145D01*
X189968765Y-79908369D01*
X189873109Y-80138735D01*
X189872891Y-80388171D01*
X189968145Y-80618703D01*
X190144369Y-80795235D01*
X190374735Y-80890891D01*
X190624171Y-80891109D01*
X190854703Y-80795855D01*
X191031235Y-80619631D01*
X191126891Y-80389265D01*
X191127109Y-80139829D01*
X191031855Y-79909297D01*
X190855631Y-79732765D01*
X190625265Y-79637109D01*
X190375829Y-79636891D01*
X183472406Y-79636891D01*
X183472406Y-78867000D01*
X186182000Y-78867000D01*
X186230601Y-78857333D01*
X186271803Y-78829803D01*
X186299333Y-78788601D01*
X186309000Y-78740000D01*
X186309000Y-67945000D01*
X186944000Y-67945000D01*
X186992601Y-67935333D01*
X187033803Y-67907803D01*
X187061333Y-67866601D01*
X187071000Y-67818000D01*
X187071000Y-64897000D01*
X187579000Y-64897000D01*
X187579000Y-67818000D01*
X187579000Y-67818000D01*
G37*
X187579000Y-67818000D02*
X187579000Y-67818000D01*
X187588667Y-67866601D01*
X187616197Y-67907803D01*
X187657399Y-67935333D01*
X187706000Y-67945000D01*
X191897000Y-67945000D01*
X191897000Y-84963000D01*
X187960000Y-84963000D01*
X187911399Y-84972667D01*
X187870197Y-85000197D01*
X187842667Y-85041399D01*
X187833000Y-85090000D01*
X187833000Y-87249000D01*
X187323429Y-87249000D01*
X187603847Y-86969071D01*
X187768243Y-86573162D01*
X187768617Y-86144478D01*
X187604912Y-85748283D01*
X187302051Y-85444893D01*
X186906142Y-85280497D01*
X186477458Y-85280123D01*
X186081263Y-85443828D01*
X185777873Y-85746689D01*
X185674810Y-85994893D01*
X185572912Y-85748283D01*
X185270051Y-85444893D01*
X184874142Y-85280497D01*
X184445458Y-85280123D01*
X184049263Y-85443828D01*
X183745873Y-85746689D01*
X183581477Y-86142598D01*
X183581103Y-86571282D01*
X183744808Y-86967477D01*
X184025840Y-87249000D01*
X180467000Y-87249000D01*
X180467000Y-80170940D01*
X180589000Y-80195406D01*
X181239000Y-80195406D01*
X181363684Y-80171215D01*
X181473270Y-80099229D01*
X181546625Y-79990555D01*
X181572406Y-79862000D01*
X181572406Y-79629000D01*
X182118000Y-79629000D01*
X182155594Y-79621522D01*
X182155594Y-79862000D01*
X182179785Y-79986684D01*
X182251771Y-80096270D01*
X182360445Y-80169625D01*
X182489000Y-80195406D01*
X183139000Y-80195406D01*
X183263684Y-80171215D01*
X183373270Y-80099229D01*
X183446625Y-79990555D01*
X183472406Y-79862000D01*
X183472406Y-79636891D01*
X190375829Y-79636891D01*
X190145297Y-79732145D01*
X189968765Y-79908369D01*
X189873109Y-80138735D01*
X189872891Y-80388171D01*
X189968145Y-80618703D01*
X190144369Y-80795235D01*
X190374735Y-80890891D01*
X190624171Y-80891109D01*
X190854703Y-80795855D01*
X191031235Y-80619631D01*
X191126891Y-80389265D01*
X191127109Y-80139829D01*
X191031855Y-79909297D01*
X190855631Y-79732765D01*
X190625265Y-79637109D01*
X190375829Y-79636891D01*
X183472406Y-79636891D01*
X183472406Y-78867000D01*
X186182000Y-78867000D01*
X186230601Y-78857333D01*
X186271803Y-78829803D01*
X186299333Y-78788601D01*
X186309000Y-78740000D01*
X186309000Y-67945000D01*
X186944000Y-67945000D01*
X186992601Y-67935333D01*
X187033803Y-67907803D01*
X187061333Y-67866601D01*
X187071000Y-67818000D01*
X187071000Y-64897000D01*
X187579000Y-64897000D01*
X187579000Y-67818000D01*
G36*
X237617000Y-68961000D02*
X227457000Y-68961000D01*
X227457000Y-64643000D01*
X237617000Y-64643000D01*
X237617000Y-68961000D01*
X237617000Y-68961000D01*
G37*
X237617000Y-68961000D02*
X227457000Y-68961000D01*
X227457000Y-64643000D01*
X237617000Y-64643000D01*
X237617000Y-68961000D01*
G36*
X192405000Y-62865000D02*
X185928000Y-62865000D01*
X185879399Y-62874667D01*
X185838197Y-62902197D01*
X185810667Y-62943399D01*
X185801000Y-62992000D01*
X185801000Y-69977000D01*
X183515000Y-69977000D01*
X183515000Y-68199000D01*
X184912000Y-68199000D01*
X184960601Y-68189333D01*
X185001803Y-68161803D01*
X185029333Y-68120601D01*
X185039000Y-68072000D01*
X185039000Y-62992000D01*
X185029333Y-62943399D01*
X185001803Y-62902197D01*
X184960601Y-62874667D01*
X184912000Y-62865000D01*
X178943000Y-62865000D01*
X178943000Y-52451000D01*
X192405000Y-52451000D01*
X192405000Y-62865000D01*
X192405000Y-62865000D01*
G37*
X192405000Y-62865000D02*
X185928000Y-62865000D01*
X185879399Y-62874667D01*
X185838197Y-62902197D01*
X185810667Y-62943399D01*
X185801000Y-62992000D01*
X185801000Y-69977000D01*
X183515000Y-69977000D01*
X183515000Y-68199000D01*
X184912000Y-68199000D01*
X184960601Y-68189333D01*
X185001803Y-68161803D01*
X185029333Y-68120601D01*
X185039000Y-68072000D01*
X185039000Y-62992000D01*
X185029333Y-62943399D01*
X185001803Y-62902197D01*
X184960601Y-62874667D01*
X184912000Y-62865000D01*
X178943000Y-62865000D01*
X178943000Y-52451000D01*
X192405000Y-52451000D01*
X192405000Y-62865000D01*
G36*
X230759000Y-40005000D02*
X227965000Y-40005000D01*
X227965000Y-36703000D01*
X230759000Y-36703000D01*
X230759000Y-40005000D01*
X230759000Y-40005000D01*
G37*
X230759000Y-40005000D02*
X227965000Y-40005000D01*
X227965000Y-36703000D01*
X230759000Y-36703000D01*
X230759000Y-40005000D01*
G36*
X237617000Y-63373000D02*
X226568000Y-63373000D01*
X226519399Y-63382667D01*
X226478197Y-63410197D01*
X226450667Y-63451399D01*
X226441000Y-63500000D01*
X226441000Y-69342000D01*
X226450667Y-69390601D01*
X226478197Y-69431803D01*
X226519399Y-69459333D01*
X226568000Y-69469000D01*
X227965000Y-69469000D01*
X227965000Y-80148022D01*
X225425000Y-80378931D01*
X225425000Y-69469000D01*
X225552000Y-69469000D01*
X225600601Y-69459333D01*
X225641803Y-69431803D01*
X225669333Y-69390601D01*
X225679000Y-69342000D01*
X225679000Y-63500000D01*
X225669333Y-63451399D01*
X225641803Y-63410197D01*
X225600601Y-63382667D01*
X225552000Y-63373000D01*
X218313000Y-63373000D01*
X218313000Y-55232816D01*
X220078816Y-53467000D01*
X237617000Y-53467000D01*
X237617000Y-63373000D01*
X237617000Y-63373000D01*
G37*
X237617000Y-63373000D02*
X226568000Y-63373000D01*
X226519399Y-63382667D01*
X226478197Y-63410197D01*
X226450667Y-63451399D01*
X226441000Y-63500000D01*
X226441000Y-69342000D01*
X226450667Y-69390601D01*
X226478197Y-69431803D01*
X226519399Y-69459333D01*
X226568000Y-69469000D01*
X227965000Y-69469000D01*
X227965000Y-80148022D01*
X225425000Y-80378931D01*
X225425000Y-69469000D01*
X225552000Y-69469000D01*
X225600601Y-69459333D01*
X225641803Y-69431803D01*
X225669333Y-69390601D01*
X225679000Y-69342000D01*
X225679000Y-63500000D01*
X225669333Y-63451399D01*
X225641803Y-63410197D01*
X225600601Y-63382667D01*
X225552000Y-63373000D01*
X218313000Y-63373000D01*
X218313000Y-55232816D01*
X220078816Y-53467000D01*
X237617000Y-53467000D01*
X237617000Y-63373000D01*
G36*
X143085230Y-41037771D02*
X143011875Y-41146445D01*
X142986094Y-41275000D01*
X142986094Y-41783000D01*
X143010285Y-41907684D01*
X143082271Y-42017270D01*
X143190945Y-42090625D01*
X143319500Y-42116406D01*
X144462500Y-42116406D01*
X144587184Y-42092215D01*
X144653000Y-42048981D01*
X144653000Y-43815000D01*
X140081000Y-43815000D01*
X140081000Y-41021000D01*
X143110761Y-41021000D01*
X143085230Y-41037771D01*
X143085230Y-41037771D01*
G37*
X143085230Y-41037771D02*
X143011875Y-41146445D01*
X142986094Y-41275000D01*
X142986094Y-41783000D01*
X143010285Y-41907684D01*
X143082271Y-42017270D01*
X143190945Y-42090625D01*
X143319500Y-42116406D01*
X144462500Y-42116406D01*
X144587184Y-42092215D01*
X144653000Y-42048981D01*
X144653000Y-43815000D01*
X140081000Y-43815000D01*
X140081000Y-41021000D01*
X143110761Y-41021000D01*
X143085230Y-41037771D01*
G36*
X131781000Y-85765000D02*
X127971000Y-85765000D01*
X127971000Y-74335000D01*
X131781000Y-74335000D01*
X131781000Y-85765000D01*
X131781000Y-85765000D01*
G37*
X131781000Y-85765000D02*
X127971000Y-85765000D01*
X127971000Y-74335000D01*
X131781000Y-74335000D01*
X131781000Y-85765000D01*
G36*
X151257000Y-89789000D02*
X148971000Y-89789000D01*
X148971000Y-86360000D01*
X148961333Y-86311399D01*
X148933803Y-86270197D01*
X148933799Y-86270194D01*
X148425803Y-85762197D01*
X148384601Y-85734667D01*
X148336000Y-85724999D01*
X148335994Y-85725000D01*
X145288000Y-85725000D01*
X145239399Y-85734667D01*
X145198197Y-85762197D01*
X145170667Y-85803399D01*
X145161000Y-85852000D01*
X145161000Y-86106000D01*
X145170667Y-86154601D01*
X145198197Y-86195803D01*
X145239399Y-86223333D01*
X145288000Y-86233000D01*
X148283394Y-86233000D01*
X148463000Y-86412605D01*
X148463000Y-89789000D01*
X144399000Y-89789000D01*
X144399000Y-81407000D01*
X151257000Y-81407000D01*
X151257000Y-89789000D01*
X151257000Y-89789000D01*
G37*
X151257000Y-89789000D02*
X148971000Y-89789000D01*
X148971000Y-86360000D01*
X148961333Y-86311399D01*
X148933803Y-86270197D01*
X148933799Y-86270194D01*
X148425803Y-85762197D01*
X148384601Y-85734667D01*
X148336000Y-85724999D01*
X148335994Y-85725000D01*
X145288000Y-85725000D01*
X145239399Y-85734667D01*
X145198197Y-85762197D01*
X145170667Y-85803399D01*
X145161000Y-85852000D01*
X145161000Y-86106000D01*
X145170667Y-86154601D01*
X145198197Y-86195803D01*
X145239399Y-86223333D01*
X145288000Y-86233000D01*
X148283394Y-86233000D01*
X148463000Y-86412605D01*
X148463000Y-89789000D01*
X144399000Y-89789000D01*
X144399000Y-81407000D01*
X151257000Y-81407000D01*
X151257000Y-89789000D01*
G36*
X246253000Y-88773000D02*
X239141000Y-88773000D01*
X239141000Y-85725000D01*
X246253000Y-85725000D01*
X246253000Y-88773000D01*
X246253000Y-88773000D01*
G37*
X246253000Y-88773000D02*
X239141000Y-88773000D01*
X239141000Y-85725000D01*
X246253000Y-85725000D01*
X246253000Y-88773000D01*
G36*
X254381000Y-95885000D02*
X247015000Y-95885000D01*
X247015000Y-89281000D01*
X254381000Y-89281000D01*
X254381000Y-95885000D01*
X254381000Y-95885000D01*
G37*
X254381000Y-95885000D02*
X247015000Y-95885000D01*
X247015000Y-89281000D01*
X254381000Y-89281000D01*
X254381000Y-95885000D01*
G36*
X254381000Y-88773000D02*
X247015000Y-88773000D01*
X247015000Y-85725000D01*
X254381000Y-85725000D01*
X254381000Y-88773000D01*
X254381000Y-88773000D01*
G37*
X254381000Y-88773000D02*
X247015000Y-88773000D01*
X247015000Y-85725000D01*
X254381000Y-85725000D01*
X254381000Y-88773000D01*
G36*
X169799000Y-57097394D02*
X165772197Y-61124197D01*
X165744667Y-61165399D01*
X165734999Y-61214000D01*
X165735000Y-61214005D01*
X165735000Y-85286968D01*
X163491626Y-87281079D01*
X163489344Y-87284094D01*
X163486197Y-87286197D01*
X163474463Y-87303757D01*
X163461723Y-87320593D01*
X163460768Y-87324254D01*
X163458667Y-87327399D01*
X163454548Y-87348105D01*
X163449219Y-87368542D01*
X163449737Y-87372290D01*
X163449000Y-87376000D01*
X163449000Y-96647000D01*
X151765000Y-96647000D01*
X151765000Y-69850000D01*
X151764037Y-69845159D01*
X151764626Y-69840259D01*
X151759232Y-69821006D01*
X151755333Y-69801399D01*
X151752591Y-69797295D01*
X151751260Y-69792543D01*
X151738912Y-69776823D01*
X151727803Y-69760197D01*
X151723697Y-69757453D01*
X151720650Y-69753574D01*
X149987000Y-68267587D01*
X149987000Y-55589836D01*
X152666700Y-55589836D01*
X152791384Y-55565645D01*
X152900970Y-55493659D01*
X152974325Y-55384985D01*
X153000106Y-55256430D01*
X153000106Y-53455570D01*
X152975915Y-53330886D01*
X152903929Y-53221300D01*
X152795255Y-53147945D01*
X152666700Y-53122164D01*
X149987000Y-53122164D01*
X149987000Y-52705000D01*
X155382535Y-52705000D01*
X155385160Y-52711352D01*
X155385160Y-53122164D01*
X154165300Y-53122164D01*
X154040616Y-53146355D01*
X153931030Y-53218341D01*
X153857675Y-53327015D01*
X153831894Y-53455570D01*
X153831894Y-55256430D01*
X153856085Y-55381114D01*
X153928071Y-55490700D01*
X154036745Y-55564055D01*
X154165300Y-55589836D01*
X157665420Y-55589836D01*
X157790104Y-55565645D01*
X157899690Y-55493659D01*
X157973045Y-55384985D01*
X157998826Y-55256430D01*
X157998826Y-53455570D01*
X157974635Y-53330886D01*
X157902649Y-53221300D01*
X157793975Y-53147945D01*
X157665420Y-53122164D01*
X156445560Y-53122164D01*
X156445560Y-52848233D01*
X156487235Y-52806631D01*
X156529436Y-52705000D01*
X158124563Y-52705000D01*
X158099094Y-52832000D01*
X158099094Y-55880000D01*
X158123285Y-56004684D01*
X158195271Y-56114270D01*
X158303945Y-56187625D01*
X158432500Y-56213406D01*
X158727800Y-56213406D01*
X158727800Y-56285336D01*
X158726765Y-56286369D01*
X158631109Y-56516735D01*
X158630891Y-56766171D01*
X158726145Y-56996703D01*
X158753227Y-57023833D01*
X158768159Y-57098899D01*
X158883092Y-57270908D01*
X159055101Y-57385841D01*
X159258000Y-57426200D01*
X159460899Y-57385841D01*
X159632908Y-57270908D01*
X159747841Y-57098899D01*
X159762719Y-57024100D01*
X159789235Y-56997631D01*
X159884891Y-56767265D01*
X159885109Y-56517829D01*
X159789855Y-56287297D01*
X159788200Y-56285639D01*
X159788200Y-56213406D01*
X160083500Y-56213406D01*
X160208184Y-56189215D01*
X160317770Y-56117229D01*
X160391125Y-56008555D01*
X160416906Y-55880000D01*
X160416906Y-52832000D01*
X160392715Y-52707316D01*
X160391194Y-52705000D01*
X169799000Y-52705000D01*
X169799000Y-57097394D01*
X169799000Y-57097394D01*
G37*
X169799000Y-57097394D02*
X165772197Y-61124197D01*
X165744667Y-61165399D01*
X165734999Y-61214000D01*
X165735000Y-61214005D01*
X165735000Y-85286968D01*
X163491626Y-87281079D01*
X163489344Y-87284094D01*
X163486197Y-87286197D01*
X163474463Y-87303757D01*
X163461723Y-87320593D01*
X163460768Y-87324254D01*
X163458667Y-87327399D01*
X163454548Y-87348105D01*
X163449219Y-87368542D01*
X163449737Y-87372290D01*
X163449000Y-87376000D01*
X163449000Y-96647000D01*
X151765000Y-96647000D01*
X151765000Y-69850000D01*
X151764037Y-69845159D01*
X151764626Y-69840259D01*
X151759232Y-69821006D01*
X151755333Y-69801399D01*
X151752591Y-69797295D01*
X151751260Y-69792543D01*
X151738912Y-69776823D01*
X151727803Y-69760197D01*
X151723697Y-69757453D01*
X151720650Y-69753574D01*
X149987000Y-68267587D01*
X149987000Y-55589836D01*
X152666700Y-55589836D01*
X152791384Y-55565645D01*
X152900970Y-55493659D01*
X152974325Y-55384985D01*
X153000106Y-55256430D01*
X153000106Y-53455570D01*
X152975915Y-53330886D01*
X152903929Y-53221300D01*
X152795255Y-53147945D01*
X152666700Y-53122164D01*
X149987000Y-53122164D01*
X149987000Y-52705000D01*
X155382535Y-52705000D01*
X155385160Y-52711352D01*
X155385160Y-53122164D01*
X154165300Y-53122164D01*
X154040616Y-53146355D01*
X153931030Y-53218341D01*
X153857675Y-53327015D01*
X153831894Y-53455570D01*
X153831894Y-55256430D01*
X153856085Y-55381114D01*
X153928071Y-55490700D01*
X154036745Y-55564055D01*
X154165300Y-55589836D01*
X157665420Y-55589836D01*
X157790104Y-55565645D01*
X157899690Y-55493659D01*
X157973045Y-55384985D01*
X157998826Y-55256430D01*
X157998826Y-53455570D01*
X157974635Y-53330886D01*
X157902649Y-53221300D01*
X157793975Y-53147945D01*
X157665420Y-53122164D01*
X156445560Y-53122164D01*
X156445560Y-52848233D01*
X156487235Y-52806631D01*
X156529436Y-52705000D01*
X158124563Y-52705000D01*
X158099094Y-52832000D01*
X158099094Y-55880000D01*
X158123285Y-56004684D01*
X158195271Y-56114270D01*
X158303945Y-56187625D01*
X158432500Y-56213406D01*
X158727800Y-56213406D01*
X158727800Y-56285336D01*
X158726765Y-56286369D01*
X158631109Y-56516735D01*
X158630891Y-56766171D01*
X158726145Y-56996703D01*
X158753227Y-57023833D01*
X158768159Y-57098899D01*
X158883092Y-57270908D01*
X159055101Y-57385841D01*
X159258000Y-57426200D01*
X159460899Y-57385841D01*
X159632908Y-57270908D01*
X159747841Y-57098899D01*
X159762719Y-57024100D01*
X159789235Y-56997631D01*
X159884891Y-56767265D01*
X159885109Y-56517829D01*
X159789855Y-56287297D01*
X159788200Y-56285639D01*
X159788200Y-56213406D01*
X160083500Y-56213406D01*
X160208184Y-56189215D01*
X160317770Y-56117229D01*
X160391125Y-56008555D01*
X160416906Y-55880000D01*
X160416906Y-52832000D01*
X160392715Y-52707316D01*
X160391194Y-52705000D01*
X169799000Y-52705000D01*
X169799000Y-57097394D01*
G36*
X149479000Y-53122164D02*
X149166580Y-53122164D01*
X149041896Y-53146355D01*
X148932310Y-53218341D01*
X148858955Y-53327015D01*
X148833174Y-53455570D01*
X148833174Y-53825800D01*
X148692664Y-53825800D01*
X148691631Y-53824765D01*
X148461265Y-53729109D01*
X148211829Y-53728891D01*
X147981297Y-53824145D01*
X147804765Y-54000369D01*
X147709109Y-54230735D01*
X147708891Y-54480171D01*
X147804145Y-54710703D01*
X147980369Y-54887235D01*
X148210735Y-54982891D01*
X148460171Y-54983109D01*
X148690703Y-54887855D01*
X148692361Y-54886200D01*
X148833174Y-54886200D01*
X148833174Y-55256430D01*
X148857365Y-55381114D01*
X148929351Y-55490700D01*
X149038025Y-55564055D01*
X149166580Y-55589836D01*
X149479000Y-55589836D01*
X149479000Y-68580000D01*
X149479962Y-68584837D01*
X149479373Y-68589741D01*
X149484768Y-68609001D01*
X149488667Y-68628601D01*
X149491408Y-68632704D01*
X149492740Y-68637457D01*
X149505090Y-68653180D01*
X149516197Y-68669803D01*
X149520300Y-68672544D01*
X149523349Y-68676426D01*
X151257000Y-70162411D01*
X151257000Y-80899000D01*
X144399000Y-80899000D01*
X144399000Y-72009000D01*
X148463000Y-72009000D01*
X148463000Y-75819000D01*
X145034000Y-75819000D01*
X144985399Y-75828667D01*
X144944197Y-75856197D01*
X144916667Y-75897399D01*
X144907000Y-75946000D01*
X144907000Y-76200000D01*
X144916667Y-76248601D01*
X144944197Y-76289803D01*
X144985399Y-76317333D01*
X145034000Y-76327000D01*
X148844000Y-76327000D01*
X148892601Y-76317333D01*
X148933803Y-76289803D01*
X148961333Y-76248601D01*
X148971000Y-76200000D01*
X148971000Y-71882000D01*
X148961333Y-71833399D01*
X148933803Y-71792197D01*
X148933799Y-71792194D01*
X148679803Y-71538197D01*
X148638601Y-71510667D01*
X148590000Y-71500999D01*
X148589994Y-71501000D01*
X139827000Y-71501000D01*
X139827000Y-56213406D01*
X139931800Y-56213406D01*
X139931800Y-56388000D01*
X139972159Y-56590899D01*
X140087092Y-56762908D01*
X140275725Y-56951541D01*
X140269316Y-56952785D01*
X140159730Y-57024771D01*
X140086375Y-57133445D01*
X140060594Y-57262000D01*
X140060594Y-58562000D01*
X140084785Y-58686684D01*
X140156771Y-58796270D01*
X140265445Y-58869625D01*
X140394000Y-58895406D01*
X141894000Y-58895406D01*
X142018684Y-58871215D01*
X142128270Y-58799229D01*
X142201625Y-58690555D01*
X142227406Y-58562000D01*
X142227406Y-57262000D01*
X142203215Y-57137316D01*
X142131229Y-57027730D01*
X142022555Y-56954375D01*
X141894000Y-56928594D01*
X141646073Y-56928594D01*
X141633841Y-56867101D01*
X141518908Y-56695092D01*
X141037222Y-56213406D01*
X141287500Y-56213406D01*
X141412184Y-56189215D01*
X141521770Y-56117229D01*
X141595125Y-56008555D01*
X141620906Y-55880000D01*
X141620906Y-54886200D01*
X141883336Y-54886200D01*
X141884369Y-54887235D01*
X142114735Y-54982891D01*
X142364171Y-54983109D01*
X142594703Y-54887855D01*
X142771235Y-54711631D01*
X142866891Y-54481265D01*
X142867109Y-54231829D01*
X142771855Y-54001297D01*
X142595631Y-53824765D01*
X142365265Y-53729109D01*
X142115829Y-53728891D01*
X141885297Y-53824145D01*
X141883639Y-53825800D01*
X141620906Y-53825800D01*
X141620906Y-52832000D01*
X141596715Y-52707316D01*
X141595194Y-52705000D01*
X149479000Y-52705000D01*
X149479000Y-53122164D01*
X149479000Y-53122164D01*
G37*
X149479000Y-53122164D02*
X149166580Y-53122164D01*
X149041896Y-53146355D01*
X148932310Y-53218341D01*
X148858955Y-53327015D01*
X148833174Y-53455570D01*
X148833174Y-53825800D01*
X148692664Y-53825800D01*
X148691631Y-53824765D01*
X148461265Y-53729109D01*
X148211829Y-53728891D01*
X147981297Y-53824145D01*
X147804765Y-54000369D01*
X147709109Y-54230735D01*
X147708891Y-54480171D01*
X147804145Y-54710703D01*
X147980369Y-54887235D01*
X148210735Y-54982891D01*
X148460171Y-54983109D01*
X148690703Y-54887855D01*
X148692361Y-54886200D01*
X148833174Y-54886200D01*
X148833174Y-55256430D01*
X148857365Y-55381114D01*
X148929351Y-55490700D01*
X149038025Y-55564055D01*
X149166580Y-55589836D01*
X149479000Y-55589836D01*
X149479000Y-68580000D01*
X149479962Y-68584837D01*
X149479373Y-68589741D01*
X149484768Y-68609001D01*
X149488667Y-68628601D01*
X149491408Y-68632704D01*
X149492740Y-68637457D01*
X149505090Y-68653180D01*
X149516197Y-68669803D01*
X149520300Y-68672544D01*
X149523349Y-68676426D01*
X151257000Y-70162411D01*
X151257000Y-80899000D01*
X144399000Y-80899000D01*
X144399000Y-72009000D01*
X148463000Y-72009000D01*
X148463000Y-75819000D01*
X145034000Y-75819000D01*
X144985399Y-75828667D01*
X144944197Y-75856197D01*
X144916667Y-75897399D01*
X144907000Y-75946000D01*
X144907000Y-76200000D01*
X144916667Y-76248601D01*
X144944197Y-76289803D01*
X144985399Y-76317333D01*
X145034000Y-76327000D01*
X148844000Y-76327000D01*
X148892601Y-76317333D01*
X148933803Y-76289803D01*
X148961333Y-76248601D01*
X148971000Y-76200000D01*
X148971000Y-71882000D01*
X148961333Y-71833399D01*
X148933803Y-71792197D01*
X148933799Y-71792194D01*
X148679803Y-71538197D01*
X148638601Y-71510667D01*
X148590000Y-71500999D01*
X148589994Y-71501000D01*
X139827000Y-71501000D01*
X139827000Y-56213406D01*
X139931800Y-56213406D01*
X139931800Y-56388000D01*
X139972159Y-56590899D01*
X140087092Y-56762908D01*
X140275725Y-56951541D01*
X140269316Y-56952785D01*
X140159730Y-57024771D01*
X140086375Y-57133445D01*
X140060594Y-57262000D01*
X140060594Y-58562000D01*
X140084785Y-58686684D01*
X140156771Y-58796270D01*
X140265445Y-58869625D01*
X140394000Y-58895406D01*
X141894000Y-58895406D01*
X142018684Y-58871215D01*
X142128270Y-58799229D01*
X142201625Y-58690555D01*
X142227406Y-58562000D01*
X142227406Y-57262000D01*
X142203215Y-57137316D01*
X142131229Y-57027730D01*
X142022555Y-56954375D01*
X141894000Y-56928594D01*
X141646073Y-56928594D01*
X141633841Y-56867101D01*
X141518908Y-56695092D01*
X141037222Y-56213406D01*
X141287500Y-56213406D01*
X141412184Y-56189215D01*
X141521770Y-56117229D01*
X141595125Y-56008555D01*
X141620906Y-55880000D01*
X141620906Y-54886200D01*
X141883336Y-54886200D01*
X141884369Y-54887235D01*
X142114735Y-54982891D01*
X142364171Y-54983109D01*
X142594703Y-54887855D01*
X142771235Y-54711631D01*
X142866891Y-54481265D01*
X142867109Y-54231829D01*
X142771855Y-54001297D01*
X142595631Y-53824765D01*
X142365265Y-53729109D01*
X142115829Y-53728891D01*
X141885297Y-53824145D01*
X141883639Y-53825800D01*
X141620906Y-53825800D01*
X141620906Y-52832000D01*
X141596715Y-52707316D01*
X141595194Y-52705000D01*
X149479000Y-52705000D01*
X149479000Y-53122164D01*
G36*
X169545000Y-51689000D02*
X157561982Y-51689000D01*
X157604684Y-51680715D01*
X157714270Y-51608729D01*
X157787625Y-51500055D01*
X157813406Y-51371500D01*
X157813406Y-49720500D01*
X157789215Y-49595816D01*
X157717229Y-49486230D01*
X157608555Y-49412875D01*
X157480000Y-49387094D01*
X154432000Y-49387094D01*
X154307316Y-49411285D01*
X154197730Y-49483271D01*
X154124375Y-49591945D01*
X154098594Y-49720500D01*
X154098594Y-51371500D01*
X154122785Y-51496184D01*
X154194771Y-51605770D01*
X154303445Y-51679125D01*
X154352686Y-51689000D01*
X154051000Y-51689000D01*
X154051000Y-35687000D01*
X169545000Y-35687000D01*
X169545000Y-51689000D01*
X169545000Y-51689000D01*
G37*
X169545000Y-51689000D02*
X157561982Y-51689000D01*
X157604684Y-51680715D01*
X157714270Y-51608729D01*
X157787625Y-51500055D01*
X157813406Y-51371500D01*
X157813406Y-49720500D01*
X157789215Y-49595816D01*
X157717229Y-49486230D01*
X157608555Y-49412875D01*
X157480000Y-49387094D01*
X154432000Y-49387094D01*
X154307316Y-49411285D01*
X154197730Y-49483271D01*
X154124375Y-49591945D01*
X154098594Y-49720500D01*
X154098594Y-51371500D01*
X154122785Y-51496184D01*
X154194771Y-51605770D01*
X154303445Y-51679125D01*
X154352686Y-51689000D01*
X154051000Y-51689000D01*
X154051000Y-35687000D01*
X169545000Y-35687000D01*
X169545000Y-51689000D01*
M02*
