M48
;DRILL file {KiCad (2015-06-14 BZR 5748)-product} date Monday, August 03, 2015 'AMt' 10:40:41 AM
;FORMAT={-:-/ absolute / inch / decimal}
FMAT,2
INCH,TZ
T1C0.016
T2C0.023
T3C0.031
T4C0.032
T5C0.039
T6C0.039
T7C0.040
T8C0.051
T9C0.073
T10C0.087
T11C0.091
T12C0.183
%
G90
G05
M72
T1
X5.04Y-1.48
X5.09Y-2.97
X5.09Y-3.03
X5.09Y-3.09
X5.09Y-3.15
X5.09Y-3.21
X5.09Y-3.27
X5.09Y-3.33
X5.11Y-2.88
X5.14Y-1.04
X5.16Y-1.44
X5.26Y-1.02
X5.29Y-3.27
X5.34Y-1.88
X5.39Y-2.99
X5.42Y-1.9
X5.48Y-3.53
X5.51Y-1.21
X5.54Y-1.68
X5.54Y-1.71
X5.56Y-1.46
X5.56Y-1.5
X5.59Y-1.68
X5.59Y-1.71
X5.6Y-1.46
X5.6Y-1.5
X5.6Y-2.14
X5.64Y-1.46
X5.64Y-1.5
X5.66Y-1.71
X5.7Y-3.22
X5.7Y-3.27
X5.7Y-3.32
X5.7Y-3.37
X5.72Y-1.58
X5.72Y-1.64
X5.73Y-2.23
X5.73Y-2.26
X5.73Y-2.29
X5.76Y-2.23
X5.76Y-2.26
X5.76Y-2.29
X5.76Y-2.96
X5.76Y-3.41
X5.84Y-2.14
X5.855Y-1.59
X5.88Y-2.99
X5.88Y-3.03
X5.88Y-3.07
X5.88Y-3.32
X5.88Y-3.36
X5.88Y-3.4
X5.92Y-1.73
X5.93Y-2.99
X5.93Y-3.03
X5.93Y-3.07
X5.93Y-3.32
X5.93Y-3.36
X5.93Y-3.4
X5.98Y-2.22
X5.98Y-2.42
X5.98Y-2.52
X5.98Y-2.62
X6.08Y-2.22
X6.08Y-2.42
X6.08Y-2.52
X6.08Y-2.62
X6.08Y-2.72
X6.08Y-2.82
X6.08Y-2.92
X6.08Y-3.02
X6.08Y-3.12
X6.08Y-3.22
X6.08Y-3.32
X6.08Y-3.42
X6.08Y-3.52
X6.08Y-3.62
X6.14Y-2.065
X6.18Y-2.22
X6.18Y-2.42
X6.18Y-2.52
X6.18Y-2.62
X6.18Y-2.72
X6.18Y-2.82
X6.18Y-2.92
X6.18Y-3.02
X6.18Y-3.12
X6.18Y-3.22
X6.18Y-3.32
X6.18Y-3.42
X6.18Y-3.52
X6.18Y-3.62
X6.18Y-3.72
X6.24Y-1.16
X6.27Y-2.23
X6.28Y-2.32
X6.28Y-2.42
X6.28Y-2.52
X6.28Y-2.62
X6.28Y-2.72
X6.28Y-2.82
X6.28Y-2.92
X6.28Y-3.02
X6.28Y-3.12
X6.28Y-3.22
X6.28Y-3.32
X6.28Y-3.42
X6.28Y-3.52
X6.28Y-3.62
X6.28Y-3.72
X6.38Y-2.12
X6.38Y-2.22
X6.38Y-2.32
X6.38Y-2.42
X6.38Y-2.52
X6.38Y-2.62
X6.38Y-2.72
X6.38Y-2.82
X6.38Y-2.92
X6.38Y-3.02
X6.38Y-3.12
X6.38Y-3.22
X6.38Y-3.42
X6.38Y-3.52
X6.38Y-3.62
X6.38Y-3.72
X6.39Y-1.21
X6.48Y-1.08
X6.48Y-1.16
X6.48Y-2.22
X6.48Y-2.32
X6.48Y-2.42
X6.48Y-2.52
X6.48Y-2.62
X6.48Y-2.72
X6.48Y-2.82
X6.48Y-2.92
X6.48Y-3.02
X6.48Y-3.12
X6.48Y-3.22
X6.58Y-2.22
X6.73Y-1.08
X6.8Y-2.43
X6.92Y-3.01
X6.955Y-1.895
X7.02Y-1.28
X7.025Y-1.68
X7.06Y-1.94
X7.08Y-3.16
X7.2Y-3.08
X7.22Y-2.97
X7.24Y-2.53
X7.3Y-2.46
X7.3Y-2.52
X7.3Y-2.68
X7.35Y-3.11
X7.5Y-3.05
X7.5Y-3.16
X7.54Y-1.71
X7.62Y-2.52
X7.64Y-2.84
X7.71Y-3.43
X7.72Y-2.62
X7.75Y-2.56
X7.77Y-3.43
X7.77Y-3.77
X7.8Y-1.35
X7.82Y-3.86
X7.84Y-2.3
X7.87Y-3.82
X8.04Y-1.64
X8.04Y-1.74
X8.06Y-0.89
X8.1Y-1.046
X8.11Y-0.89
X8.11Y-3.78
X8.14Y-3.78
X8.16Y-0.89
X8.17Y-3.73
X8.17Y-3.76
X8.18Y-2.62
X8.18Y-2.82
X8.18Y-2.92
X8.18Y-3.02
X8.18Y-3.12
X8.19Y-1.09
X8.204Y-1.14
X8.22Y-0.89
X8.28Y-2.62
X8.28Y-2.72
X8.28Y-2.82
X8.28Y-2.92
X8.28Y-3.02
X8.28Y-3.12
X8.38Y-2.62
X8.38Y-2.72
X8.38Y-2.92
X8.38Y-3.02
X8.4925Y-2.1175
X8.52Y-2.34
X8.64Y-2.18
X8.64Y-2.27
X8.64Y-2.36
X8.71Y-1.9
X8.89Y-1.44
X8.89Y-1.67
X8.89Y-3.065
X8.895Y-2.965
X8.895Y-3.015
X8.9Y-2.46
X8.9Y-2.52
X8.9025Y-2.6775
X8.94Y-2.965
X8.945Y-3.015
X8.945Y-3.065
X8.97Y-2.67
X8.97Y-2.71
X8.98Y-1.8
X8.99Y-1.45
X8.99Y-1.48
X9.01Y-2.67
X9.01Y-2.71
X9.03Y-1.45
X9.03Y-1.48
X9.03Y-1.8
X9.03Y-1.86
X9.03Y-1.96
X9.05Y-2.67
X9.05Y-2.71
X9.07Y-1.45
X9.07Y-2.77
X9.08Y-1.48
X9.09Y-2.55
X9.09Y-2.59
X9.09Y-2.63
X9.09Y-2.67
X9.09Y-2.71
X9.14Y-2.67
X9.14Y-2.71
X9.16Y-1.6
X9.16Y-2.16
X9.16Y-2.26
X9.16Y-2.36
X9.18Y-2.67
X9.18Y-2.71
X9.21Y-2.86
X9.21Y-3.18
X9.22Y-1.59
X9.22Y-1.68
X9.22Y-2.67
X9.22Y-2.71
X9.26Y-2.16
X9.26Y-2.26
X9.26Y-2.36
X9.26Y-2.67
X9.26Y-2.71
X9.26Y-2.85
X9.26Y-3.18
X9.27Y-1.54
X9.27Y-1.74
X9.29Y-1.22
X9.3Y-2.67
X9.3Y-2.71
X9.308Y-1.098
X9.31Y-3.18
X9.39Y-2.96
X9.42Y-3.54
X9.42Y-3.58
X9.42Y-3.62
X9.43Y-1.42
X9.43Y-1.62
X9.46Y-2.89
X9.46Y-3.54
X9.46Y-3.58
X9.46Y-3.62
X9.49Y-3.42
X9.5Y-3.54
X9.5Y-3.58
X9.5Y-3.62
X9.53Y-3.1
X9.535Y-3.38
X9.55Y-1.85
X9.585Y-3.38
X9.63Y-1.98
X9.635Y-3.38
X9.64Y-2.79
X9.685Y-3.38
X9.71Y-1.22
X9.73Y-1.1
X9.735Y-3.38
X9.77Y-1.74
X9.78Y-1.9
X9.785Y-3.38
X9.83Y-1.66
X9.83Y-1.98
X9.83Y-3.38
X9.84Y-2.84
X9.84Y-2.94
X9.87Y-2.08
X9.885Y-3.38
X9.92Y-3.54
X9.92Y-3.58
X9.92Y-3.62
X9.93Y-3.425
X9.96Y-3.54
X9.96Y-3.58
X9.96Y-3.62
X10.Y-3.54
X10.Y-3.58
X10.Y-3.62
T2
X9.235Y-3.015
T3
X5.09Y-2.62
X5.09Y-2.72
X5.39Y-2.62
X5.39Y-2.72
X5.84Y-2.38
X5.84Y-2.73
X5.9778Y-2.38
X5.9778Y-2.73
X6.4031Y-2.86
X6.4031Y-3.28
X6.4131Y-2.44
X6.6Y-2.86
X6.6Y-3.28
X6.61Y-2.44
X6.85Y-2.36
X6.85Y-2.66
X6.95Y-2.36
X6.95Y-2.66
X7.69Y-0.94
X7.69Y-1.04
X7.69Y-1.14
X7.69Y-1.24
X7.69Y-1.34
X7.69Y-1.44
X7.69Y-1.54
X7.69Y-1.64
X7.69Y-1.74
X7.69Y-1.84
X7.69Y-1.94
X7.69Y-2.04
X7.69Y-2.14
X7.69Y-2.24
X7.79Y-2.24
X7.89Y-2.24
X7.99Y-2.24
X8.04Y-2.71
X8.04Y-3.06
X8.09Y-2.24
X8.1778Y-2.71
X8.1778Y-3.06
X8.19Y-2.24
X8.29Y-0.94
X8.29Y-1.04
X8.29Y-1.14
X8.29Y-1.24
X8.29Y-1.34
X8.29Y-1.44
X8.29Y-1.54
X8.29Y-1.64
X8.29Y-1.74
X8.29Y-1.84
X8.29Y-1.94
X8.29Y-2.04
X8.29Y-2.14
X8.29Y-2.24
X8.3922Y-2.78
X8.3922Y-3.12
X8.53Y-2.78
X8.53Y-3.12
X8.7Y-2.89
X8.7Y-3.19
X8.8Y-2.89
X8.8Y-3.19
X9.6706Y-3.6734
X9.7494Y-3.6734
T4
X8.71Y-1.08
X8.71Y-1.18
X8.71Y-1.28
X8.71Y-1.54
X8.71Y-1.64
X8.71Y-1.74
X9.03Y-1.08
X9.03Y-1.18
X9.03Y-1.28
X9.49Y-1.08
X9.49Y-1.18
X9.49Y-1.28
X9.59Y-1.5
X9.69Y-1.5
X9.79Y-1.5
X9.89Y-1.08
X9.89Y-1.18
X9.89Y-1.28
T5
X4.9216Y-1.2647
X4.9216Y-1.8356
X5.02Y-1.2647
X5.1184Y-1.2647
X5.1184Y-1.8356
T6
X7.17Y-3.3999
X7.27Y-3.3999
X7.35Y-3.3999
X7.45Y-3.3999
T7
X6.28Y-0.94
X6.38Y-0.94
X6.48Y-0.94
X6.58Y-0.94
X6.68Y-0.94
X6.78Y-0.94
X7.18Y-1.92
X7.28Y-1.92
X7.38Y-1.92
X8.43Y-0.94
X8.43Y-1.04
X8.43Y-1.14
X8.53Y-0.94
X8.53Y-1.04
X8.53Y-1.14
X9.39Y-0.92
X9.49Y-0.92
X9.81Y-0.92
X9.91Y-0.92
T8
X5.1622Y-3.75
X5.4378Y-3.75
X5.8422Y-3.75
X6.1178Y-3.75
X6.5222Y-3.75
X6.7978Y-3.75
X9.5722Y-3.72
X9.8478Y-3.72
T9
X8.925Y-3.34
X9.01Y-3.84
X9.11Y-3.34
X9.21Y-3.84
X9.295Y-3.34
T10
X4.7995Y-1.56
X5.2405Y-1.56
T11
X7.03Y-3.5049
X7.57Y-3.5049
T12
X4.8581Y-0.94
X4.86Y-3.74
X10.16Y-0.94
X10.16Y-3.74
T0
M30
