G04 #@! TF.FileFunction,Copper,L2,Inr,Signal*
%FSLAX46Y46*%
G04 Gerber Fmt 4.6, Leading zero omitted, Abs format (unit mm)*
G04 Created by KiCad (PCBNEW (2015-06-14 BZR 5748)-product) date Monday, August 03, 2015 'AMt' 10:40:36 AM*
%MOMM*%
G01*
G04 APERTURE LIST*
%ADD10C,0.100000*%
%ADD11R,2.032000X2.032000*%
%ADD12O,2.032000X2.032000*%
%ADD13R,2.000000X2.000000*%
%ADD14C,2.000000*%
%ADD15R,1.300000X1.300000*%
%ADD16C,1.300000*%
%ADD17C,1.501140*%
%ADD18C,2.999740*%
%ADD19R,1.727200X1.727200*%
%ADD20O,1.727200X1.727200*%
%ADD21R,1.727200X2.032000*%
%ADD22O,1.727200X2.032000*%
%ADD23C,1.800000*%
%ADD24C,3.000000*%
%ADD25C,1.524000*%
%ADD26C,2.612000*%
%ADD27O,1.600000X1.600000*%
%ADD28C,1.900000*%
%ADD29C,5.700000*%
%ADD30C,1.500000*%
%ADD31C,0.838200*%
%ADD32C,0.600000*%
%ADD33C,0.304800*%
%ADD34C,0.254000*%
G04 APERTURE END LIST*
D10*
D11*
X238506000Y-23368000D03*
D12*
X241046000Y-23368000D03*
D13*
X138120000Y-95250000D03*
D14*
X131120000Y-95250000D03*
D15*
X167640000Y-83312000D03*
D16*
X162640000Y-83312000D03*
D15*
X167894000Y-61976000D03*
D16*
X162894000Y-61976000D03*
D15*
X167640000Y-72644000D03*
D16*
X162640000Y-72644000D03*
X151836000Y-69342000D03*
D15*
X148336000Y-69342000D03*
D16*
X151836000Y-60452000D03*
D15*
X148336000Y-60452000D03*
D16*
X213162000Y-79248000D03*
D15*
X216662000Y-79248000D03*
D16*
X213162000Y-70612000D03*
D15*
X216662000Y-70612000D03*
D16*
X207716000Y-68834000D03*
D15*
X204216000Y-68834000D03*
D16*
X207716000Y-77724000D03*
D15*
X204216000Y-77724000D03*
D17*
X189230860Y-86357880D03*
X186690860Y-86357880D03*
X184658860Y-86357880D03*
X182118860Y-86357880D03*
D18*
X192278860Y-89024880D03*
X178562860Y-89024880D03*
D11*
X249174000Y-23368000D03*
D12*
X251714000Y-23368000D03*
D19*
X216662000Y-23876000D03*
D20*
X214122000Y-23876000D03*
X216662000Y-26416000D03*
X214122000Y-26416000D03*
X216662000Y-28956000D03*
X214122000Y-28956000D03*
D21*
X172212000Y-23876000D03*
D22*
X169672000Y-23876000D03*
X167132000Y-23876000D03*
X164592000Y-23876000D03*
X162052000Y-23876000D03*
X159512000Y-23876000D03*
D23*
X130008000Y-46624000D03*
X130008000Y-32124000D03*
X127508000Y-32124000D03*
X125008000Y-32124000D03*
X125008000Y-46624000D03*
D24*
X121908000Y-39624000D03*
X133108000Y-39624000D03*
D25*
X229362000Y-29972000D03*
X229362000Y-27432000D03*
X229362000Y-32512000D03*
X251206000Y-29972000D03*
X251206000Y-27432000D03*
X251206000Y-32512000D03*
X241046000Y-29972000D03*
X241046000Y-27432000D03*
X241046000Y-32512000D03*
X221234000Y-29972000D03*
X221234000Y-27432000D03*
X221234000Y-32512000D03*
X246126000Y-38100000D03*
X243586000Y-38100000D03*
X248666000Y-38100000D03*
X221234000Y-41656000D03*
X221234000Y-39116000D03*
X221234000Y-44196000D03*
D26*
X226694000Y-84836000D03*
X231394000Y-84836000D03*
X236094000Y-84836000D03*
X228854000Y-97536000D03*
X233934000Y-97536000D03*
D27*
X129286000Y-66548000D03*
X129286000Y-69088000D03*
X136906000Y-69088000D03*
X136906000Y-66548000D03*
X223520000Y-81026000D03*
X220980000Y-81026000D03*
X220980000Y-73406000D03*
X223520000Y-73406000D03*
D28*
X195326000Y-26416000D03*
X195326000Y-28956000D03*
X195326000Y-31496000D03*
X195326000Y-34036000D03*
X195326000Y-36576000D03*
X195326000Y-39116000D03*
X195326000Y-41656000D03*
X195326000Y-44196000D03*
X195326000Y-46736000D03*
X195326000Y-49276000D03*
X195326000Y-51816000D03*
X195326000Y-54356000D03*
X195326000Y-56896000D03*
X210566000Y-56896000D03*
X210566000Y-54356000D03*
X210566000Y-51816000D03*
X210566000Y-49276000D03*
X210566000Y-46736000D03*
X210566000Y-44196000D03*
X210566000Y-41656000D03*
X210566000Y-39116000D03*
X210566000Y-36576000D03*
X210566000Y-34036000D03*
X210566000Y-31496000D03*
X210566000Y-28956000D03*
X210566000Y-26416000D03*
X210566000Y-23876000D03*
X195326000Y-23876000D03*
X197866000Y-56896000D03*
X200406000Y-56896000D03*
X202946000Y-56896000D03*
X205486000Y-56896000D03*
X208026000Y-56896000D03*
D27*
X173990000Y-67564000D03*
X176530000Y-67564000D03*
X176530000Y-59944000D03*
X173990000Y-59944000D03*
D21*
X182372000Y-48768000D03*
D22*
X184912000Y-48768000D03*
X187452000Y-48768000D03*
D13*
X155392000Y-95250000D03*
D14*
X148392000Y-95250000D03*
D13*
X243134000Y-94488000D03*
D14*
X250134000Y-94488000D03*
D13*
X172664000Y-95250000D03*
D14*
X165664000Y-95250000D03*
D29*
X123396240Y-23876000D03*
X123444000Y-94996000D03*
X258064000Y-94996000D03*
X258064000Y-23876000D03*
D30*
X247634000Y-93304000D03*
X245634000Y-93304000D03*
D31*
X234569000Y-76581000D03*
D32*
X128016000Y-37592000D03*
X135636000Y-47752000D03*
X130556000Y-26416000D03*
X234188000Y-42672000D03*
X208788000Y-22606000D03*
X207264000Y-22606000D03*
X205994000Y-22606000D03*
X204724000Y-22606000D03*
X178308000Y-32512000D03*
X178435000Y-42672000D03*
X236220000Y-68834000D03*
X236220000Y-67818000D03*
X235204000Y-67818000D03*
X235204000Y-68834000D03*
X234188000Y-68834000D03*
X234188000Y-67818000D03*
X233172000Y-67818000D03*
X233172000Y-68834000D03*
X232156000Y-68834000D03*
X232156000Y-67818000D03*
X230886000Y-64770000D03*
X230886000Y-65786000D03*
X230886000Y-66802000D03*
X230886000Y-67818000D03*
X230886000Y-68834000D03*
X229870000Y-68834000D03*
X228854000Y-68834000D03*
X227838000Y-68834000D03*
X227838000Y-67818000D03*
X228854000Y-67818000D03*
X229870000Y-67818000D03*
X204216000Y-44196000D03*
X204216000Y-41656000D03*
X162306000Y-30734000D03*
X158496000Y-29464000D03*
X229362000Y-49784000D03*
X229362000Y-45720000D03*
X235458000Y-44196000D03*
X235966000Y-30988000D03*
X246634000Y-30988000D03*
X244602000Y-50292000D03*
X249682000Y-42164000D03*
X134366000Y-83058000D03*
X249936000Y-74676000D03*
X131064000Y-36576000D03*
X137668000Y-48260000D03*
X133604000Y-25908000D03*
X234188000Y-40386000D03*
X208381600Y-28956000D03*
X205740000Y-26568400D03*
X191516000Y-43434000D03*
X179324000Y-49276000D03*
X219456000Y-55372000D03*
X219456000Y-57658000D03*
X219456000Y-59944000D03*
X170942000Y-27432000D03*
X164592000Y-29464000D03*
X164592000Y-27432000D03*
X208026000Y-27686000D03*
X228092000Y-45720000D03*
X176657000Y-48133000D03*
X179832000Y-80264000D03*
X190500000Y-80264000D03*
X229362000Y-47244000D03*
X235458000Y-39116000D03*
X239522000Y-36068000D03*
X248158000Y-44196000D03*
X250698000Y-52832000D03*
X199898000Y-97028000D03*
X242062000Y-78740000D03*
X240284000Y-73406000D03*
X244856000Y-70866000D03*
X249936000Y-72136000D03*
X136906000Y-75946000D03*
X129286000Y-76962000D03*
X129286000Y-75438000D03*
X129286000Y-80010000D03*
X129286000Y-78486000D03*
X129286000Y-84582000D03*
X129286000Y-83058000D03*
X129286000Y-81534000D03*
X193548000Y-64008000D03*
X233934000Y-72644000D03*
X233934000Y-80772000D03*
X228346000Y-37592000D03*
X228346000Y-36830000D03*
X229362000Y-36830000D03*
X229362000Y-37592000D03*
X230632000Y-37592000D03*
X230378000Y-36830000D03*
X235204000Y-54864000D03*
X232664000Y-54864000D03*
X232664000Y-57404000D03*
X235204000Y-57404000D03*
X235204000Y-59944000D03*
X232664000Y-59944000D03*
X226060000Y-64008000D03*
X226060000Y-62484000D03*
X226123500Y-68008500D03*
X249682000Y-50292000D03*
X185420000Y-68072000D03*
X185420000Y-62484000D03*
X185420000Y-64008000D03*
X140716000Y-42672000D03*
X141986000Y-42672000D03*
X143764000Y-43434000D03*
X141986000Y-43434000D03*
X140716000Y-43434000D03*
X182880000Y-78232000D03*
X196088000Y-66548000D03*
X227076000Y-75311000D03*
X225933000Y-75311000D03*
X225806000Y-77851000D03*
X227203000Y-77851000D03*
X225933000Y-76581000D03*
X227203000Y-76581000D03*
X159512000Y-58928000D03*
X162052000Y-58928000D03*
X164592000Y-58928000D03*
X164592000Y-61468000D03*
X162052000Y-61468000D03*
X159512000Y-61468000D03*
X156972000Y-61468000D03*
X154432000Y-61468000D03*
X151892000Y-61468000D03*
X151892000Y-64008000D03*
X154432000Y-64008000D03*
X156972000Y-64008000D03*
X159512000Y-64008000D03*
X162052000Y-64008000D03*
X162052000Y-66548000D03*
X159512000Y-66548000D03*
X156972000Y-66548000D03*
X154432000Y-66548000D03*
X151892000Y-66548000D03*
X162052000Y-56388000D03*
X162052000Y-53848000D03*
X164592000Y-56388000D03*
X167132000Y-56388000D03*
X156972000Y-56388000D03*
X154432000Y-56388000D03*
X151892000Y-56388000D03*
X154432000Y-69088000D03*
X156972000Y-69088000D03*
X159512000Y-69088000D03*
X162052000Y-69088000D03*
X162052000Y-71628000D03*
X159512000Y-71628000D03*
X156972000Y-71628000D03*
X154432000Y-71628000D03*
X164592000Y-71628000D03*
X164592000Y-69088000D03*
X164592000Y-66548000D03*
X164592000Y-64008000D03*
X164592000Y-74168000D03*
X162052000Y-74168000D03*
X159512000Y-74168000D03*
X156972000Y-74168000D03*
X154432000Y-74168000D03*
X154432000Y-76708000D03*
X156972000Y-76708000D03*
X159512000Y-76708000D03*
X162052000Y-76708000D03*
X162052000Y-79248000D03*
X164592000Y-79248000D03*
X164592000Y-76708000D03*
X198628000Y-98044000D03*
X205994000Y-96012000D03*
X206756000Y-96012000D03*
X207518000Y-94742000D03*
X207518000Y-95504000D03*
X197358000Y-87122000D03*
X197358000Y-95758000D03*
X159512000Y-79248000D03*
X156972000Y-79248000D03*
X154432000Y-79248000D03*
X154432000Y-81788000D03*
X156972000Y-81788000D03*
X159512000Y-81788000D03*
X162052000Y-81788000D03*
X164592000Y-81788000D03*
X159512000Y-84328000D03*
X156972000Y-84328000D03*
X154432000Y-84328000D03*
X154432000Y-86868000D03*
X156972000Y-86868000D03*
X159512000Y-86868000D03*
X162052000Y-86868000D03*
X162052000Y-89408000D03*
X159512000Y-89408000D03*
X156972000Y-89408000D03*
X154432000Y-89408000D03*
X159512000Y-94488000D03*
X162052000Y-94488000D03*
X162052000Y-91948000D03*
X159512000Y-91948000D03*
X156972000Y-91948000D03*
X154432000Y-91948000D03*
X156972000Y-94488000D03*
X212852000Y-76708000D03*
X212852000Y-74168000D03*
X210312000Y-74168000D03*
X207772000Y-74168000D03*
X207772000Y-76708000D03*
X210312000Y-76708000D03*
X207772000Y-79248000D03*
X210312000Y-79248000D03*
X210312000Y-71628000D03*
X207772000Y-71628000D03*
X210312000Y-69088000D03*
X207772000Y-66548000D03*
X210312000Y-66548000D03*
X212852000Y-66548000D03*
X212852000Y-69088000D03*
X149352000Y-77978000D03*
X150622000Y-77978000D03*
X150622000Y-76962000D03*
X149352000Y-76962000D03*
X149352000Y-75946000D03*
X150622000Y-75946000D03*
X146304000Y-75184000D03*
X143256000Y-37084000D03*
X142240000Y-37084000D03*
X141224000Y-37084000D03*
X141224000Y-38100000D03*
X142240000Y-38100000D03*
X143256000Y-38100000D03*
X145542000Y-56642000D03*
X145542000Y-57404000D03*
X145542000Y-58166000D03*
X146304000Y-58166000D03*
X146304000Y-57404000D03*
X146304000Y-56642000D03*
X139192000Y-89662000D03*
X172720000Y-61722000D03*
X139954000Y-30734000D03*
X232664000Y-40640000D03*
X150622000Y-86360000D03*
X149352000Y-86360000D03*
X149352000Y-85344000D03*
X150622000Y-85344000D03*
X150622000Y-84328000D03*
X149352000Y-84328000D03*
X146304000Y-86614000D03*
X144780000Y-84328000D03*
X144780000Y-85598000D03*
X144780000Y-81788000D03*
X144780000Y-83058000D03*
X129794000Y-73152000D03*
X241046000Y-86868000D03*
X242189000Y-85852000D03*
X243459000Y-85852000D03*
X244729000Y-85852000D03*
X245999000Y-85852000D03*
X241300000Y-89916000D03*
X240284000Y-89916000D03*
X239268000Y-89916000D03*
X239268000Y-90932000D03*
X240284000Y-90932000D03*
X241300000Y-90932000D03*
X241300000Y-91948000D03*
X240284000Y-91948000D03*
X239268000Y-91948000D03*
X215709500Y-53784500D03*
X221234000Y-48260000D03*
X225806000Y-42418000D03*
X225806000Y-36576000D03*
X239522000Y-41148000D03*
X199136000Y-58420000D03*
X148717000Y-40386000D03*
X155956000Y-52451000D03*
X148336000Y-54356000D03*
X142240000Y-54356000D03*
X198120000Y-34290000D03*
X194056000Y-72136000D03*
X195834000Y-87122000D03*
X175768000Y-76454000D03*
X196850000Y-65024000D03*
X247142000Y-27940000D03*
X236423200Y-27889200D03*
X236474000Y-80772000D03*
X248412000Y-48260000D03*
X242570000Y-46990000D03*
X145288000Y-41656000D03*
X145288000Y-40132000D03*
X216408000Y-59436000D03*
X235204000Y-72390000D03*
X235204000Y-80772000D03*
X247269000Y-85852000D03*
X248539000Y-85852000D03*
X249682000Y-85852000D03*
X251079000Y-85852000D03*
X252222000Y-86995000D03*
X251968000Y-89916000D03*
X252984000Y-89916000D03*
X254000000Y-89916000D03*
X254000000Y-90932000D03*
X252984000Y-90932000D03*
X251968000Y-90932000D03*
X251968000Y-91948000D03*
X252984000Y-91948000D03*
X254000000Y-91948000D03*
X190500000Y-77470000D03*
X186690000Y-78994000D03*
X230378000Y-70358000D03*
X238506000Y-75184000D03*
X183388000Y-75438000D03*
X183896000Y-64262000D03*
X159258000Y-56642000D03*
X150368000Y-43942000D03*
D33*
X180086000Y-48514000D02*
X182372000Y-48514000D01*
X208026000Y-27686000D02*
X208381600Y-28041600D01*
X208381600Y-28041600D02*
X208381600Y-28956000D01*
X206908400Y-26568400D02*
X208026000Y-27686000D01*
X205740000Y-26568400D02*
X206908400Y-26568400D01*
X219456000Y-59944000D02*
X219456000Y-57658000D01*
X164592000Y-27432000D02*
X164592000Y-29464000D01*
X129286000Y-75438000D02*
X129286000Y-76962000D01*
X129286000Y-78486000D02*
X129286000Y-80010000D01*
X129286000Y-81534000D02*
X129286000Y-83058000D01*
X228346000Y-37592000D02*
X228346000Y-36830000D01*
X229362000Y-36830000D02*
X229362000Y-37592000D01*
X230632000Y-37592000D02*
X230378000Y-36830000D01*
X232664000Y-54864000D02*
X235204000Y-54864000D01*
X235204000Y-57404000D02*
X232664000Y-57404000D01*
X232664000Y-59944000D02*
X235204000Y-59944000D01*
X226060000Y-64008000D02*
X226060000Y-62484000D01*
X185420000Y-64008000D02*
X185420000Y-62484000D01*
X140716000Y-42672000D02*
X141986000Y-42672000D01*
X143764000Y-43434000D02*
X141986000Y-43434000D01*
X225806000Y-77851000D02*
X227203000Y-77851000D01*
X225933000Y-76581000D02*
X227203000Y-76581000D01*
X156972000Y-58928000D02*
X159512000Y-58928000D01*
X162052000Y-58928000D02*
X164592000Y-58928000D01*
X164592000Y-61468000D02*
X162052000Y-61468000D01*
X159512000Y-61468000D02*
X156972000Y-61468000D01*
X154432000Y-61468000D02*
X151892000Y-61468000D01*
X151892000Y-64008000D02*
X154432000Y-64008000D01*
X156972000Y-64008000D02*
X159512000Y-64008000D01*
X162052000Y-64008000D02*
X162052000Y-66548000D01*
X159512000Y-66548000D02*
X156972000Y-66548000D01*
X154432000Y-66548000D02*
X151892000Y-66548000D01*
X167132000Y-58928000D02*
X167132000Y-56388000D01*
X167132000Y-56388000D02*
X164592000Y-56388000D01*
X164592000Y-58928000D02*
X167132000Y-58928000D01*
X164592000Y-56388000D02*
X164592000Y-58928000D01*
X162052000Y-56388000D02*
X162052000Y-53848000D01*
X154432000Y-56388000D02*
X151892000Y-56388000D01*
X156972000Y-58928000D02*
X156972000Y-56388000D01*
X154432000Y-69088000D02*
X156972000Y-69088000D01*
X159512000Y-69088000D02*
X162052000Y-69088000D01*
X162052000Y-71628000D02*
X159512000Y-71628000D01*
X156972000Y-71628000D02*
X154432000Y-71628000D01*
X164592000Y-71628000D02*
X164592000Y-69088000D01*
X164592000Y-66548000D02*
X164592000Y-64008000D01*
X164592000Y-74168000D02*
X162052000Y-74168000D01*
X159512000Y-74168000D02*
X156972000Y-74168000D01*
X154432000Y-74168000D02*
X154432000Y-76708000D01*
X156972000Y-76708000D02*
X159512000Y-76708000D01*
X162052000Y-76708000D02*
X162052000Y-79248000D01*
X164592000Y-79248000D02*
X164592000Y-76708000D01*
X205994000Y-96012000D02*
X206756000Y-96012000D01*
X207518000Y-94742000D02*
X207518000Y-95504000D01*
X156972000Y-79248000D02*
X159512000Y-79248000D01*
X154432000Y-81788000D02*
X154432000Y-79248000D01*
X159512000Y-81788000D02*
X156972000Y-81788000D01*
X164592000Y-81788000D02*
X162052000Y-81788000D01*
X159512000Y-84328000D02*
X156972000Y-84328000D01*
X154432000Y-84328000D02*
X154432000Y-86868000D01*
X156972000Y-86868000D02*
X159512000Y-86868000D01*
X162052000Y-86868000D02*
X162052000Y-89408000D01*
X159512000Y-89408000D02*
X156972000Y-89408000D01*
X162052000Y-94488000D02*
X159512000Y-94488000D01*
X159512000Y-91948000D02*
X162052000Y-91948000D01*
X154432000Y-91948000D02*
X156972000Y-91948000D01*
X212852000Y-74168000D02*
X212852000Y-76708000D01*
X207772000Y-74168000D02*
X210312000Y-74168000D01*
X210312000Y-76708000D02*
X207772000Y-76708000D01*
X207772000Y-79248000D02*
X210312000Y-79248000D01*
X210312000Y-71628000D02*
X207772000Y-71628000D01*
X210312000Y-69088000D02*
X207772000Y-66548000D01*
X210312000Y-66548000D02*
X212852000Y-66548000D01*
D34*
G36*
X119249000Y-19681000D02*
X119249000Y-19681000D01*
X174374952Y-19681000D01*
X174498016Y-27434016D01*
X174503123Y-27457721D01*
X174508003Y-27481403D01*
X174508329Y-27481884D01*
X174508453Y-27482457D01*
X174522228Y-27502380D01*
X174535814Y-27522416D01*
X174536302Y-27522737D01*
X174536634Y-27523217D01*
X174556999Y-27536362D01*
X174577204Y-27549663D01*
X174577775Y-27549772D01*
X174578267Y-27550090D01*
X174602123Y-27554442D01*
X174625870Y-27558997D01*
X193167870Y-27431997D01*
X193190735Y-27427285D01*
X193213733Y-27423090D01*
X193214967Y-27422292D01*
X193216404Y-27421997D01*
X193235734Y-27408888D01*
X193255366Y-27396217D01*
X193256200Y-27395010D01*
X193257416Y-27394186D01*
X193270263Y-27374669D01*
X193283547Y-27355457D01*
X193283856Y-27354021D01*
X193284663Y-27352796D01*
X193289061Y-27329860D01*
X193293984Y-27307016D01*
X193328400Y-25138779D01*
X195073103Y-25138779D01*
X194603583Y-25332781D01*
X194244043Y-25691693D01*
X194049222Y-26160875D01*
X194048779Y-26668897D01*
X194242781Y-27138417D01*
X194601693Y-27497957D01*
X195055088Y-27686223D01*
X194603583Y-27872781D01*
X194244043Y-28231693D01*
X194049222Y-28700875D01*
X194048779Y-29208897D01*
X194242781Y-29678417D01*
X194601693Y-30037957D01*
X195055088Y-30226223D01*
X194603583Y-30412781D01*
X194244043Y-30771693D01*
X194049222Y-31240875D01*
X194048779Y-31748897D01*
X194242781Y-32218417D01*
X194601693Y-32577957D01*
X195055088Y-32766223D01*
X194603583Y-32952781D01*
X194244043Y-33311693D01*
X194049222Y-33780875D01*
X194048779Y-34288897D01*
X194242781Y-34758417D01*
X194601693Y-35117957D01*
X195055088Y-35306223D01*
X194603583Y-35492781D01*
X194244043Y-35851693D01*
X194049222Y-36320875D01*
X194048779Y-36828897D01*
X194242781Y-37298417D01*
X194601693Y-37657957D01*
X195055088Y-37846223D01*
X194603583Y-38032781D01*
X194244043Y-38391693D01*
X194049222Y-38860875D01*
X194048779Y-39368897D01*
X194242781Y-39838417D01*
X194601693Y-40197957D01*
X195055088Y-40386223D01*
X194603583Y-40572781D01*
X194244043Y-40931693D01*
X194049222Y-41400875D01*
X194048779Y-41908897D01*
X194242781Y-42378417D01*
X194601693Y-42737957D01*
X195055088Y-42926223D01*
X194603583Y-43112781D01*
X194244043Y-43471693D01*
X194049222Y-43940875D01*
X194048779Y-44448897D01*
X194242781Y-44918417D01*
X194601693Y-45277957D01*
X195055088Y-45466223D01*
X194603583Y-45652781D01*
X194244043Y-46011693D01*
X194049222Y-46480875D01*
X194048779Y-46988897D01*
X194242781Y-47458417D01*
X194601693Y-47817957D01*
X195055088Y-48006223D01*
X194603583Y-48192781D01*
X194244043Y-48551693D01*
X194049222Y-49020875D01*
X194048779Y-49528897D01*
X194242781Y-49998417D01*
X194601693Y-50357957D01*
X195055088Y-50546223D01*
X194603583Y-50732781D01*
X194244043Y-51091693D01*
X194049222Y-51560875D01*
X194048779Y-52068897D01*
X194242781Y-52538417D01*
X194601693Y-52897957D01*
X195055088Y-53086223D01*
X194603583Y-53272781D01*
X194244043Y-53631693D01*
X194049222Y-54100875D01*
X194048779Y-54608897D01*
X194242781Y-55078417D01*
X194601693Y-55437957D01*
X195055088Y-55626223D01*
X194603583Y-55812781D01*
X194244043Y-56171693D01*
X194049222Y-56640875D01*
X194048779Y-57148897D01*
X194242781Y-57618417D01*
X194601693Y-57977957D01*
X195070875Y-58172778D01*
X195578897Y-58173221D01*
X196048417Y-57979219D01*
X196407957Y-57620307D01*
X196596223Y-57166912D01*
X196782781Y-57618417D01*
X197141693Y-57977957D01*
X197610875Y-58172778D01*
X198118897Y-58173221D01*
X198588417Y-57979219D01*
X198775071Y-57792891D01*
X199011829Y-57792891D01*
X198781297Y-57888145D01*
X198604765Y-58064369D01*
X198509109Y-58294735D01*
X198508891Y-58544171D01*
X198604145Y-58774703D01*
X198780369Y-58951235D01*
X199010735Y-59046891D01*
X199260171Y-59047109D01*
X199490703Y-58951855D01*
X199633916Y-58808891D01*
X216283829Y-58808891D01*
X216053297Y-58904145D01*
X215876765Y-59080369D01*
X215781109Y-59310735D01*
X215780891Y-59560171D01*
X215876145Y-59790703D01*
X216052369Y-59967235D01*
X216282735Y-60062891D01*
X216532171Y-60063109D01*
X216762703Y-59967855D01*
X216939235Y-59791631D01*
X217034891Y-59561265D01*
X217035109Y-59311829D01*
X216939855Y-59081297D01*
X216763631Y-58904765D01*
X216533265Y-58809109D01*
X216283829Y-58808891D01*
X199633916Y-58808891D01*
X199667235Y-58775631D01*
X199762891Y-58545265D01*
X199763109Y-58295829D01*
X199667855Y-58065297D01*
X199491631Y-57888765D01*
X199261265Y-57793109D01*
X199011829Y-57792891D01*
X198775071Y-57792891D01*
X198947957Y-57620307D01*
X199136223Y-57166912D01*
X199322781Y-57618417D01*
X199681693Y-57977957D01*
X200150875Y-58172778D01*
X200658897Y-58173221D01*
X201128417Y-57979219D01*
X201487957Y-57620307D01*
X201682778Y-57151125D01*
X201683221Y-56643103D01*
X201489219Y-56173583D01*
X201130307Y-55814043D01*
X200661125Y-55619222D01*
X200153103Y-55618779D01*
X199683583Y-55812781D01*
X199324043Y-56171693D01*
X199135777Y-56625088D01*
X198949219Y-56173583D01*
X198590307Y-55814043D01*
X198121125Y-55619222D01*
X197613103Y-55618779D01*
X197143583Y-55812781D01*
X196784043Y-56171693D01*
X196595777Y-56625088D01*
X196409219Y-56173583D01*
X196050307Y-55814043D01*
X195596912Y-55625777D01*
X196048417Y-55439219D01*
X196407957Y-55080307D01*
X196602778Y-54611125D01*
X196603221Y-54103103D01*
X196409219Y-53633583D01*
X196050307Y-53274043D01*
X195596912Y-53085777D01*
X196048417Y-52899219D01*
X196407957Y-52540307D01*
X196602778Y-52071125D01*
X196603221Y-51563103D01*
X196409219Y-51093583D01*
X196050307Y-50734043D01*
X195596912Y-50545777D01*
X196048417Y-50359219D01*
X196407957Y-50000307D01*
X196602778Y-49531125D01*
X196603221Y-49023103D01*
X196409219Y-48553583D01*
X196050307Y-48194043D01*
X195596912Y-48005777D01*
X196048417Y-47819219D01*
X196407957Y-47460307D01*
X196602778Y-46991125D01*
X196603221Y-46483103D01*
X196409219Y-46013583D01*
X196050307Y-45654043D01*
X195596912Y-45465777D01*
X196048417Y-45279219D01*
X196407957Y-44920307D01*
X196602778Y-44451125D01*
X196603221Y-43943103D01*
X196448600Y-43568891D01*
X204091829Y-43568891D01*
X203861297Y-43664145D01*
X203684765Y-43840369D01*
X203589109Y-44070735D01*
X203588891Y-44320171D01*
X203684145Y-44550703D01*
X203860369Y-44727235D01*
X204090735Y-44822891D01*
X204340171Y-44823109D01*
X204570703Y-44727855D01*
X204747235Y-44551631D01*
X204842891Y-44321265D01*
X204843109Y-44071829D01*
X204747855Y-43841297D01*
X204571631Y-43664765D01*
X204341265Y-43569109D01*
X204091829Y-43568891D01*
X196448600Y-43568891D01*
X196409219Y-43473583D01*
X196050307Y-43114043D01*
X195596912Y-42925777D01*
X196048417Y-42739219D01*
X196407957Y-42380307D01*
X196602778Y-41911125D01*
X196603221Y-41403103D01*
X196448600Y-41028891D01*
X204091829Y-41028891D01*
X203861297Y-41124145D01*
X203684765Y-41300369D01*
X203589109Y-41530735D01*
X203588891Y-41780171D01*
X203684145Y-42010703D01*
X203860369Y-42187235D01*
X204090735Y-42282891D01*
X204340171Y-42283109D01*
X204570703Y-42187855D01*
X204747235Y-42011631D01*
X204842891Y-41781265D01*
X204843109Y-41531829D01*
X204747855Y-41301297D01*
X204571631Y-41124765D01*
X204341265Y-41029109D01*
X204091829Y-41028891D01*
X196448600Y-41028891D01*
X196409219Y-40933583D01*
X196050307Y-40574043D01*
X195596912Y-40385777D01*
X196048417Y-40199219D01*
X196407957Y-39840307D01*
X196602778Y-39371125D01*
X196603221Y-38863103D01*
X196409219Y-38393583D01*
X196050307Y-38034043D01*
X195596912Y-37845777D01*
X196048417Y-37659219D01*
X196407957Y-37300307D01*
X196602778Y-36831125D01*
X196603221Y-36323103D01*
X196409219Y-35853583D01*
X196050307Y-35494043D01*
X195596912Y-35305777D01*
X196048417Y-35119219D01*
X196407957Y-34760307D01*
X196602778Y-34291125D01*
X196603221Y-33783103D01*
X196553551Y-33662891D01*
X197995829Y-33662891D01*
X197765297Y-33758145D01*
X197588765Y-33934369D01*
X197493109Y-34164735D01*
X197492891Y-34414171D01*
X197588145Y-34644703D01*
X197764369Y-34821235D01*
X197994735Y-34916891D01*
X198244171Y-34917109D01*
X198474703Y-34821855D01*
X198651235Y-34645631D01*
X198746891Y-34415265D01*
X198747109Y-34165829D01*
X198651855Y-33935297D01*
X198475631Y-33758765D01*
X198245265Y-33663109D01*
X197995829Y-33662891D01*
X196553551Y-33662891D01*
X196409219Y-33313583D01*
X196050307Y-32954043D01*
X195596912Y-32765777D01*
X196048417Y-32579219D01*
X196407957Y-32220307D01*
X196602778Y-31751125D01*
X196603221Y-31243103D01*
X196409219Y-30773583D01*
X196050307Y-30414043D01*
X195596912Y-30225777D01*
X196048417Y-30039219D01*
X196407957Y-29680307D01*
X196602778Y-29211125D01*
X196603221Y-28703103D01*
X196409219Y-28233583D01*
X196050307Y-27874043D01*
X195596912Y-27685777D01*
X195613848Y-27678779D01*
X210313103Y-27678779D01*
X209843583Y-27872781D01*
X209484043Y-28231693D01*
X209289222Y-28700875D01*
X209288779Y-29208897D01*
X209482781Y-29678417D01*
X209841693Y-30037957D01*
X210295088Y-30226223D01*
X209843583Y-30412781D01*
X209484043Y-30771693D01*
X209289222Y-31240875D01*
X209288779Y-31748897D01*
X209482781Y-32218417D01*
X209841693Y-32577957D01*
X210295088Y-32766223D01*
X209843583Y-32952781D01*
X209484043Y-33311693D01*
X209289222Y-33780875D01*
X209288779Y-34288897D01*
X209482781Y-34758417D01*
X209841693Y-35117957D01*
X210295088Y-35306223D01*
X209843583Y-35492781D01*
X209484043Y-35851693D01*
X209289222Y-36320875D01*
X209288779Y-36828897D01*
X209482781Y-37298417D01*
X209841693Y-37657957D01*
X210295088Y-37846223D01*
X209843583Y-38032781D01*
X209484043Y-38391693D01*
X209289222Y-38860875D01*
X209288779Y-39368897D01*
X209482781Y-39838417D01*
X209841693Y-40197957D01*
X210295088Y-40386223D01*
X209843583Y-40572781D01*
X209484043Y-40931693D01*
X209289222Y-41400875D01*
X209288779Y-41908897D01*
X209482781Y-42378417D01*
X209841693Y-42737957D01*
X210295088Y-42926223D01*
X209843583Y-43112781D01*
X209484043Y-43471693D01*
X209289222Y-43940875D01*
X209288779Y-44448897D01*
X209482781Y-44918417D01*
X209841693Y-45277957D01*
X210295088Y-45466223D01*
X209843583Y-45652781D01*
X209484043Y-46011693D01*
X209289222Y-46480875D01*
X209288779Y-46988897D01*
X209482781Y-47458417D01*
X209841693Y-47817957D01*
X210295088Y-48006223D01*
X209843583Y-48192781D01*
X209484043Y-48551693D01*
X209289222Y-49020875D01*
X209288779Y-49528897D01*
X209482781Y-49998417D01*
X209841693Y-50357957D01*
X210295088Y-50546223D01*
X209843583Y-50732781D01*
X209484043Y-51091693D01*
X209289222Y-51560875D01*
X209288779Y-52068897D01*
X209482781Y-52538417D01*
X209841693Y-52897957D01*
X210295088Y-53086223D01*
X209843583Y-53272781D01*
X209484043Y-53631693D01*
X209289222Y-54100875D01*
X209288779Y-54608897D01*
X209482781Y-55078417D01*
X209841693Y-55437957D01*
X210295088Y-55626223D01*
X209843583Y-55812781D01*
X209484043Y-56171693D01*
X209295777Y-56625088D01*
X209109219Y-56173583D01*
X208750307Y-55814043D01*
X208281125Y-55619222D01*
X207773103Y-55618779D01*
X207303583Y-55812781D01*
X206944043Y-56171693D01*
X206755777Y-56625088D01*
X206569219Y-56173583D01*
X206210307Y-55814043D01*
X205741125Y-55619222D01*
X205233103Y-55618779D01*
X204763583Y-55812781D01*
X204404043Y-56171693D01*
X204209222Y-56640875D01*
X204208779Y-57148897D01*
X204402781Y-57618417D01*
X204761693Y-57977957D01*
X205230875Y-58172778D01*
X205738897Y-58173221D01*
X206208417Y-57979219D01*
X206567957Y-57620307D01*
X206756223Y-57166912D01*
X206942781Y-57618417D01*
X207301693Y-57977957D01*
X207770875Y-58172778D01*
X208278897Y-58173221D01*
X208748417Y-57979219D01*
X209107957Y-57620307D01*
X209296223Y-57166912D01*
X209482781Y-57618417D01*
X209841693Y-57977957D01*
X210310875Y-58172778D01*
X210818897Y-58173221D01*
X211288417Y-57979219D01*
X211647957Y-57620307D01*
X211842778Y-57151125D01*
X211843221Y-56643103D01*
X211649219Y-56173583D01*
X211290307Y-55814043D01*
X210836912Y-55625777D01*
X211288417Y-55439219D01*
X211647957Y-55080307D01*
X211842778Y-54611125D01*
X211843221Y-54103103D01*
X211649219Y-53633583D01*
X211290307Y-53274043D01*
X211009378Y-53157391D01*
X215585329Y-53157391D01*
X215354797Y-53252645D01*
X215178265Y-53428869D01*
X215082609Y-53659235D01*
X215082391Y-53908671D01*
X215177645Y-54139203D01*
X215353869Y-54315735D01*
X215584235Y-54411391D01*
X215833671Y-54411609D01*
X216064203Y-54316355D01*
X216240735Y-54140131D01*
X216336391Y-53909765D01*
X216336609Y-53660329D01*
X216241355Y-53429797D01*
X216065131Y-53253265D01*
X215834765Y-53157609D01*
X215585329Y-53157391D01*
X211009378Y-53157391D01*
X210836912Y-53085777D01*
X211288417Y-52899219D01*
X211647957Y-52540307D01*
X211842778Y-52071125D01*
X211843221Y-51563103D01*
X211649219Y-51093583D01*
X211290307Y-50734043D01*
X210836912Y-50545777D01*
X211288417Y-50359219D01*
X211647957Y-50000307D01*
X211842778Y-49531125D01*
X211843104Y-49156891D01*
X229237829Y-49156891D01*
X229007297Y-49252145D01*
X228830765Y-49428369D01*
X228735109Y-49658735D01*
X228734891Y-49908171D01*
X228830145Y-50138703D01*
X229006369Y-50315235D01*
X229236735Y-50410891D01*
X229486171Y-50411109D01*
X229716703Y-50315855D01*
X229893235Y-50139631D01*
X229988891Y-49909265D01*
X229989104Y-49664891D01*
X244477829Y-49664891D01*
X244247297Y-49760145D01*
X244070765Y-49936369D01*
X243975109Y-50166735D01*
X243974891Y-50416171D01*
X244070145Y-50646703D01*
X244246369Y-50823235D01*
X244476735Y-50918891D01*
X244726171Y-50919109D01*
X244956703Y-50823855D01*
X245133235Y-50647631D01*
X245228891Y-50417265D01*
X245229109Y-50167829D01*
X245133855Y-49937297D01*
X244957631Y-49760765D01*
X244727265Y-49665109D01*
X244477829Y-49664891D01*
X229989104Y-49664891D01*
X229989109Y-49659829D01*
X229893855Y-49429297D01*
X229717631Y-49252765D01*
X229487265Y-49157109D01*
X229237829Y-49156891D01*
X211843104Y-49156891D01*
X211843221Y-49023103D01*
X211649219Y-48553583D01*
X211290307Y-48194043D01*
X210836912Y-48005777D01*
X211288417Y-47819219D01*
X211475071Y-47632891D01*
X221109829Y-47632891D01*
X220879297Y-47728145D01*
X220702765Y-47904369D01*
X220607109Y-48134735D01*
X220606891Y-48384171D01*
X220702145Y-48614703D01*
X220878369Y-48791235D01*
X221108735Y-48886891D01*
X221358171Y-48887109D01*
X221588703Y-48791855D01*
X221765235Y-48615631D01*
X221860891Y-48385265D01*
X221861109Y-48135829D01*
X221765855Y-47905297D01*
X221589631Y-47728765D01*
X221359265Y-47633109D01*
X221109829Y-47632891D01*
X248287829Y-47632891D01*
X248057297Y-47728145D01*
X247880765Y-47904369D01*
X247785109Y-48134735D01*
X247784891Y-48384171D01*
X247880145Y-48614703D01*
X248056369Y-48791235D01*
X248286735Y-48886891D01*
X248536171Y-48887109D01*
X248766703Y-48791855D01*
X248943235Y-48615631D01*
X249038891Y-48385265D01*
X249039109Y-48135829D01*
X248943855Y-47905297D01*
X248767631Y-47728765D01*
X248537265Y-47633109D01*
X248287829Y-47632891D01*
X221109829Y-47632891D01*
X221109829Y-47632891D01*
X211475071Y-47632891D01*
X211647957Y-47460307D01*
X211842778Y-46991125D01*
X211843221Y-46483103D01*
X211793551Y-46362891D01*
X242445829Y-46362891D01*
X242215297Y-46458145D01*
X242038765Y-46634369D01*
X241943109Y-46864735D01*
X241942891Y-47114171D01*
X242038145Y-47344703D01*
X242214369Y-47521235D01*
X242444735Y-47616891D01*
X242694171Y-47617109D01*
X242924703Y-47521855D01*
X243101235Y-47345631D01*
X243196891Y-47115265D01*
X243197109Y-46865829D01*
X243101855Y-46635297D01*
X242925631Y-46458765D01*
X242695265Y-46363109D01*
X242445829Y-46362891D01*
X211793551Y-46362891D01*
X211649219Y-46013583D01*
X211290307Y-45654043D01*
X210836912Y-45465777D01*
X211288417Y-45279219D01*
X211647957Y-44920307D01*
X211842778Y-44451125D01*
X211843221Y-43943103D01*
X211649219Y-43473583D01*
X211290307Y-43114043D01*
X211272891Y-43106811D01*
X221018335Y-43106811D01*
X220617937Y-43272252D01*
X220311329Y-43578326D01*
X220145189Y-43978434D01*
X220144811Y-44411665D01*
X220310252Y-44812063D01*
X220616326Y-45118671D01*
X221016434Y-45284811D01*
X221449665Y-45285189D01*
X221850063Y-45119748D01*
X221876966Y-45092891D01*
X229237829Y-45092891D01*
X229007297Y-45188145D01*
X228830765Y-45364369D01*
X228735109Y-45594735D01*
X228734891Y-45844171D01*
X228830145Y-46074703D01*
X229006369Y-46251235D01*
X229236735Y-46346891D01*
X229486171Y-46347109D01*
X229716703Y-46251855D01*
X229893235Y-46075631D01*
X229988891Y-45845265D01*
X229989109Y-45595829D01*
X229893855Y-45365297D01*
X229717631Y-45188765D01*
X229487265Y-45093109D01*
X229237829Y-45092891D01*
X221876966Y-45092891D01*
X222156671Y-44813674D01*
X222322811Y-44413566D01*
X222323189Y-43980335D01*
X222157748Y-43579937D01*
X222146722Y-43568891D01*
X235333829Y-43568891D01*
X235103297Y-43664145D01*
X234926765Y-43840369D01*
X234831109Y-44070735D01*
X234830891Y-44320171D01*
X234926145Y-44550703D01*
X235102369Y-44727235D01*
X235332735Y-44822891D01*
X235582171Y-44823109D01*
X235812703Y-44727855D01*
X235989235Y-44551631D01*
X236084891Y-44321265D01*
X236085109Y-44071829D01*
X235989855Y-43841297D01*
X235813631Y-43664765D01*
X235583265Y-43569109D01*
X235333829Y-43568891D01*
X222146722Y-43568891D01*
X221851674Y-43273329D01*
X221451566Y-43107189D01*
X221018335Y-43106811D01*
X211272891Y-43106811D01*
X210836912Y-42925777D01*
X211288417Y-42739219D01*
X211647957Y-42380307D01*
X211842778Y-41911125D01*
X211843221Y-41403103D01*
X211649219Y-40933583D01*
X211290307Y-40574043D01*
X211272891Y-40566811D01*
X221018335Y-40566811D01*
X220617937Y-40732252D01*
X220311329Y-41038326D01*
X220145189Y-41438434D01*
X220144811Y-41871665D01*
X220310252Y-42272063D01*
X220616326Y-42578671D01*
X221016434Y-42744811D01*
X221449665Y-42745189D01*
X221850063Y-42579748D01*
X222156671Y-42273674D01*
X222322811Y-41873566D01*
X222322883Y-41790891D01*
X225681829Y-41790891D01*
X225451297Y-41886145D01*
X225274765Y-42062369D01*
X225179109Y-42292735D01*
X225178891Y-42542171D01*
X225274145Y-42772703D01*
X225450369Y-42949235D01*
X225680735Y-43044891D01*
X225930171Y-43045109D01*
X226160703Y-42949855D01*
X226337235Y-42773631D01*
X226432891Y-42543265D01*
X226433109Y-42293829D01*
X226337855Y-42063297D01*
X226319482Y-42044891D01*
X234063829Y-42044891D01*
X233833297Y-42140145D01*
X233656765Y-42316369D01*
X233561109Y-42546735D01*
X233560891Y-42796171D01*
X233656145Y-43026703D01*
X233832369Y-43203235D01*
X234062735Y-43298891D01*
X234312171Y-43299109D01*
X234542703Y-43203855D01*
X234719235Y-43027631D01*
X234814891Y-42797265D01*
X234815109Y-42547829D01*
X234719855Y-42317297D01*
X234543631Y-42140765D01*
X234313265Y-42045109D01*
X234063829Y-42044891D01*
X226319482Y-42044891D01*
X226161631Y-41886765D01*
X225931265Y-41791109D01*
X225681829Y-41790891D01*
X222322883Y-41790891D01*
X222323189Y-41440335D01*
X222157748Y-41039937D01*
X221851674Y-40733329D01*
X221451566Y-40567189D01*
X221018335Y-40566811D01*
X211272891Y-40566811D01*
X210836912Y-40385777D01*
X211288417Y-40199219D01*
X211647957Y-39840307D01*
X211842778Y-39371125D01*
X211843221Y-38863103D01*
X211649219Y-38393583D01*
X211290307Y-38034043D01*
X211272891Y-38026811D01*
X221018335Y-38026811D01*
X220617937Y-38192252D01*
X220311329Y-38498326D01*
X220145189Y-38898434D01*
X220144811Y-39331665D01*
X220310252Y-39732063D01*
X220616326Y-40038671D01*
X221016434Y-40204811D01*
X221449665Y-40205189D01*
X221850063Y-40039748D01*
X221876966Y-40012891D01*
X232539829Y-40012891D01*
X232309297Y-40108145D01*
X232132765Y-40284369D01*
X232037109Y-40514735D01*
X232036891Y-40764171D01*
X232132145Y-40994703D01*
X232308369Y-41171235D01*
X232538735Y-41266891D01*
X232788171Y-41267109D01*
X233018703Y-41171855D01*
X233195235Y-40995631D01*
X233290891Y-40765265D01*
X233291104Y-40520891D01*
X239397829Y-40520891D01*
X239167297Y-40616145D01*
X238990765Y-40792369D01*
X238895109Y-41022735D01*
X238894891Y-41272171D01*
X238990145Y-41502703D01*
X239166369Y-41679235D01*
X239396735Y-41774891D01*
X239646171Y-41775109D01*
X239876703Y-41679855D01*
X240019916Y-41536891D01*
X249557829Y-41536891D01*
X249327297Y-41632145D01*
X249150765Y-41808369D01*
X249055109Y-42038735D01*
X249054891Y-42288171D01*
X249150145Y-42518703D01*
X249326369Y-42695235D01*
X249556735Y-42790891D01*
X249806171Y-42791109D01*
X250036703Y-42695855D01*
X250213235Y-42519631D01*
X250308891Y-42289265D01*
X250309109Y-42039829D01*
X250213855Y-41809297D01*
X250037631Y-41632765D01*
X249807265Y-41537109D01*
X249557829Y-41536891D01*
X240019916Y-41536891D01*
X240053235Y-41503631D01*
X240148891Y-41273265D01*
X240149109Y-41023829D01*
X240053855Y-40793297D01*
X239877631Y-40616765D01*
X239647265Y-40521109D01*
X239397829Y-40520891D01*
X233291104Y-40520891D01*
X233291109Y-40515829D01*
X233195855Y-40285297D01*
X233019631Y-40108765D01*
X232789265Y-40013109D01*
X232539829Y-40012891D01*
X221876966Y-40012891D01*
X222156671Y-39733674D01*
X222322811Y-39333566D01*
X222323189Y-38900335D01*
X222157748Y-38499937D01*
X221851674Y-38193329D01*
X221451566Y-38027189D01*
X221018335Y-38026811D01*
X211272891Y-38026811D01*
X210836912Y-37845777D01*
X211288417Y-37659219D01*
X211647957Y-37300307D01*
X211842778Y-36831125D01*
X211843221Y-36323103D01*
X211688600Y-35948891D01*
X225681829Y-35948891D01*
X225451297Y-36044145D01*
X225274765Y-36220369D01*
X225179109Y-36450735D01*
X225178891Y-36700171D01*
X225274145Y-36930703D01*
X225450369Y-37107235D01*
X225680735Y-37202891D01*
X225930171Y-37203109D01*
X226160703Y-37107855D01*
X226257916Y-37010811D01*
X245910335Y-37010811D01*
X245509937Y-37176252D01*
X245203329Y-37482326D01*
X245037189Y-37882434D01*
X245036811Y-38315665D01*
X245202252Y-38716063D01*
X245508326Y-39022671D01*
X245908434Y-39188811D01*
X246341665Y-39189189D01*
X246742063Y-39023748D01*
X247048671Y-38717674D01*
X247214811Y-38317566D01*
X247215189Y-37884335D01*
X247049748Y-37483937D01*
X246743674Y-37177329D01*
X246343566Y-37011189D01*
X245910335Y-37010811D01*
X248450335Y-37010811D01*
X248049937Y-37176252D01*
X247743329Y-37482326D01*
X247577189Y-37882434D01*
X247576811Y-38315665D01*
X247742252Y-38716063D01*
X248048326Y-39022671D01*
X248448434Y-39188811D01*
X248881665Y-39189189D01*
X249282063Y-39023748D01*
X249588671Y-38717674D01*
X249754811Y-38317566D01*
X249755189Y-37884335D01*
X249589748Y-37483937D01*
X249283674Y-37177329D01*
X248883566Y-37011189D01*
X248450335Y-37010811D01*
X245910335Y-37010811D01*
X245910335Y-37010811D01*
X226257916Y-37010811D01*
X226337235Y-36931631D01*
X226432891Y-36701265D01*
X226433109Y-36451829D01*
X226337855Y-36221297D01*
X226161631Y-36044765D01*
X225931265Y-35949109D01*
X225681829Y-35948891D01*
X211688600Y-35948891D01*
X211649219Y-35853583D01*
X211290307Y-35494043D01*
X210836912Y-35305777D01*
X211288417Y-35119219D01*
X211647957Y-34760307D01*
X211842778Y-34291125D01*
X211843221Y-33783103D01*
X211649219Y-33313583D01*
X211290307Y-32954043D01*
X210836912Y-32765777D01*
X211288417Y-32579219D01*
X211647957Y-32220307D01*
X211842778Y-31751125D01*
X211843064Y-31422811D01*
X221018335Y-31422811D01*
X220617937Y-31588252D01*
X220311329Y-31894326D01*
X220145189Y-32294434D01*
X220144811Y-32727665D01*
X220310252Y-33128063D01*
X220616326Y-33434671D01*
X221016434Y-33600811D01*
X221449665Y-33601189D01*
X221850063Y-33435748D01*
X222156671Y-33129674D01*
X222322811Y-32729566D01*
X222323189Y-32296335D01*
X222157748Y-31895937D01*
X221851674Y-31589329D01*
X221451566Y-31423189D01*
X221018335Y-31422811D01*
X229146335Y-31422811D01*
X228745937Y-31588252D01*
X228439329Y-31894326D01*
X228273189Y-32294434D01*
X228272811Y-32727665D01*
X228438252Y-33128063D01*
X228744326Y-33434671D01*
X229144434Y-33600811D01*
X229577665Y-33601189D01*
X229978063Y-33435748D01*
X230284671Y-33129674D01*
X230450811Y-32729566D01*
X230451189Y-32296335D01*
X230285748Y-31895937D01*
X229979674Y-31589329D01*
X229579566Y-31423189D01*
X229146335Y-31422811D01*
X221018335Y-31422811D01*
X221018335Y-31422811D01*
X211843064Y-31422811D01*
X211843221Y-31243103D01*
X211649219Y-30773583D01*
X211290307Y-30414043D01*
X210836912Y-30225777D01*
X211288417Y-30039219D01*
X211647957Y-29680307D01*
X211842778Y-29211125D01*
X211843064Y-28882811D01*
X221018335Y-28882811D01*
X220617937Y-29048252D01*
X220311329Y-29354326D01*
X220145189Y-29754434D01*
X220144811Y-30187665D01*
X220310252Y-30588063D01*
X220616326Y-30894671D01*
X221016434Y-31060811D01*
X221449665Y-31061189D01*
X221850063Y-30895748D01*
X222156671Y-30589674D01*
X222322811Y-30189566D01*
X222323189Y-29756335D01*
X222157748Y-29355937D01*
X221851674Y-29049329D01*
X221451566Y-28883189D01*
X221018335Y-28882811D01*
X229146335Y-28882811D01*
X228745937Y-29048252D01*
X228439329Y-29354326D01*
X228273189Y-29754434D01*
X228272811Y-30187665D01*
X228438252Y-30588063D01*
X228744326Y-30894671D01*
X229144434Y-31060811D01*
X229577665Y-31061189D01*
X229978063Y-30895748D01*
X230284671Y-30589674D01*
X230379670Y-30360891D01*
X235841829Y-30360891D01*
X235611297Y-30456145D01*
X235434765Y-30632369D01*
X235339109Y-30862735D01*
X235338891Y-31112171D01*
X235434145Y-31342703D01*
X235610369Y-31519235D01*
X235840735Y-31614891D01*
X236090171Y-31615109D01*
X236320703Y-31519855D01*
X236417916Y-31422811D01*
X240830335Y-31422811D01*
X240429937Y-31588252D01*
X240123329Y-31894326D01*
X239957189Y-32294434D01*
X239956811Y-32727665D01*
X240122252Y-33128063D01*
X240428326Y-33434671D01*
X240828434Y-33600811D01*
X241261665Y-33601189D01*
X241662063Y-33435748D01*
X241968671Y-33129674D01*
X242134811Y-32729566D01*
X242135189Y-32296335D01*
X241969748Y-31895937D01*
X241663674Y-31589329D01*
X241263566Y-31423189D01*
X240830335Y-31422811D01*
X236417916Y-31422811D01*
X236497235Y-31343631D01*
X236592891Y-31113265D01*
X236593109Y-30863829D01*
X236497855Y-30633297D01*
X236321631Y-30456765D01*
X236091265Y-30361109D01*
X235841829Y-30360891D01*
X230379670Y-30360891D01*
X230450811Y-30189566D01*
X230451189Y-29756335D01*
X230285748Y-29355937D01*
X229979674Y-29049329D01*
X229579566Y-28883189D01*
X229146335Y-28882811D01*
X240830335Y-28882811D01*
X240429937Y-29048252D01*
X240123329Y-29354326D01*
X239957189Y-29754434D01*
X239956811Y-30187665D01*
X240122252Y-30588063D01*
X240428326Y-30894671D01*
X240828434Y-31060811D01*
X241261665Y-31061189D01*
X241662063Y-30895748D01*
X241968671Y-30589674D01*
X242063670Y-30360891D01*
X246509829Y-30360891D01*
X246279297Y-30456145D01*
X246102765Y-30632369D01*
X246007109Y-30862735D01*
X246006891Y-31112171D01*
X246102145Y-31342703D01*
X246278369Y-31519235D01*
X246508735Y-31614891D01*
X246758171Y-31615109D01*
X246988703Y-31519855D01*
X247085916Y-31422811D01*
X250990335Y-31422811D01*
X250589937Y-31588252D01*
X250283329Y-31894326D01*
X250117189Y-32294434D01*
X250116811Y-32727665D01*
X250282252Y-33128063D01*
X250588326Y-33434671D01*
X250988434Y-33600811D01*
X251421665Y-33601189D01*
X251822063Y-33435748D01*
X252128671Y-33129674D01*
X252294811Y-32729566D01*
X252295189Y-32296335D01*
X252129748Y-31895937D01*
X251823674Y-31589329D01*
X251423566Y-31423189D01*
X250990335Y-31422811D01*
X247085916Y-31422811D01*
X247165235Y-31343631D01*
X247260891Y-31113265D01*
X247261109Y-30863829D01*
X247165855Y-30633297D01*
X246989631Y-30456765D01*
X246759265Y-30361109D01*
X246509829Y-30360891D01*
X242063670Y-30360891D01*
X242134811Y-30189566D01*
X242135189Y-29756335D01*
X241969748Y-29355937D01*
X241663674Y-29049329D01*
X241263566Y-28883189D01*
X240830335Y-28882811D01*
X250990335Y-28882811D01*
X250589937Y-29048252D01*
X250283329Y-29354326D01*
X250117189Y-29754434D01*
X250116811Y-30187665D01*
X250282252Y-30588063D01*
X250588326Y-30894671D01*
X250988434Y-31060811D01*
X251421665Y-31061189D01*
X251822063Y-30895748D01*
X252128671Y-30589674D01*
X252294811Y-30189566D01*
X252295189Y-29756335D01*
X252129748Y-29355937D01*
X251823674Y-29049329D01*
X251423566Y-28883189D01*
X250990335Y-28882811D01*
X240830335Y-28882811D01*
X240830335Y-28882811D01*
X229146335Y-28882811D01*
X229146335Y-28882811D01*
X221018335Y-28882811D01*
X221018335Y-28882811D01*
X211843064Y-28882811D01*
X211843221Y-28703103D01*
X211649219Y-28233583D01*
X211290307Y-27874043D01*
X210821125Y-27679222D01*
X210313103Y-27678779D01*
X195613848Y-27678779D01*
X196048417Y-27499219D01*
X196407957Y-27140307D01*
X196602778Y-26671125D01*
X196603221Y-26163103D01*
X196409219Y-25693583D01*
X196050307Y-25334043D01*
X195788666Y-25225400D01*
X214098675Y-25225400D01*
X213643052Y-25316029D01*
X213256794Y-25574119D01*
X212998704Y-25960377D01*
X212908075Y-26416000D01*
X212998704Y-26871623D01*
X213256794Y-27257881D01*
X213643052Y-27515971D01*
X214098675Y-27606600D01*
X214145325Y-27606600D01*
X214600948Y-27515971D01*
X214987206Y-27257881D01*
X215245296Y-26871623D01*
X215335925Y-26416000D01*
X215245296Y-25960377D01*
X214987206Y-25574119D01*
X214600948Y-25316029D01*
X214145325Y-25225400D01*
X216638675Y-25225400D01*
X216183052Y-25316029D01*
X215796794Y-25574119D01*
X215538704Y-25960377D01*
X215448075Y-26416000D01*
X215538704Y-26871623D01*
X215796794Y-27257881D01*
X216183052Y-27515971D01*
X216638675Y-27606600D01*
X216685325Y-27606600D01*
X217140948Y-27515971D01*
X217527206Y-27257881D01*
X217785296Y-26871623D01*
X217875925Y-26416000D01*
X217861367Y-26342811D01*
X221018335Y-26342811D01*
X220617937Y-26508252D01*
X220311329Y-26814326D01*
X220145189Y-27214434D01*
X220144811Y-27647665D01*
X220310252Y-28048063D01*
X220616326Y-28354671D01*
X221016434Y-28520811D01*
X221449665Y-28521189D01*
X221850063Y-28355748D01*
X222156671Y-28049674D01*
X222322811Y-27649566D01*
X222323189Y-27216335D01*
X222157748Y-26815937D01*
X221851674Y-26509329D01*
X221451566Y-26343189D01*
X221018335Y-26342811D01*
X229146335Y-26342811D01*
X228745937Y-26508252D01*
X228439329Y-26814326D01*
X228273189Y-27214434D01*
X228272811Y-27647665D01*
X228438252Y-28048063D01*
X228744326Y-28354671D01*
X229144434Y-28520811D01*
X229577665Y-28521189D01*
X229978063Y-28355748D01*
X230284671Y-28049674D01*
X230450811Y-27649566D01*
X230451149Y-27262091D01*
X236299029Y-27262091D01*
X236068497Y-27357345D01*
X235891965Y-27533569D01*
X235796309Y-27763935D01*
X235796091Y-28013371D01*
X235891345Y-28243903D01*
X236067569Y-28420435D01*
X236297935Y-28516091D01*
X236547371Y-28516309D01*
X236777903Y-28421055D01*
X236954435Y-28244831D01*
X237050091Y-28014465D01*
X237050309Y-27765029D01*
X236955055Y-27534497D01*
X236778831Y-27357965D01*
X236670281Y-27312891D01*
X247017829Y-27312891D01*
X246787297Y-27408145D01*
X246610765Y-27584369D01*
X246515109Y-27814735D01*
X246514891Y-28064171D01*
X246610145Y-28294703D01*
X246786369Y-28471235D01*
X247016735Y-28566891D01*
X247266171Y-28567109D01*
X247496703Y-28471855D01*
X247673235Y-28295631D01*
X247768891Y-28065265D01*
X247769109Y-27815829D01*
X247673855Y-27585297D01*
X247497631Y-27408765D01*
X247267265Y-27313109D01*
X247017829Y-27312891D01*
X236670281Y-27312891D01*
X236548465Y-27262309D01*
X236299029Y-27262091D01*
X230451149Y-27262091D01*
X230451189Y-27216335D01*
X230285748Y-26815937D01*
X229979674Y-26509329D01*
X229579566Y-26343189D01*
X229146335Y-26342811D01*
X221018335Y-26342811D01*
X221018335Y-26342811D01*
X217861367Y-26342811D01*
X217785296Y-25960377D01*
X217527206Y-25574119D01*
X217140948Y-25316029D01*
X216685325Y-25225400D01*
X216638675Y-25225400D01*
X214145325Y-25225400D01*
X214145325Y-25225400D01*
X214098675Y-25225400D01*
X195788666Y-25225400D01*
X195581125Y-25139222D01*
X195073103Y-25138779D01*
X193328400Y-25138779D01*
X193378557Y-21978891D01*
X204599829Y-21978891D01*
X204369297Y-22074145D01*
X204192765Y-22250369D01*
X204097109Y-22480735D01*
X204096891Y-22730171D01*
X204192145Y-22960703D01*
X204368369Y-23137235D01*
X204598735Y-23232891D01*
X204848171Y-23233109D01*
X205078703Y-23137855D01*
X205255235Y-22961631D01*
X205350891Y-22731265D01*
X205351109Y-22481829D01*
X205255855Y-22251297D01*
X205079631Y-22074765D01*
X204849265Y-21979109D01*
X204599829Y-21978891D01*
X205869829Y-21978891D01*
X205639297Y-22074145D01*
X205462765Y-22250369D01*
X205367109Y-22480735D01*
X205366891Y-22730171D01*
X205462145Y-22960703D01*
X205638369Y-23137235D01*
X205868735Y-23232891D01*
X206118171Y-23233109D01*
X206348703Y-23137855D01*
X206525235Y-22961631D01*
X206620891Y-22731265D01*
X206621109Y-22481829D01*
X206525855Y-22251297D01*
X206349631Y-22074765D01*
X206119265Y-21979109D01*
X205869829Y-21978891D01*
X207139829Y-21978891D01*
X206909297Y-22074145D01*
X206732765Y-22250369D01*
X206637109Y-22480735D01*
X206636891Y-22730171D01*
X206732145Y-22960703D01*
X206908369Y-23137235D01*
X207138735Y-23232891D01*
X207388171Y-23233109D01*
X207618703Y-23137855D01*
X207795235Y-22961631D01*
X207890891Y-22731265D01*
X207891109Y-22481829D01*
X207795855Y-22251297D01*
X207619631Y-22074765D01*
X207389265Y-21979109D01*
X207139829Y-21978891D01*
X208663829Y-21978891D01*
X208433297Y-22074145D01*
X208256765Y-22250369D01*
X208161109Y-22480735D01*
X208160891Y-22730171D01*
X208256145Y-22960703D01*
X208432369Y-23137235D01*
X208662735Y-23232891D01*
X208912171Y-23233109D01*
X209142703Y-23137855D01*
X209319235Y-22961631D01*
X209414891Y-22731265D01*
X209415006Y-22598779D01*
X210313103Y-22598779D01*
X209843583Y-22792781D01*
X209484043Y-23151693D01*
X209289222Y-23620875D01*
X209288779Y-24128897D01*
X209482781Y-24598417D01*
X209841693Y-24957957D01*
X210310875Y-25152778D01*
X210818897Y-25153221D01*
X211288417Y-24959219D01*
X211647957Y-24600307D01*
X211842778Y-24131125D01*
X211843221Y-23623103D01*
X211649219Y-23153583D01*
X211290307Y-22794043D01*
X211028666Y-22685400D01*
X214098675Y-22685400D01*
X213643052Y-22776029D01*
X213256794Y-23034119D01*
X212998704Y-23420377D01*
X212908075Y-23876000D01*
X212998704Y-24331623D01*
X213256794Y-24717881D01*
X213643052Y-24975971D01*
X214098675Y-25066600D01*
X214145325Y-25066600D01*
X214600948Y-24975971D01*
X214987206Y-24717881D01*
X215245296Y-24331623D01*
X215335925Y-23876000D01*
X215245296Y-23420377D01*
X214987206Y-23034119D01*
X214600948Y-22776029D01*
X214145325Y-22685400D01*
X214098675Y-22685400D01*
X211028666Y-22685400D01*
X211013238Y-22678994D01*
X215798400Y-22678994D01*
X215673716Y-22703185D01*
X215564130Y-22775171D01*
X215490775Y-22883845D01*
X215464994Y-23012400D01*
X215464994Y-24739600D01*
X215489185Y-24864284D01*
X215561171Y-24973870D01*
X215669845Y-25047225D01*
X215798400Y-25073006D01*
X217525600Y-25073006D01*
X217650284Y-25048815D01*
X217759870Y-24976829D01*
X217833225Y-24868155D01*
X217859006Y-24739600D01*
X217859006Y-23012400D01*
X217834815Y-22887716D01*
X217762829Y-22778130D01*
X217654155Y-22704775D01*
X217525600Y-22678994D01*
X215798400Y-22678994D01*
X211013238Y-22678994D01*
X210821125Y-22599222D01*
X210313103Y-22598779D01*
X209415006Y-22598779D01*
X209415109Y-22481829D01*
X209319855Y-22251297D01*
X209143631Y-22074765D01*
X209008356Y-22018594D01*
X237490000Y-22018594D01*
X237365316Y-22042785D01*
X237255730Y-22114771D01*
X237182375Y-22223445D01*
X237156594Y-22352000D01*
X237156594Y-24384000D01*
X237180785Y-24508684D01*
X237252771Y-24618270D01*
X237361445Y-24691625D01*
X237490000Y-24717406D01*
X239522000Y-24717406D01*
X239646684Y-24693215D01*
X239756270Y-24621229D01*
X239829625Y-24512555D01*
X239855406Y-24384000D01*
X239855406Y-22352000D01*
X239831215Y-22227316D01*
X239759229Y-22117730D01*
X239650555Y-22044375D01*
X239522000Y-22018594D01*
X248158000Y-22018594D01*
X248033316Y-22042785D01*
X247923730Y-22114771D01*
X247850375Y-22223445D01*
X247824594Y-22352000D01*
X247824594Y-24384000D01*
X247848785Y-24508684D01*
X247920771Y-24618270D01*
X248029445Y-24691625D01*
X248158000Y-24717406D01*
X250190000Y-24717406D01*
X250314684Y-24693215D01*
X250424270Y-24621229D01*
X250497625Y-24512555D01*
X250523406Y-24384000D01*
X250523406Y-22352000D01*
X250499215Y-22227316D01*
X250427229Y-22117730D01*
X250318555Y-22044375D01*
X250190000Y-22018594D01*
X248158000Y-22018594D01*
X239522000Y-22018594D01*
X239522000Y-22018594D01*
X237490000Y-22018594D01*
X209008356Y-22018594D01*
X208913265Y-21979109D01*
X208663829Y-21978891D01*
X207139829Y-21978891D01*
X207139829Y-21978891D01*
X205869829Y-21978891D01*
X205869829Y-21978891D01*
X204599829Y-21978891D01*
X204599829Y-21978891D01*
X193378557Y-21978891D01*
X193415032Y-19681000D01*
X262259000Y-19681000D01*
X262259000Y-99191000D01*
X119249000Y-99191000D01*
X119249000Y-93922771D01*
X130857202Y-93922771D01*
X130369297Y-94124369D01*
X129995681Y-94497334D01*
X129793231Y-94984885D01*
X129792771Y-95512798D01*
X129994369Y-96000703D01*
X130367334Y-96374319D01*
X130854885Y-96576769D01*
X131382798Y-96577229D01*
X131870703Y-96375631D01*
X132244319Y-96002666D01*
X132446769Y-95515115D01*
X132447229Y-94987202D01*
X132245631Y-94499297D01*
X131872666Y-94125681D01*
X131385115Y-93923231D01*
X130857202Y-93922771D01*
X119249000Y-93922771D01*
X119249000Y-93916594D01*
X137120000Y-93916594D01*
X136995316Y-93940785D01*
X136885730Y-94012771D01*
X136812375Y-94121445D01*
X136786594Y-94250000D01*
X136786594Y-96250000D01*
X136810785Y-96374684D01*
X136882771Y-96484270D01*
X136991445Y-96557625D01*
X137120000Y-96583406D01*
X139120000Y-96583406D01*
X139244684Y-96559215D01*
X139354270Y-96487229D01*
X139427625Y-96378555D01*
X139453406Y-96250000D01*
X139453406Y-94250000D01*
X139429215Y-94125316D01*
X139357229Y-94015730D01*
X139248555Y-93942375D01*
X139150802Y-93922771D01*
X148129202Y-93922771D01*
X147641297Y-94124369D01*
X147267681Y-94497334D01*
X147065231Y-94984885D01*
X147064771Y-95512798D01*
X147266369Y-96000703D01*
X147639334Y-96374319D01*
X148126885Y-96576769D01*
X148654798Y-96577229D01*
X149142703Y-96375631D01*
X149516319Y-96002666D01*
X149718769Y-95515115D01*
X149719229Y-94987202D01*
X149517631Y-94499297D01*
X149144666Y-94125681D01*
X148657115Y-93923231D01*
X148129202Y-93922771D01*
X139150802Y-93922771D01*
X139120000Y-93916594D01*
X171664000Y-93916594D01*
X171539316Y-93940785D01*
X171429730Y-94012771D01*
X171356375Y-94121445D01*
X171330594Y-94250000D01*
X171330594Y-96250000D01*
X171354785Y-96374684D01*
X171426771Y-96484270D01*
X171535445Y-96557625D01*
X171664000Y-96583406D01*
X173664000Y-96583406D01*
X173788684Y-96559215D01*
X173898270Y-96487229D01*
X173971625Y-96378555D01*
X173997406Y-96250000D01*
X173997406Y-95902718D01*
X228530601Y-95902718D01*
X227930188Y-96150803D01*
X227470418Y-96609772D01*
X227221284Y-97209751D01*
X227220718Y-97859399D01*
X227468803Y-98459812D01*
X227927772Y-98919582D01*
X228527751Y-99168716D01*
X229177399Y-99169282D01*
X229777812Y-98921197D01*
X230237582Y-98462228D01*
X230486716Y-97862249D01*
X230487282Y-97212601D01*
X230239197Y-96612188D01*
X229780228Y-96152418D01*
X229180249Y-95903284D01*
X228530601Y-95902718D01*
X233610601Y-95902718D01*
X233010188Y-96150803D01*
X232550418Y-96609772D01*
X232301284Y-97209751D01*
X232300718Y-97859399D01*
X232548803Y-98459812D01*
X233007772Y-98919582D01*
X233607751Y-99168716D01*
X234257399Y-99169282D01*
X234857812Y-98921197D01*
X235317582Y-98462228D01*
X235566716Y-97862249D01*
X235567282Y-97212601D01*
X235319197Y-96612188D01*
X234860228Y-96152418D01*
X234260249Y-95903284D01*
X233610601Y-95902718D01*
X228530601Y-95902718D01*
X228530601Y-95902718D01*
X173997406Y-95902718D01*
X173997406Y-94250000D01*
X173973215Y-94125316D01*
X173901229Y-94015730D01*
X173792555Y-93942375D01*
X173664000Y-93916594D01*
X171664000Y-93916594D01*
X139120000Y-93916594D01*
X139120000Y-93916594D01*
X137120000Y-93916594D01*
X119249000Y-93916594D01*
X119249000Y-89034891D01*
X139067829Y-89034891D01*
X138837297Y-89130145D01*
X138660765Y-89306369D01*
X138565109Y-89536735D01*
X138564891Y-89786171D01*
X138660145Y-90016703D01*
X138836369Y-90193235D01*
X139066735Y-90288891D01*
X139316171Y-90289109D01*
X139546703Y-90193855D01*
X139723235Y-90017631D01*
X139818891Y-89787265D01*
X139819109Y-89537829D01*
X139723855Y-89307297D01*
X139547631Y-89130765D01*
X139317265Y-89035109D01*
X139067829Y-89034891D01*
X119249000Y-89034891D01*
X119249000Y-82430891D01*
X134241829Y-82430891D01*
X134011297Y-82526145D01*
X133834765Y-82702369D01*
X133739109Y-82932735D01*
X133738891Y-83182171D01*
X133834145Y-83412703D01*
X134010369Y-83589235D01*
X134240735Y-83684891D01*
X134490171Y-83685109D01*
X134720703Y-83589855D01*
X134897235Y-83413631D01*
X134992891Y-83183265D01*
X134993109Y-82933829D01*
X134897855Y-82703297D01*
X134721631Y-82526765D01*
X134491265Y-82431109D01*
X134241829Y-82430891D01*
X119249000Y-82430891D01*
X119249000Y-72524891D01*
X129669829Y-72524891D01*
X129439297Y-72620145D01*
X129262765Y-72796369D01*
X129167109Y-73026735D01*
X129166891Y-73276171D01*
X129262145Y-73506703D01*
X129438369Y-73683235D01*
X129668735Y-73778891D01*
X129918171Y-73779109D01*
X130148703Y-73683855D01*
X130325235Y-73507631D01*
X130420891Y-73277265D01*
X130421109Y-73027829D01*
X130325855Y-72797297D01*
X130149631Y-72620765D01*
X129919265Y-72525109D01*
X129669829Y-72524891D01*
X119249000Y-72524891D01*
X119249000Y-71501000D01*
X143764000Y-71501000D01*
X143715399Y-71510667D01*
X143674197Y-71538197D01*
X143646667Y-71579399D01*
X143637000Y-71628000D01*
X143637000Y-75565000D01*
X140208000Y-75565000D01*
X140159399Y-75574667D01*
X140118197Y-75602197D01*
X140090667Y-75643399D01*
X140081000Y-75692000D01*
X140081000Y-86360000D01*
X140090667Y-86408601D01*
X140118197Y-86449803D01*
X140159399Y-86477333D01*
X140208000Y-86487000D01*
X143637000Y-86487000D01*
X143637000Y-90424000D01*
X143646667Y-90472601D01*
X143674197Y-90513803D01*
X143715399Y-90541333D01*
X143764000Y-90551000D01*
X151892000Y-90551000D01*
X151940601Y-90541333D01*
X151981803Y-90513803D01*
X152009333Y-90472601D01*
X152019000Y-90424000D01*
X152019000Y-85280123D01*
X181905458Y-85280123D01*
X181509263Y-85443828D01*
X181205873Y-85746689D01*
X181041477Y-86142598D01*
X181041103Y-86571282D01*
X181204808Y-86967477D01*
X181507669Y-87270867D01*
X181903578Y-87435263D01*
X182332262Y-87435637D01*
X182728457Y-87271932D01*
X183031847Y-86969071D01*
X183196243Y-86573162D01*
X183196617Y-86144478D01*
X183032912Y-85748283D01*
X182730051Y-85444893D01*
X182334142Y-85280497D01*
X181905458Y-85280123D01*
X184445458Y-85280123D01*
X184049263Y-85443828D01*
X183745873Y-85746689D01*
X183581477Y-86142598D01*
X183581103Y-86571282D01*
X183744808Y-86967477D01*
X184047669Y-87270867D01*
X184443578Y-87435263D01*
X184872262Y-87435637D01*
X185268457Y-87271932D01*
X185571847Y-86969071D01*
X185674910Y-86720867D01*
X185776808Y-86967477D01*
X186079669Y-87270867D01*
X186475578Y-87435263D01*
X186904262Y-87435637D01*
X187300457Y-87271932D01*
X187603847Y-86969071D01*
X187768243Y-86573162D01*
X187768311Y-86494891D01*
X195709829Y-86494891D01*
X195479297Y-86590145D01*
X195302765Y-86766369D01*
X195207109Y-86996735D01*
X195206891Y-87246171D01*
X195302145Y-87476703D01*
X195478369Y-87653235D01*
X195708735Y-87748891D01*
X195958171Y-87749109D01*
X196188703Y-87653855D01*
X196365235Y-87477631D01*
X196460891Y-87247265D01*
X196461109Y-86997829D01*
X196365855Y-86767297D01*
X196189631Y-86590765D01*
X195959265Y-86495109D01*
X195709829Y-86494891D01*
X187768311Y-86494891D01*
X187768617Y-86144478D01*
X187604912Y-85748283D01*
X187302051Y-85444893D01*
X186906142Y-85280497D01*
X186477458Y-85280123D01*
X186081263Y-85443828D01*
X185777873Y-85746689D01*
X185674810Y-85994893D01*
X185572912Y-85748283D01*
X185270051Y-85444893D01*
X184874142Y-85280497D01*
X184445458Y-85280123D01*
X181905458Y-85280123D01*
X181905458Y-85280123D01*
X152019000Y-85280123D01*
X152019000Y-82328594D01*
X166990000Y-82328594D01*
X166865316Y-82352785D01*
X166755730Y-82424771D01*
X166682375Y-82533445D01*
X166656594Y-82662000D01*
X166656594Y-83962000D01*
X166680785Y-84086684D01*
X166752771Y-84196270D01*
X166861445Y-84269625D01*
X166990000Y-84295406D01*
X168290000Y-84295406D01*
X168414684Y-84271215D01*
X168524270Y-84199229D01*
X168597625Y-84090555D01*
X168623406Y-83962000D01*
X168623406Y-83202718D01*
X226370601Y-83202718D01*
X225770188Y-83450803D01*
X225310418Y-83909772D01*
X225061284Y-84509751D01*
X225060718Y-85159399D01*
X225308803Y-85759812D01*
X225767772Y-86219582D01*
X226367751Y-86468716D01*
X227017399Y-86469282D01*
X227617812Y-86221197D01*
X228077582Y-85762228D01*
X228326716Y-85162249D01*
X228327282Y-84512601D01*
X228079197Y-83912188D01*
X227620228Y-83452418D01*
X227020249Y-83203284D01*
X226370601Y-83202718D01*
X231070601Y-83202718D01*
X230470188Y-83450803D01*
X230010418Y-83909772D01*
X229761284Y-84509751D01*
X229760718Y-85159399D01*
X230008803Y-85759812D01*
X230467772Y-86219582D01*
X231067751Y-86468716D01*
X231717399Y-86469282D01*
X232317812Y-86221197D01*
X232777582Y-85762228D01*
X233026716Y-85162249D01*
X233027282Y-84512601D01*
X232779197Y-83912188D01*
X232320228Y-83452418D01*
X231720249Y-83203284D01*
X231070601Y-83202718D01*
X235770601Y-83202718D01*
X235170188Y-83450803D01*
X234710418Y-83909772D01*
X234461284Y-84509751D01*
X234460718Y-85159399D01*
X234708803Y-85759812D01*
X235167772Y-86219582D01*
X235767751Y-86468716D01*
X236417399Y-86469282D01*
X237017812Y-86221197D01*
X237477582Y-85762228D01*
X237726716Y-85162249D01*
X237727282Y-84512601D01*
X237479197Y-83912188D01*
X237020228Y-83452418D01*
X236420249Y-83203284D01*
X235770601Y-83202718D01*
X231070601Y-83202718D01*
X231070601Y-83202718D01*
X226370601Y-83202718D01*
X226370601Y-83202718D01*
X168623406Y-83202718D01*
X168623406Y-82662000D01*
X168599215Y-82537316D01*
X168527229Y-82427730D01*
X168418555Y-82354375D01*
X168290000Y-82328594D01*
X166990000Y-82328594D01*
X152019000Y-82328594D01*
X152019000Y-78366891D01*
X186565829Y-78366891D01*
X186335297Y-78462145D01*
X186158765Y-78638369D01*
X186063109Y-78868735D01*
X186062891Y-79118171D01*
X186158145Y-79348703D01*
X186334369Y-79525235D01*
X186564735Y-79620891D01*
X186814171Y-79621109D01*
X187044703Y-79525855D01*
X187221235Y-79349631D01*
X187316891Y-79119265D01*
X187317109Y-78869829D01*
X187221855Y-78639297D01*
X187045631Y-78462765D01*
X186815265Y-78367109D01*
X186565829Y-78366891D01*
X152019000Y-78366891D01*
X152019000Y-75826891D01*
X175643829Y-75826891D01*
X175413297Y-75922145D01*
X175236765Y-76098369D01*
X175141109Y-76328735D01*
X175140891Y-76578171D01*
X175236145Y-76808703D01*
X175412369Y-76985235D01*
X175642735Y-77080891D01*
X175892171Y-77081109D01*
X176122703Y-76985855D01*
X176265916Y-76842891D01*
X190375829Y-76842891D01*
X190145297Y-76938145D01*
X189968765Y-77114369D01*
X189873109Y-77344735D01*
X189872891Y-77594171D01*
X189968145Y-77824703D01*
X190144369Y-78001235D01*
X190374735Y-78096891D01*
X190624171Y-78097109D01*
X190854703Y-78001855D01*
X191031235Y-77825631D01*
X191126891Y-77595265D01*
X191127109Y-77345829D01*
X191031855Y-77115297D01*
X190855631Y-76938765D01*
X190625265Y-76843109D01*
X190375829Y-76842891D01*
X176265916Y-76842891D01*
X176299235Y-76809631D01*
X176327901Y-76740594D01*
X203566000Y-76740594D01*
X203441316Y-76764785D01*
X203331730Y-76836771D01*
X203258375Y-76945445D01*
X203232594Y-77074000D01*
X203232594Y-78374000D01*
X203256785Y-78498684D01*
X203328771Y-78608270D01*
X203437445Y-78681625D01*
X203566000Y-78707406D01*
X204866000Y-78707406D01*
X204990684Y-78683215D01*
X205100270Y-78611229D01*
X205173625Y-78502555D01*
X205199406Y-78374000D01*
X205199406Y-78264594D01*
X216012000Y-78264594D01*
X215887316Y-78288785D01*
X215777730Y-78360771D01*
X215704375Y-78469445D01*
X215678594Y-78598000D01*
X215678594Y-79898000D01*
X215702785Y-80022684D01*
X215774771Y-80132270D01*
X215883445Y-80205625D01*
X216012000Y-80231406D01*
X217312000Y-80231406D01*
X217436684Y-80207215D01*
X217546270Y-80135229D01*
X217619625Y-80026555D01*
X217645406Y-79898000D01*
X217645406Y-79876921D01*
X223520000Y-79876921D01*
X223088716Y-79962709D01*
X222723091Y-80207012D01*
X222478788Y-80572637D01*
X222393000Y-81003921D01*
X222393000Y-81048079D01*
X222478788Y-81479363D01*
X222723091Y-81844988D01*
X223088716Y-82089291D01*
X223520000Y-82175079D01*
X223550561Y-82169000D01*
X240792000Y-82169000D01*
X240743399Y-82178667D01*
X240702197Y-82206197D01*
X240674667Y-82247399D01*
X240665000Y-82296000D01*
X240665000Y-85217000D01*
X238760000Y-85217000D01*
X238711399Y-85226667D01*
X238670197Y-85254197D01*
X238642667Y-85295399D01*
X238633000Y-85344000D01*
X238633000Y-92964000D01*
X238642667Y-93012601D01*
X238670197Y-93053803D01*
X238711399Y-93081333D01*
X238760000Y-93091000D01*
X246557185Y-93091000D01*
X246556813Y-93517289D01*
X246720431Y-93913275D01*
X247023132Y-94216504D01*
X247418832Y-94380813D01*
X247847289Y-94381187D01*
X248243275Y-94217569D01*
X248546504Y-93914868D01*
X248710813Y-93519168D01*
X248711126Y-93160771D01*
X249871202Y-93160771D01*
X249383297Y-93362369D01*
X249009681Y-93735334D01*
X248807231Y-94222885D01*
X248806771Y-94750798D01*
X249008369Y-95238703D01*
X249381334Y-95612319D01*
X249868885Y-95814769D01*
X250396798Y-95815229D01*
X250884703Y-95613631D01*
X251258319Y-95240666D01*
X251460769Y-94753115D01*
X251461229Y-94225202D01*
X251259631Y-93737297D01*
X250886666Y-93363681D01*
X250399115Y-93161231D01*
X249871202Y-93160771D01*
X248711126Y-93160771D01*
X248711187Y-93091000D01*
X254508000Y-93091000D01*
X254556601Y-93081333D01*
X254597803Y-93053803D01*
X254625333Y-93012601D01*
X254635000Y-92964000D01*
X254635000Y-85344000D01*
X254625333Y-85295399D01*
X254597803Y-85254197D01*
X254556601Y-85226667D01*
X254508000Y-85217000D01*
X252603000Y-85217000D01*
X252603000Y-82296000D01*
X252593333Y-82247399D01*
X252565803Y-82206197D01*
X252524601Y-82178667D01*
X252476000Y-82169000D01*
X240792000Y-82169000D01*
X223550561Y-82169000D01*
X223951284Y-82089291D01*
X224316909Y-81844988D01*
X224561212Y-81479363D01*
X224647000Y-81048079D01*
X224647000Y-81003921D01*
X224561212Y-80572637D01*
X224316909Y-80207012D01*
X224223939Y-80144891D01*
X235079829Y-80144891D01*
X234849297Y-80240145D01*
X234672765Y-80416369D01*
X234577109Y-80646735D01*
X234576891Y-80896171D01*
X234672145Y-81126703D01*
X234848369Y-81303235D01*
X235078735Y-81398891D01*
X235328171Y-81399109D01*
X235558703Y-81303855D01*
X235735235Y-81127631D01*
X235830891Y-80897265D01*
X235831109Y-80647829D01*
X235735855Y-80417297D01*
X235559631Y-80240765D01*
X235329265Y-80145109D01*
X235079829Y-80144891D01*
X236349829Y-80144891D01*
X236119297Y-80240145D01*
X235942765Y-80416369D01*
X235847109Y-80646735D01*
X235846891Y-80896171D01*
X235942145Y-81126703D01*
X236118369Y-81303235D01*
X236348735Y-81398891D01*
X236598171Y-81399109D01*
X236828703Y-81303855D01*
X237005235Y-81127631D01*
X237100891Y-80897265D01*
X237101109Y-80647829D01*
X237005855Y-80417297D01*
X236829631Y-80240765D01*
X236599265Y-80145109D01*
X236349829Y-80144891D01*
X235079829Y-80144891D01*
X235079829Y-80144891D01*
X224223939Y-80144891D01*
X223951284Y-79962709D01*
X223520000Y-79876921D01*
X217645406Y-79876921D01*
X217645406Y-78598000D01*
X217621215Y-78473316D01*
X217549229Y-78363730D01*
X217440555Y-78290375D01*
X217312000Y-78264594D01*
X216012000Y-78264594D01*
X205199406Y-78264594D01*
X205199406Y-77074000D01*
X205175215Y-76949316D01*
X205103229Y-76839730D01*
X204994555Y-76766375D01*
X204866000Y-76740594D01*
X203566000Y-76740594D01*
X176327901Y-76740594D01*
X176394891Y-76579265D01*
X176395109Y-76329829D01*
X176299855Y-76099297D01*
X176123631Y-75922765D01*
X175893265Y-75827109D01*
X175643829Y-75826891D01*
X152019000Y-75826891D01*
X152019000Y-74810891D01*
X183263829Y-74810891D01*
X183033297Y-74906145D01*
X182856765Y-75082369D01*
X182761109Y-75312735D01*
X182760891Y-75562171D01*
X182856145Y-75792703D01*
X183032369Y-75969235D01*
X183262735Y-76064891D01*
X183512171Y-76065109D01*
X183742703Y-75969855D01*
X183919235Y-75793631D01*
X184014891Y-75563265D01*
X184015109Y-75313829D01*
X183919855Y-75083297D01*
X183743631Y-74906765D01*
X183513265Y-74811109D01*
X183263829Y-74810891D01*
X152019000Y-74810891D01*
X152019000Y-74556891D01*
X238381829Y-74556891D01*
X238151297Y-74652145D01*
X237974765Y-74828369D01*
X237879109Y-75058735D01*
X237878891Y-75308171D01*
X237974145Y-75538703D01*
X238150369Y-75715235D01*
X238380735Y-75810891D01*
X238630171Y-75811109D01*
X238860703Y-75715855D01*
X239037235Y-75539631D01*
X239132891Y-75309265D01*
X239133109Y-75059829D01*
X239037855Y-74829297D01*
X238861631Y-74652765D01*
X238631265Y-74557109D01*
X238381829Y-74556891D01*
X152019000Y-74556891D01*
X152019000Y-71660594D01*
X166990000Y-71660594D01*
X166865316Y-71684785D01*
X166755730Y-71756771D01*
X166682375Y-71865445D01*
X166656594Y-71994000D01*
X166656594Y-73294000D01*
X166680785Y-73418684D01*
X166752771Y-73528270D01*
X166861445Y-73601625D01*
X166990000Y-73627406D01*
X168290000Y-73627406D01*
X168414684Y-73603215D01*
X168524270Y-73531229D01*
X168597625Y-73422555D01*
X168623406Y-73294000D01*
X168623406Y-71994000D01*
X168599215Y-71869316D01*
X168527229Y-71759730D01*
X168418555Y-71686375D01*
X168290000Y-71660594D01*
X166990000Y-71660594D01*
X152019000Y-71660594D01*
X152019000Y-71628000D01*
X152009333Y-71579399D01*
X151981803Y-71538197D01*
X151940601Y-71510667D01*
X151931673Y-71508891D01*
X193931829Y-71508891D01*
X193701297Y-71604145D01*
X193524765Y-71780369D01*
X193429109Y-72010735D01*
X193428891Y-72260171D01*
X193524145Y-72490703D01*
X193700369Y-72667235D01*
X193930735Y-72762891D01*
X194180171Y-72763109D01*
X194410703Y-72667855D01*
X194587235Y-72491631D01*
X194682891Y-72261265D01*
X194682894Y-72256921D01*
X220980000Y-72256921D01*
X220548716Y-72342709D01*
X220183091Y-72587012D01*
X219938788Y-72952637D01*
X219853000Y-73383921D01*
X219853000Y-73428079D01*
X219938788Y-73859363D01*
X220183091Y-74224988D01*
X220548716Y-74469291D01*
X220980000Y-74555079D01*
X221411284Y-74469291D01*
X221776909Y-74224988D01*
X221894573Y-74048891D01*
X249811829Y-74048891D01*
X249581297Y-74144145D01*
X249404765Y-74320369D01*
X249309109Y-74550735D01*
X249308891Y-74800171D01*
X249404145Y-75030703D01*
X249580369Y-75207235D01*
X249810735Y-75302891D01*
X250060171Y-75303109D01*
X250290703Y-75207855D01*
X250467235Y-75031631D01*
X250562891Y-74801265D01*
X250563109Y-74551829D01*
X250467855Y-74321297D01*
X250291631Y-74144765D01*
X250061265Y-74049109D01*
X249811829Y-74048891D01*
X221894573Y-74048891D01*
X222021212Y-73859363D01*
X222107000Y-73428079D01*
X222107000Y-73383921D01*
X222021212Y-72952637D01*
X221776909Y-72587012D01*
X221411284Y-72342709D01*
X220980000Y-72256921D01*
X194682894Y-72256921D01*
X194683109Y-72011829D01*
X194587855Y-71781297D01*
X194569482Y-71762891D01*
X235079829Y-71762891D01*
X234849297Y-71858145D01*
X234672765Y-72034369D01*
X234577109Y-72264735D01*
X234576891Y-72514171D01*
X234672145Y-72744703D01*
X234848369Y-72921235D01*
X235078735Y-73016891D01*
X235328171Y-73017109D01*
X235558703Y-72921855D01*
X235735235Y-72745631D01*
X235830891Y-72515265D01*
X235831109Y-72265829D01*
X235735855Y-72035297D01*
X235559631Y-71858765D01*
X235329265Y-71763109D01*
X235079829Y-71762891D01*
X194569482Y-71762891D01*
X194411631Y-71604765D01*
X194181265Y-71509109D01*
X193931829Y-71508891D01*
X151931673Y-71508891D01*
X151892000Y-71501000D01*
X143764000Y-71501000D01*
X119249000Y-71501000D01*
X119249000Y-67961000D01*
X136883921Y-67961000D01*
X136452637Y-68046788D01*
X136087012Y-68291091D01*
X135842709Y-68656716D01*
X135756921Y-69088000D01*
X135842709Y-69519284D01*
X136087012Y-69884909D01*
X136452637Y-70129212D01*
X136883921Y-70215000D01*
X136928079Y-70215000D01*
X137359363Y-70129212D01*
X137724988Y-69884909D01*
X137969291Y-69519284D01*
X138055079Y-69088000D01*
X137969291Y-68656716D01*
X137770093Y-68358594D01*
X147686000Y-68358594D01*
X147561316Y-68382785D01*
X147451730Y-68454771D01*
X147378375Y-68563445D01*
X147352594Y-68692000D01*
X147352594Y-69992000D01*
X147376785Y-70116684D01*
X147448771Y-70226270D01*
X147557445Y-70299625D01*
X147686000Y-70325406D01*
X148986000Y-70325406D01*
X149110684Y-70301215D01*
X149220270Y-70229229D01*
X149293625Y-70120555D01*
X149319406Y-69992000D01*
X149319406Y-68692000D01*
X149295215Y-68567316D01*
X149223229Y-68457730D01*
X149114555Y-68384375D01*
X148986000Y-68358594D01*
X147686000Y-68358594D01*
X137770093Y-68358594D01*
X137724988Y-68291091D01*
X137359363Y-68046788D01*
X136928079Y-67961000D01*
X136883921Y-67961000D01*
X119249000Y-67961000D01*
X119249000Y-65421000D01*
X129263921Y-65421000D01*
X128832637Y-65506788D01*
X128467012Y-65751091D01*
X128222709Y-66116716D01*
X128136921Y-66548000D01*
X128222709Y-66979284D01*
X128467012Y-67344909D01*
X128832637Y-67589212D01*
X129263921Y-67675000D01*
X129308079Y-67675000D01*
X129739363Y-67589212D01*
X130104988Y-67344909D01*
X130349291Y-66979284D01*
X130435079Y-66548000D01*
X130408608Y-66414921D01*
X173990000Y-66414921D01*
X173558716Y-66500709D01*
X173193091Y-66745012D01*
X172948788Y-67110637D01*
X172863000Y-67541921D01*
X172863000Y-67586079D01*
X172948788Y-68017363D01*
X173193091Y-68382988D01*
X173558716Y-68627291D01*
X173990000Y-68713079D01*
X174421284Y-68627291D01*
X174786909Y-68382988D01*
X175031212Y-68017363D01*
X175064384Y-67850594D01*
X203566000Y-67850594D01*
X203441316Y-67874785D01*
X203331730Y-67946771D01*
X203258375Y-68055445D01*
X203232594Y-68184000D01*
X203232594Y-69484000D01*
X203256785Y-69608684D01*
X203328771Y-69718270D01*
X203437445Y-69791625D01*
X203566000Y-69817406D01*
X204866000Y-69817406D01*
X204990684Y-69793215D01*
X205100270Y-69721229D01*
X205162798Y-69628594D01*
X216012000Y-69628594D01*
X215887316Y-69652785D01*
X215777730Y-69724771D01*
X215704375Y-69833445D01*
X215678594Y-69962000D01*
X215678594Y-71262000D01*
X215702785Y-71386684D01*
X215774771Y-71496270D01*
X215883445Y-71569625D01*
X216012000Y-71595406D01*
X217312000Y-71595406D01*
X217436684Y-71571215D01*
X217546270Y-71499229D01*
X217619625Y-71390555D01*
X217645406Y-71262000D01*
X217645406Y-69962000D01*
X217621215Y-69837316D01*
X217551306Y-69730891D01*
X230253829Y-69730891D01*
X230023297Y-69826145D01*
X229846765Y-70002369D01*
X229751109Y-70232735D01*
X229750891Y-70482171D01*
X229846145Y-70712703D01*
X230022369Y-70889235D01*
X230252735Y-70984891D01*
X230502171Y-70985109D01*
X230732703Y-70889855D01*
X230909235Y-70713631D01*
X231004891Y-70483265D01*
X231005109Y-70233829D01*
X230909855Y-70003297D01*
X230733631Y-69826765D01*
X230503265Y-69731109D01*
X230253829Y-69730891D01*
X217551306Y-69730891D01*
X217549229Y-69727730D01*
X217440555Y-69654375D01*
X217312000Y-69628594D01*
X216012000Y-69628594D01*
X205162798Y-69628594D01*
X205173625Y-69612555D01*
X205199406Y-69484000D01*
X205199406Y-68184000D01*
X205175215Y-68059316D01*
X205103229Y-67949730D01*
X204994555Y-67876375D01*
X204866000Y-67850594D01*
X203566000Y-67850594D01*
X175064384Y-67850594D01*
X175117000Y-67586079D01*
X175117000Y-67541921D01*
X175031212Y-67110637D01*
X174786909Y-66745012D01*
X174421284Y-66500709D01*
X173990000Y-66414921D01*
X130408608Y-66414921D01*
X130349291Y-66116716D01*
X130104988Y-65751091D01*
X129739363Y-65506788D01*
X129308079Y-65421000D01*
X129263921Y-65421000D01*
X119249000Y-65421000D01*
X119249000Y-63634891D01*
X183771829Y-63634891D01*
X183541297Y-63730145D01*
X183364765Y-63906369D01*
X183269109Y-64136735D01*
X183268891Y-64386171D01*
X183364145Y-64616703D01*
X183540369Y-64793235D01*
X183770735Y-64888891D01*
X184020171Y-64889109D01*
X184250703Y-64793855D01*
X184427235Y-64617631D01*
X184518893Y-64396891D01*
X196725829Y-64396891D01*
X196495297Y-64492145D01*
X196318765Y-64668369D01*
X196223109Y-64898735D01*
X196222891Y-65148171D01*
X196318145Y-65378703D01*
X196494369Y-65555235D01*
X196724735Y-65650891D01*
X196974171Y-65651109D01*
X197204703Y-65555855D01*
X197381235Y-65379631D01*
X197476891Y-65149265D01*
X197477109Y-64899829D01*
X197381855Y-64669297D01*
X197205631Y-64492765D01*
X196975265Y-64397109D01*
X196725829Y-64396891D01*
X184518893Y-64396891D01*
X184522891Y-64387265D01*
X184523104Y-64142891D01*
X230761829Y-64142891D01*
X230531297Y-64238145D01*
X230354765Y-64414369D01*
X230259109Y-64644735D01*
X230258891Y-64894171D01*
X230354145Y-65124703D01*
X230507287Y-65278113D01*
X230354765Y-65430369D01*
X230259109Y-65660735D01*
X230258891Y-65910171D01*
X230354145Y-66140703D01*
X230507287Y-66294113D01*
X230354765Y-66446369D01*
X230259109Y-66676735D01*
X230258891Y-66926171D01*
X230354145Y-67156703D01*
X230507287Y-67310113D01*
X230377887Y-67439287D01*
X230225631Y-67286765D01*
X229995265Y-67191109D01*
X229745829Y-67190891D01*
X229515297Y-67286145D01*
X229361887Y-67439287D01*
X229209631Y-67286765D01*
X228979265Y-67191109D01*
X228729829Y-67190891D01*
X228499297Y-67286145D01*
X228345887Y-67439287D01*
X228193631Y-67286765D01*
X227963265Y-67191109D01*
X227713829Y-67190891D01*
X227483297Y-67286145D01*
X227306765Y-67462369D01*
X227211109Y-67692735D01*
X227210891Y-67942171D01*
X227306145Y-68172703D01*
X227459287Y-68326113D01*
X227306765Y-68478369D01*
X227211109Y-68708735D01*
X227210891Y-68958171D01*
X227306145Y-69188703D01*
X227482369Y-69365235D01*
X227712735Y-69460891D01*
X227962171Y-69461109D01*
X228192703Y-69365855D01*
X228346113Y-69212713D01*
X228498369Y-69365235D01*
X228728735Y-69460891D01*
X228978171Y-69461109D01*
X229208703Y-69365855D01*
X229362113Y-69212713D01*
X229514369Y-69365235D01*
X229744735Y-69460891D01*
X229994171Y-69461109D01*
X230224703Y-69365855D01*
X230378113Y-69212713D01*
X230530369Y-69365235D01*
X230760735Y-69460891D01*
X231010171Y-69461109D01*
X231240703Y-69365855D01*
X231417235Y-69189631D01*
X231512891Y-68959265D01*
X231513109Y-68709829D01*
X231417855Y-68479297D01*
X231264713Y-68325887D01*
X231417235Y-68173631D01*
X231512891Y-67943265D01*
X231513109Y-67693829D01*
X231417855Y-67463297D01*
X231264713Y-67309887D01*
X231383916Y-67190891D01*
X232031829Y-67190891D01*
X231801297Y-67286145D01*
X231624765Y-67462369D01*
X231529109Y-67692735D01*
X231528891Y-67942171D01*
X231624145Y-68172703D01*
X231777287Y-68326113D01*
X231624765Y-68478369D01*
X231529109Y-68708735D01*
X231528891Y-68958171D01*
X231624145Y-69188703D01*
X231800369Y-69365235D01*
X232030735Y-69460891D01*
X232280171Y-69461109D01*
X232510703Y-69365855D01*
X232664113Y-69212713D01*
X232816369Y-69365235D01*
X233046735Y-69460891D01*
X233296171Y-69461109D01*
X233526703Y-69365855D01*
X233680113Y-69212713D01*
X233832369Y-69365235D01*
X234062735Y-69460891D01*
X234312171Y-69461109D01*
X234542703Y-69365855D01*
X234696113Y-69212713D01*
X234848369Y-69365235D01*
X235078735Y-69460891D01*
X235328171Y-69461109D01*
X235558703Y-69365855D01*
X235712113Y-69212713D01*
X235864369Y-69365235D01*
X236094735Y-69460891D01*
X236344171Y-69461109D01*
X236574703Y-69365855D01*
X236751235Y-69189631D01*
X236846891Y-68959265D01*
X236847109Y-68709829D01*
X236751855Y-68479297D01*
X236598713Y-68325887D01*
X236751235Y-68173631D01*
X236846891Y-67943265D01*
X236847109Y-67693829D01*
X236751855Y-67463297D01*
X236575631Y-67286765D01*
X236345265Y-67191109D01*
X236095829Y-67190891D01*
X235865297Y-67286145D01*
X235711887Y-67439287D01*
X235559631Y-67286765D01*
X235329265Y-67191109D01*
X235079829Y-67190891D01*
X234849297Y-67286145D01*
X234695887Y-67439287D01*
X234543631Y-67286765D01*
X234313265Y-67191109D01*
X234063829Y-67190891D01*
X233833297Y-67286145D01*
X233679887Y-67439287D01*
X233527631Y-67286765D01*
X233297265Y-67191109D01*
X233047829Y-67190891D01*
X232817297Y-67286145D01*
X232663887Y-67439287D01*
X232511631Y-67286765D01*
X232281265Y-67191109D01*
X232031829Y-67190891D01*
X231383916Y-67190891D01*
X231417235Y-67157631D01*
X231512891Y-66927265D01*
X231513109Y-66677829D01*
X231417855Y-66447297D01*
X231264713Y-66293887D01*
X231417235Y-66141631D01*
X231512891Y-65911265D01*
X231513109Y-65661829D01*
X231417855Y-65431297D01*
X231264713Y-65277887D01*
X231417235Y-65125631D01*
X231512891Y-64895265D01*
X231513109Y-64645829D01*
X231417855Y-64415297D01*
X231241631Y-64238765D01*
X231011265Y-64143109D01*
X230761829Y-64142891D01*
X184523104Y-64142891D01*
X184523109Y-64137829D01*
X184427855Y-63907297D01*
X184251631Y-63730765D01*
X184021265Y-63635109D01*
X183771829Y-63634891D01*
X119249000Y-63634891D01*
X119249000Y-59468594D01*
X147686000Y-59468594D01*
X147561316Y-59492785D01*
X147451730Y-59564771D01*
X147378375Y-59673445D01*
X147352594Y-59802000D01*
X147352594Y-61102000D01*
X147376785Y-61226684D01*
X147448771Y-61336270D01*
X147557445Y-61409625D01*
X147686000Y-61435406D01*
X148986000Y-61435406D01*
X149110684Y-61411215D01*
X149220270Y-61339229D01*
X149293625Y-61230555D01*
X149319406Y-61102000D01*
X149319406Y-60992594D01*
X167244000Y-60992594D01*
X167119316Y-61016785D01*
X167009730Y-61088771D01*
X166936375Y-61197445D01*
X166910594Y-61326000D01*
X166910594Y-62626000D01*
X166934785Y-62750684D01*
X167006771Y-62860270D01*
X167115445Y-62933625D01*
X167244000Y-62959406D01*
X168544000Y-62959406D01*
X168668684Y-62935215D01*
X168778270Y-62863229D01*
X168851625Y-62754555D01*
X168877406Y-62626000D01*
X168877406Y-61326000D01*
X168853215Y-61201316D01*
X168783306Y-61094891D01*
X172595829Y-61094891D01*
X172365297Y-61190145D01*
X172188765Y-61366369D01*
X172093109Y-61596735D01*
X172092891Y-61846171D01*
X172188145Y-62076703D01*
X172364369Y-62253235D01*
X172594735Y-62348891D01*
X172844171Y-62349109D01*
X173074703Y-62253855D01*
X173251235Y-62077631D01*
X173346891Y-61847265D01*
X173347109Y-61597829D01*
X173251855Y-61367297D01*
X173075631Y-61190765D01*
X172845265Y-61095109D01*
X172595829Y-61094891D01*
X168783306Y-61094891D01*
X168781229Y-61091730D01*
X168672555Y-61018375D01*
X168544000Y-60992594D01*
X167244000Y-60992594D01*
X149319406Y-60992594D01*
X149319406Y-59802000D01*
X149295215Y-59677316D01*
X149223229Y-59567730D01*
X149114555Y-59494375D01*
X148986000Y-59468594D01*
X147686000Y-59468594D01*
X119249000Y-59468594D01*
X119249000Y-58794921D01*
X176530000Y-58794921D01*
X176098716Y-58880709D01*
X175733091Y-59125012D01*
X175488788Y-59490637D01*
X175403000Y-59921921D01*
X175403000Y-59966079D01*
X175488788Y-60397363D01*
X175733091Y-60762988D01*
X176098716Y-61007291D01*
X176530000Y-61093079D01*
X176961284Y-61007291D01*
X177326909Y-60762988D01*
X177571212Y-60397363D01*
X177657000Y-59966079D01*
X177657000Y-59921921D01*
X177571212Y-59490637D01*
X177326909Y-59125012D01*
X176961284Y-58880709D01*
X176530000Y-58794921D01*
X119249000Y-58794921D01*
X119249000Y-56014891D01*
X145417829Y-56014891D01*
X145187297Y-56110145D01*
X145010765Y-56286369D01*
X144915109Y-56516735D01*
X144914891Y-56766171D01*
X145010145Y-56996703D01*
X145036287Y-57022891D01*
X145010765Y-57048369D01*
X144915109Y-57278735D01*
X144914891Y-57528171D01*
X145010145Y-57758703D01*
X145036287Y-57784891D01*
X145010765Y-57810369D01*
X144915109Y-58040735D01*
X144914891Y-58290171D01*
X145010145Y-58520703D01*
X145186369Y-58697235D01*
X145416735Y-58792891D01*
X145666171Y-58793109D01*
X145896703Y-58697855D01*
X145922891Y-58671713D01*
X145948369Y-58697235D01*
X146178735Y-58792891D01*
X146428171Y-58793109D01*
X146658703Y-58697855D01*
X146835235Y-58521631D01*
X146930891Y-58291265D01*
X146931109Y-58041829D01*
X146835855Y-57811297D01*
X146809713Y-57785109D01*
X146835235Y-57759631D01*
X146930891Y-57529265D01*
X146931109Y-57279829D01*
X146835855Y-57049297D01*
X146809713Y-57023109D01*
X146835235Y-56997631D01*
X146930891Y-56767265D01*
X146931109Y-56517829D01*
X146835855Y-56287297D01*
X146659631Y-56110765D01*
X146429265Y-56015109D01*
X146179829Y-56014891D01*
X159133829Y-56014891D01*
X158903297Y-56110145D01*
X158726765Y-56286369D01*
X158631109Y-56516735D01*
X158630891Y-56766171D01*
X158726145Y-56996703D01*
X158902369Y-57173235D01*
X159132735Y-57268891D01*
X159382171Y-57269109D01*
X159612703Y-57173855D01*
X159789235Y-56997631D01*
X159884891Y-56767265D01*
X159885109Y-56517829D01*
X159789855Y-56287297D01*
X159613631Y-56110765D01*
X159383265Y-56015109D01*
X159133829Y-56014891D01*
X146179829Y-56014891D01*
X146179829Y-56014891D01*
X145949297Y-56110145D01*
X145923109Y-56136287D01*
X145897631Y-56110765D01*
X145667265Y-56015109D01*
X145417829Y-56014891D01*
X119249000Y-56014891D01*
X119249000Y-53728891D01*
X142115829Y-53728891D01*
X141885297Y-53824145D01*
X141708765Y-54000369D01*
X141613109Y-54230735D01*
X141612891Y-54480171D01*
X141708145Y-54710703D01*
X141884369Y-54887235D01*
X142114735Y-54982891D01*
X142364171Y-54983109D01*
X142594703Y-54887855D01*
X142771235Y-54711631D01*
X142866891Y-54481265D01*
X142867109Y-54231829D01*
X142771855Y-54001297D01*
X142595631Y-53824765D01*
X142365265Y-53729109D01*
X142115829Y-53728891D01*
X148211829Y-53728891D01*
X147981297Y-53824145D01*
X147804765Y-54000369D01*
X147709109Y-54230735D01*
X147708891Y-54480171D01*
X147804145Y-54710703D01*
X147980369Y-54887235D01*
X148210735Y-54982891D01*
X148460171Y-54983109D01*
X148690703Y-54887855D01*
X148867235Y-54711631D01*
X148962891Y-54481265D01*
X148963109Y-54231829D01*
X148867855Y-54001297D01*
X148691631Y-53824765D01*
X148461265Y-53729109D01*
X148211829Y-53728891D01*
X142115829Y-53728891D01*
X142115829Y-53728891D01*
X119249000Y-53728891D01*
X119249000Y-51823891D01*
X155831829Y-51823891D01*
X155601297Y-51919145D01*
X155424765Y-52095369D01*
X155329109Y-52325735D01*
X155328891Y-52575171D01*
X155424145Y-52805703D01*
X155600369Y-52982235D01*
X155830735Y-53077891D01*
X156080171Y-53078109D01*
X156310703Y-52982855D01*
X156487235Y-52806631D01*
X156582891Y-52576265D01*
X156583109Y-52326829D01*
X156487855Y-52096297D01*
X156311631Y-51919765D01*
X156081265Y-51824109D01*
X155831829Y-51823891D01*
X119249000Y-51823891D01*
X119249000Y-45396788D01*
X129765005Y-45396788D01*
X129313869Y-45583194D01*
X128968407Y-45928053D01*
X128781214Y-46378864D01*
X128780788Y-46866995D01*
X128967194Y-47318131D01*
X129312053Y-47663593D01*
X129762864Y-47850786D01*
X130250995Y-47851212D01*
X130702131Y-47664806D01*
X131047593Y-47319947D01*
X131128587Y-47124891D01*
X135511829Y-47124891D01*
X135281297Y-47220145D01*
X135104765Y-47396369D01*
X135009109Y-47626735D01*
X135008891Y-47876171D01*
X135104145Y-48106703D01*
X135280369Y-48283235D01*
X135510735Y-48378891D01*
X135760171Y-48379109D01*
X135990703Y-48283855D01*
X136167235Y-48107631D01*
X136262891Y-47877265D01*
X136263109Y-47627829D01*
X136168431Y-47398689D01*
X184912000Y-47398689D01*
X184456377Y-47489318D01*
X184070119Y-47747408D01*
X183812029Y-48133666D01*
X183721400Y-48589289D01*
X183721400Y-48946711D01*
X183812029Y-49402334D01*
X184070119Y-49788592D01*
X184456377Y-50046682D01*
X184912000Y-50137311D01*
X185367623Y-50046682D01*
X185753881Y-49788592D01*
X186011971Y-49402334D01*
X186102600Y-48946711D01*
X186102600Y-48589289D01*
X186011971Y-48133666D01*
X185753881Y-47747408D01*
X185367623Y-47489318D01*
X184912000Y-47398689D01*
X187452000Y-47398689D01*
X186996377Y-47489318D01*
X186610119Y-47747408D01*
X186352029Y-48133666D01*
X186261400Y-48589289D01*
X186261400Y-48946711D01*
X186352029Y-49402334D01*
X186610119Y-49788592D01*
X186996377Y-50046682D01*
X187452000Y-50137311D01*
X187907623Y-50046682D01*
X188293881Y-49788592D01*
X188551971Y-49402334D01*
X188642600Y-48946711D01*
X188642600Y-48589289D01*
X188551971Y-48133666D01*
X188293881Y-47747408D01*
X187907623Y-47489318D01*
X187452000Y-47398689D01*
X184912000Y-47398689D01*
X184912000Y-47398689D01*
X136168431Y-47398689D01*
X136167855Y-47397297D01*
X135991631Y-47220765D01*
X135761265Y-47125109D01*
X135511829Y-47124891D01*
X131128587Y-47124891D01*
X131234786Y-46869136D01*
X131235212Y-46381005D01*
X131048806Y-45929869D01*
X130703947Y-45584407D01*
X130253136Y-45397214D01*
X129765005Y-45396788D01*
X119249000Y-45396788D01*
X119249000Y-43314891D01*
X150243829Y-43314891D01*
X150013297Y-43410145D01*
X149836765Y-43586369D01*
X149741109Y-43816735D01*
X149740891Y-44066171D01*
X149836145Y-44296703D01*
X150012369Y-44473235D01*
X150242735Y-44568891D01*
X150492171Y-44569109D01*
X150722703Y-44473855D01*
X150899235Y-44297631D01*
X150994891Y-44067265D01*
X150995109Y-43817829D01*
X150899855Y-43587297D01*
X150723631Y-43410765D01*
X150493265Y-43315109D01*
X150243829Y-43314891D01*
X119249000Y-43314891D01*
X119249000Y-37796684D01*
X121546182Y-37796684D01*
X120874440Y-38074242D01*
X120360048Y-38587736D01*
X120081318Y-39258993D01*
X120080684Y-39985818D01*
X120358242Y-40657560D01*
X120871736Y-41171952D01*
X121542993Y-41450682D01*
X122269818Y-41451316D01*
X122941560Y-41173758D01*
X123455952Y-40660264D01*
X123734682Y-39989007D01*
X123735316Y-39262182D01*
X123457758Y-38590440D01*
X122944264Y-38076048D01*
X122273007Y-37797318D01*
X121546182Y-37796684D01*
X119249000Y-37796684D01*
X119249000Y-36964891D01*
X127891829Y-36964891D01*
X127661297Y-37060145D01*
X127484765Y-37236369D01*
X127389109Y-37466735D01*
X127388891Y-37716171D01*
X127484145Y-37946703D01*
X127660369Y-38123235D01*
X127890735Y-38218891D01*
X128140171Y-38219109D01*
X128370703Y-38123855D01*
X128547235Y-37947631D01*
X128609913Y-37796684D01*
X132746182Y-37796684D01*
X132074440Y-38074242D01*
X131560048Y-38587736D01*
X131281318Y-39258993D01*
X131280684Y-39985818D01*
X131558242Y-40657560D01*
X132071736Y-41171952D01*
X132742993Y-41450682D01*
X133469818Y-41451316D01*
X134141560Y-41173758D01*
X134286680Y-41028891D01*
X145163829Y-41028891D01*
X144933297Y-41124145D01*
X144756765Y-41300369D01*
X144661109Y-41530735D01*
X144660891Y-41780171D01*
X144756145Y-42010703D01*
X144932369Y-42187235D01*
X145162735Y-42282891D01*
X145412171Y-42283109D01*
X145642703Y-42187855D01*
X145785916Y-42044891D01*
X178310829Y-42044891D01*
X178080297Y-42140145D01*
X177903765Y-42316369D01*
X177808109Y-42546735D01*
X177807891Y-42796171D01*
X177903145Y-43026703D01*
X178079369Y-43203235D01*
X178309735Y-43298891D01*
X178559171Y-43299109D01*
X178789703Y-43203855D01*
X178966235Y-43027631D01*
X179061891Y-42797265D01*
X179062109Y-42547829D01*
X178966855Y-42317297D01*
X178790631Y-42140765D01*
X178560265Y-42045109D01*
X178310829Y-42044891D01*
X145785916Y-42044891D01*
X145819235Y-42011631D01*
X145914891Y-41781265D01*
X145915109Y-41531829D01*
X145819855Y-41301297D01*
X145643631Y-41124765D01*
X145413265Y-41029109D01*
X145163829Y-41028891D01*
X134286680Y-41028891D01*
X134655952Y-40660264D01*
X134934682Y-39989007D01*
X134935104Y-39504891D01*
X145163829Y-39504891D01*
X144933297Y-39600145D01*
X144756765Y-39776369D01*
X144661109Y-40006735D01*
X144660891Y-40256171D01*
X144756145Y-40486703D01*
X144932369Y-40663235D01*
X145162735Y-40758891D01*
X145412171Y-40759109D01*
X145642703Y-40663855D01*
X145819235Y-40487631D01*
X145914891Y-40257265D01*
X145915109Y-40007829D01*
X145819855Y-39777297D01*
X145801482Y-39758891D01*
X148592829Y-39758891D01*
X148362297Y-39854145D01*
X148185765Y-40030369D01*
X148090109Y-40260735D01*
X148089891Y-40510171D01*
X148185145Y-40740703D01*
X148361369Y-40917235D01*
X148591735Y-41012891D01*
X148841171Y-41013109D01*
X149071703Y-40917855D01*
X149248235Y-40741631D01*
X149343891Y-40511265D01*
X149344109Y-40261829D01*
X149248855Y-40031297D01*
X149072631Y-39854765D01*
X148842265Y-39759109D01*
X148592829Y-39758891D01*
X145801482Y-39758891D01*
X145643631Y-39600765D01*
X145413265Y-39505109D01*
X145163829Y-39504891D01*
X134935104Y-39504891D01*
X134935316Y-39262182D01*
X134657758Y-38590440D01*
X134144264Y-38076048D01*
X133473007Y-37797318D01*
X132746182Y-37796684D01*
X128609913Y-37796684D01*
X128642891Y-37717265D01*
X128643109Y-37467829D01*
X128547855Y-37237297D01*
X128371631Y-37060765D01*
X128141265Y-36965109D01*
X127891829Y-36964891D01*
X119249000Y-36964891D01*
X119249000Y-36456891D01*
X141099829Y-36456891D01*
X140869297Y-36552145D01*
X140692765Y-36728369D01*
X140597109Y-36958735D01*
X140596891Y-37208171D01*
X140692145Y-37438703D01*
X140845287Y-37592113D01*
X140692765Y-37744369D01*
X140597109Y-37974735D01*
X140596891Y-38224171D01*
X140692145Y-38454703D01*
X140868369Y-38631235D01*
X141098735Y-38726891D01*
X141348171Y-38727109D01*
X141578703Y-38631855D01*
X141732113Y-38478713D01*
X141884369Y-38631235D01*
X142114735Y-38726891D01*
X142364171Y-38727109D01*
X142594703Y-38631855D01*
X142748113Y-38478713D01*
X142900369Y-38631235D01*
X143130735Y-38726891D01*
X143380171Y-38727109D01*
X143610703Y-38631855D01*
X143787235Y-38455631D01*
X143882891Y-38225265D01*
X143883109Y-37975829D01*
X143787855Y-37745297D01*
X143634713Y-37591887D01*
X143787235Y-37439631D01*
X143882891Y-37209265D01*
X143883109Y-36959829D01*
X143787855Y-36729297D01*
X143611631Y-36552765D01*
X143381265Y-36457109D01*
X143131829Y-36456891D01*
X142901297Y-36552145D01*
X142747887Y-36705287D01*
X142595631Y-36552765D01*
X142365265Y-36457109D01*
X142115829Y-36456891D01*
X141885297Y-36552145D01*
X141731887Y-36705287D01*
X141579631Y-36552765D01*
X141349265Y-36457109D01*
X141099829Y-36456891D01*
X119249000Y-36456891D01*
X119249000Y-30896788D01*
X124765005Y-30896788D01*
X124313869Y-31083194D01*
X123968407Y-31428053D01*
X123781214Y-31878864D01*
X123780788Y-32366995D01*
X123967194Y-32818131D01*
X124312053Y-33163593D01*
X124762864Y-33350786D01*
X125250995Y-33351212D01*
X125702131Y-33164806D01*
X126047593Y-32819947D01*
X126234786Y-32369136D01*
X126235212Y-31881005D01*
X126048806Y-31429869D01*
X125703947Y-31084407D01*
X125253136Y-30897214D01*
X124765005Y-30896788D01*
X129765005Y-30896788D01*
X129313869Y-31083194D01*
X128968407Y-31428053D01*
X128781214Y-31878864D01*
X128780788Y-32366995D01*
X128967194Y-32818131D01*
X129312053Y-33163593D01*
X129762864Y-33350786D01*
X130250995Y-33351212D01*
X130702131Y-33164806D01*
X131047593Y-32819947D01*
X131234786Y-32369136D01*
X131235208Y-31884891D01*
X178183829Y-31884891D01*
X177953297Y-31980145D01*
X177776765Y-32156369D01*
X177681109Y-32386735D01*
X177680891Y-32636171D01*
X177776145Y-32866703D01*
X177952369Y-33043235D01*
X178182735Y-33138891D01*
X178432171Y-33139109D01*
X178662703Y-33043855D01*
X178839235Y-32867631D01*
X178934891Y-32637265D01*
X178935109Y-32387829D01*
X178839855Y-32157297D01*
X178663631Y-31980765D01*
X178433265Y-31885109D01*
X178183829Y-31884891D01*
X131235208Y-31884891D01*
X131235212Y-31881005D01*
X131048806Y-31429869D01*
X130703947Y-31084407D01*
X130253136Y-30897214D01*
X129765005Y-30896788D01*
X124765005Y-30896788D01*
X124765005Y-30896788D01*
X119249000Y-30896788D01*
X119249000Y-30106891D01*
X139829829Y-30106891D01*
X139599297Y-30202145D01*
X139422765Y-30378369D01*
X139327109Y-30608735D01*
X139326891Y-30858171D01*
X139422145Y-31088703D01*
X139598369Y-31265235D01*
X139828735Y-31360891D01*
X140078171Y-31361109D01*
X140308703Y-31265855D01*
X140485235Y-31089631D01*
X140580891Y-30859265D01*
X140581109Y-30609829D01*
X140485855Y-30379297D01*
X140309631Y-30202765D01*
X140079265Y-30107109D01*
X139829829Y-30106891D01*
X162181829Y-30106891D01*
X161951297Y-30202145D01*
X161774765Y-30378369D01*
X161679109Y-30608735D01*
X161678891Y-30858171D01*
X161774145Y-31088703D01*
X161950369Y-31265235D01*
X162180735Y-31360891D01*
X162430171Y-31361109D01*
X162660703Y-31265855D01*
X162837235Y-31089631D01*
X162932891Y-30859265D01*
X162933109Y-30609829D01*
X162837855Y-30379297D01*
X162661631Y-30202765D01*
X162431265Y-30107109D01*
X162181829Y-30106891D01*
X139829829Y-30106891D01*
X139829829Y-30106891D01*
X119249000Y-30106891D01*
X119249000Y-28836891D01*
X158371829Y-28836891D01*
X158141297Y-28932145D01*
X157964765Y-29108369D01*
X157869109Y-29338735D01*
X157868891Y-29588171D01*
X157964145Y-29818703D01*
X158140369Y-29995235D01*
X158370735Y-30090891D01*
X158620171Y-30091109D01*
X158850703Y-29995855D01*
X159027235Y-29819631D01*
X159122891Y-29589265D01*
X159123109Y-29339829D01*
X159027855Y-29109297D01*
X158851631Y-28932765D01*
X158621265Y-28837109D01*
X158371829Y-28836891D01*
X119249000Y-28836891D01*
X119249000Y-25788891D01*
X130431829Y-25788891D01*
X130201297Y-25884145D01*
X130024765Y-26060369D01*
X129929109Y-26290735D01*
X129928891Y-26540171D01*
X130024145Y-26770703D01*
X130200369Y-26947235D01*
X130430735Y-27042891D01*
X130680171Y-27043109D01*
X130910703Y-26947855D01*
X131087235Y-26771631D01*
X131182891Y-26541265D01*
X131183109Y-26291829D01*
X131087855Y-26061297D01*
X130911631Y-25884765D01*
X130681265Y-25789109D01*
X130431829Y-25788891D01*
X119249000Y-25788891D01*
X119249000Y-22506689D01*
X159512000Y-22506689D01*
X159056377Y-22597318D01*
X158670119Y-22855408D01*
X158412029Y-23241666D01*
X158321400Y-23697289D01*
X158321400Y-24054711D01*
X158412029Y-24510334D01*
X158670119Y-24896592D01*
X159056377Y-25154682D01*
X159512000Y-25245311D01*
X159967623Y-25154682D01*
X160353881Y-24896592D01*
X160611971Y-24510334D01*
X160702600Y-24054711D01*
X160702600Y-23697289D01*
X160611971Y-23241666D01*
X160353881Y-22855408D01*
X159967623Y-22597318D01*
X159512000Y-22506689D01*
X162052000Y-22506689D01*
X161596377Y-22597318D01*
X161210119Y-22855408D01*
X160952029Y-23241666D01*
X160861400Y-23697289D01*
X160861400Y-24054711D01*
X160952029Y-24510334D01*
X161210119Y-24896592D01*
X161596377Y-25154682D01*
X162052000Y-25245311D01*
X162507623Y-25154682D01*
X162893881Y-24896592D01*
X163151971Y-24510334D01*
X163242600Y-24054711D01*
X163242600Y-23697289D01*
X163151971Y-23241666D01*
X162893881Y-22855408D01*
X162507623Y-22597318D01*
X162052000Y-22506689D01*
X167132000Y-22506689D01*
X166676377Y-22597318D01*
X166290119Y-22855408D01*
X166032029Y-23241666D01*
X165941400Y-23697289D01*
X165941400Y-24054711D01*
X166032029Y-24510334D01*
X166290119Y-24896592D01*
X166676377Y-25154682D01*
X167132000Y-25245311D01*
X167587623Y-25154682D01*
X167973881Y-24896592D01*
X168231971Y-24510334D01*
X168322600Y-24054711D01*
X168322600Y-23697289D01*
X168231971Y-23241666D01*
X167973881Y-22855408D01*
X167587623Y-22597318D01*
X167132000Y-22506689D01*
X169672000Y-22506689D01*
X169216377Y-22597318D01*
X168830119Y-22855408D01*
X168572029Y-23241666D01*
X168481400Y-23697289D01*
X168481400Y-24054711D01*
X168572029Y-24510334D01*
X168830119Y-24896592D01*
X169216377Y-25154682D01*
X169672000Y-25245311D01*
X170127623Y-25154682D01*
X170513881Y-24896592D01*
X170771971Y-24510334D01*
X170862600Y-24054711D01*
X170862600Y-23697289D01*
X170771971Y-23241666D01*
X170513881Y-22855408D01*
X170127623Y-22597318D01*
X169772070Y-22526594D01*
X171348400Y-22526594D01*
X171223716Y-22550785D01*
X171114130Y-22622771D01*
X171040775Y-22731445D01*
X171014994Y-22860000D01*
X171014994Y-24892000D01*
X171039185Y-25016684D01*
X171111171Y-25126270D01*
X171219845Y-25199625D01*
X171348400Y-25225406D01*
X173075600Y-25225406D01*
X173200284Y-25201215D01*
X173309870Y-25129229D01*
X173383225Y-25020555D01*
X173409006Y-24892000D01*
X173409006Y-22860000D01*
X173384815Y-22735316D01*
X173312829Y-22625730D01*
X173204155Y-22552375D01*
X173075600Y-22526594D01*
X171348400Y-22526594D01*
X169772070Y-22526594D01*
X169672000Y-22506689D01*
X167132000Y-22506689D01*
X167132000Y-22506689D01*
X162052000Y-22506689D01*
X162052000Y-22506689D01*
X159512000Y-22506689D01*
X159512000Y-22506689D01*
X119249000Y-22506689D01*
X119249000Y-19681000D01*
X119249000Y-19681000D01*
G37*
X119249000Y-19681000D02*
X119249000Y-19681000D01*
X174374952Y-19681000D01*
X174498016Y-27434016D01*
X174503123Y-27457721D01*
X174508003Y-27481403D01*
X174508329Y-27481884D01*
X174508453Y-27482457D01*
X174522228Y-27502380D01*
X174535814Y-27522416D01*
X174536302Y-27522737D01*
X174536634Y-27523217D01*
X174556999Y-27536362D01*
X174577204Y-27549663D01*
X174577775Y-27549772D01*
X174578267Y-27550090D01*
X174602123Y-27554442D01*
X174625870Y-27558997D01*
X193167870Y-27431997D01*
X193190735Y-27427285D01*
X193213733Y-27423090D01*
X193214967Y-27422292D01*
X193216404Y-27421997D01*
X193235734Y-27408888D01*
X193255366Y-27396217D01*
X193256200Y-27395010D01*
X193257416Y-27394186D01*
X193270263Y-27374669D01*
X193283547Y-27355457D01*
X193283856Y-27354021D01*
X193284663Y-27352796D01*
X193289061Y-27329860D01*
X193293984Y-27307016D01*
X193328400Y-25138779D01*
X195073103Y-25138779D01*
X194603583Y-25332781D01*
X194244043Y-25691693D01*
X194049222Y-26160875D01*
X194048779Y-26668897D01*
X194242781Y-27138417D01*
X194601693Y-27497957D01*
X195055088Y-27686223D01*
X194603583Y-27872781D01*
X194244043Y-28231693D01*
X194049222Y-28700875D01*
X194048779Y-29208897D01*
X194242781Y-29678417D01*
X194601693Y-30037957D01*
X195055088Y-30226223D01*
X194603583Y-30412781D01*
X194244043Y-30771693D01*
X194049222Y-31240875D01*
X194048779Y-31748897D01*
X194242781Y-32218417D01*
X194601693Y-32577957D01*
X195055088Y-32766223D01*
X194603583Y-32952781D01*
X194244043Y-33311693D01*
X194049222Y-33780875D01*
X194048779Y-34288897D01*
X194242781Y-34758417D01*
X194601693Y-35117957D01*
X195055088Y-35306223D01*
X194603583Y-35492781D01*
X194244043Y-35851693D01*
X194049222Y-36320875D01*
X194048779Y-36828897D01*
X194242781Y-37298417D01*
X194601693Y-37657957D01*
X195055088Y-37846223D01*
X194603583Y-38032781D01*
X194244043Y-38391693D01*
X194049222Y-38860875D01*
X194048779Y-39368897D01*
X194242781Y-39838417D01*
X194601693Y-40197957D01*
X195055088Y-40386223D01*
X194603583Y-40572781D01*
X194244043Y-40931693D01*
X194049222Y-41400875D01*
X194048779Y-41908897D01*
X194242781Y-42378417D01*
X194601693Y-42737957D01*
X195055088Y-42926223D01*
X194603583Y-43112781D01*
X194244043Y-43471693D01*
X194049222Y-43940875D01*
X194048779Y-44448897D01*
X194242781Y-44918417D01*
X194601693Y-45277957D01*
X195055088Y-45466223D01*
X194603583Y-45652781D01*
X194244043Y-46011693D01*
X194049222Y-46480875D01*
X194048779Y-46988897D01*
X194242781Y-47458417D01*
X194601693Y-47817957D01*
X195055088Y-48006223D01*
X194603583Y-48192781D01*
X194244043Y-48551693D01*
X194049222Y-49020875D01*
X194048779Y-49528897D01*
X194242781Y-49998417D01*
X194601693Y-50357957D01*
X195055088Y-50546223D01*
X194603583Y-50732781D01*
X194244043Y-51091693D01*
X194049222Y-51560875D01*
X194048779Y-52068897D01*
X194242781Y-52538417D01*
X194601693Y-52897957D01*
X195055088Y-53086223D01*
X194603583Y-53272781D01*
X194244043Y-53631693D01*
X194049222Y-54100875D01*
X194048779Y-54608897D01*
X194242781Y-55078417D01*
X194601693Y-55437957D01*
X195055088Y-55626223D01*
X194603583Y-55812781D01*
X194244043Y-56171693D01*
X194049222Y-56640875D01*
X194048779Y-57148897D01*
X194242781Y-57618417D01*
X194601693Y-57977957D01*
X195070875Y-58172778D01*
X195578897Y-58173221D01*
X196048417Y-57979219D01*
X196407957Y-57620307D01*
X196596223Y-57166912D01*
X196782781Y-57618417D01*
X197141693Y-57977957D01*
X197610875Y-58172778D01*
X198118897Y-58173221D01*
X198588417Y-57979219D01*
X198775071Y-57792891D01*
X199011829Y-57792891D01*
X198781297Y-57888145D01*
X198604765Y-58064369D01*
X198509109Y-58294735D01*
X198508891Y-58544171D01*
X198604145Y-58774703D01*
X198780369Y-58951235D01*
X199010735Y-59046891D01*
X199260171Y-59047109D01*
X199490703Y-58951855D01*
X199633916Y-58808891D01*
X216283829Y-58808891D01*
X216053297Y-58904145D01*
X215876765Y-59080369D01*
X215781109Y-59310735D01*
X215780891Y-59560171D01*
X215876145Y-59790703D01*
X216052369Y-59967235D01*
X216282735Y-60062891D01*
X216532171Y-60063109D01*
X216762703Y-59967855D01*
X216939235Y-59791631D01*
X217034891Y-59561265D01*
X217035109Y-59311829D01*
X216939855Y-59081297D01*
X216763631Y-58904765D01*
X216533265Y-58809109D01*
X216283829Y-58808891D01*
X199633916Y-58808891D01*
X199667235Y-58775631D01*
X199762891Y-58545265D01*
X199763109Y-58295829D01*
X199667855Y-58065297D01*
X199491631Y-57888765D01*
X199261265Y-57793109D01*
X199011829Y-57792891D01*
X198775071Y-57792891D01*
X198947957Y-57620307D01*
X199136223Y-57166912D01*
X199322781Y-57618417D01*
X199681693Y-57977957D01*
X200150875Y-58172778D01*
X200658897Y-58173221D01*
X201128417Y-57979219D01*
X201487957Y-57620307D01*
X201682778Y-57151125D01*
X201683221Y-56643103D01*
X201489219Y-56173583D01*
X201130307Y-55814043D01*
X200661125Y-55619222D01*
X200153103Y-55618779D01*
X199683583Y-55812781D01*
X199324043Y-56171693D01*
X199135777Y-56625088D01*
X198949219Y-56173583D01*
X198590307Y-55814043D01*
X198121125Y-55619222D01*
X197613103Y-55618779D01*
X197143583Y-55812781D01*
X196784043Y-56171693D01*
X196595777Y-56625088D01*
X196409219Y-56173583D01*
X196050307Y-55814043D01*
X195596912Y-55625777D01*
X196048417Y-55439219D01*
X196407957Y-55080307D01*
X196602778Y-54611125D01*
X196603221Y-54103103D01*
X196409219Y-53633583D01*
X196050307Y-53274043D01*
X195596912Y-53085777D01*
X196048417Y-52899219D01*
X196407957Y-52540307D01*
X196602778Y-52071125D01*
X196603221Y-51563103D01*
X196409219Y-51093583D01*
X196050307Y-50734043D01*
X195596912Y-50545777D01*
X196048417Y-50359219D01*
X196407957Y-50000307D01*
X196602778Y-49531125D01*
X196603221Y-49023103D01*
X196409219Y-48553583D01*
X196050307Y-48194043D01*
X195596912Y-48005777D01*
X196048417Y-47819219D01*
X196407957Y-47460307D01*
X196602778Y-46991125D01*
X196603221Y-46483103D01*
X196409219Y-46013583D01*
X196050307Y-45654043D01*
X195596912Y-45465777D01*
X196048417Y-45279219D01*
X196407957Y-44920307D01*
X196602778Y-44451125D01*
X196603221Y-43943103D01*
X196448600Y-43568891D01*
X204091829Y-43568891D01*
X203861297Y-43664145D01*
X203684765Y-43840369D01*
X203589109Y-44070735D01*
X203588891Y-44320171D01*
X203684145Y-44550703D01*
X203860369Y-44727235D01*
X204090735Y-44822891D01*
X204340171Y-44823109D01*
X204570703Y-44727855D01*
X204747235Y-44551631D01*
X204842891Y-44321265D01*
X204843109Y-44071829D01*
X204747855Y-43841297D01*
X204571631Y-43664765D01*
X204341265Y-43569109D01*
X204091829Y-43568891D01*
X196448600Y-43568891D01*
X196409219Y-43473583D01*
X196050307Y-43114043D01*
X195596912Y-42925777D01*
X196048417Y-42739219D01*
X196407957Y-42380307D01*
X196602778Y-41911125D01*
X196603221Y-41403103D01*
X196448600Y-41028891D01*
X204091829Y-41028891D01*
X203861297Y-41124145D01*
X203684765Y-41300369D01*
X203589109Y-41530735D01*
X203588891Y-41780171D01*
X203684145Y-42010703D01*
X203860369Y-42187235D01*
X204090735Y-42282891D01*
X204340171Y-42283109D01*
X204570703Y-42187855D01*
X204747235Y-42011631D01*
X204842891Y-41781265D01*
X204843109Y-41531829D01*
X204747855Y-41301297D01*
X204571631Y-41124765D01*
X204341265Y-41029109D01*
X204091829Y-41028891D01*
X196448600Y-41028891D01*
X196409219Y-40933583D01*
X196050307Y-40574043D01*
X195596912Y-40385777D01*
X196048417Y-40199219D01*
X196407957Y-39840307D01*
X196602778Y-39371125D01*
X196603221Y-38863103D01*
X196409219Y-38393583D01*
X196050307Y-38034043D01*
X195596912Y-37845777D01*
X196048417Y-37659219D01*
X196407957Y-37300307D01*
X196602778Y-36831125D01*
X196603221Y-36323103D01*
X196409219Y-35853583D01*
X196050307Y-35494043D01*
X195596912Y-35305777D01*
X196048417Y-35119219D01*
X196407957Y-34760307D01*
X196602778Y-34291125D01*
X196603221Y-33783103D01*
X196553551Y-33662891D01*
X197995829Y-33662891D01*
X197765297Y-33758145D01*
X197588765Y-33934369D01*
X197493109Y-34164735D01*
X197492891Y-34414171D01*
X197588145Y-34644703D01*
X197764369Y-34821235D01*
X197994735Y-34916891D01*
X198244171Y-34917109D01*
X198474703Y-34821855D01*
X198651235Y-34645631D01*
X198746891Y-34415265D01*
X198747109Y-34165829D01*
X198651855Y-33935297D01*
X198475631Y-33758765D01*
X198245265Y-33663109D01*
X197995829Y-33662891D01*
X196553551Y-33662891D01*
X196409219Y-33313583D01*
X196050307Y-32954043D01*
X195596912Y-32765777D01*
X196048417Y-32579219D01*
X196407957Y-32220307D01*
X196602778Y-31751125D01*
X196603221Y-31243103D01*
X196409219Y-30773583D01*
X196050307Y-30414043D01*
X195596912Y-30225777D01*
X196048417Y-30039219D01*
X196407957Y-29680307D01*
X196602778Y-29211125D01*
X196603221Y-28703103D01*
X196409219Y-28233583D01*
X196050307Y-27874043D01*
X195596912Y-27685777D01*
X195613848Y-27678779D01*
X210313103Y-27678779D01*
X209843583Y-27872781D01*
X209484043Y-28231693D01*
X209289222Y-28700875D01*
X209288779Y-29208897D01*
X209482781Y-29678417D01*
X209841693Y-30037957D01*
X210295088Y-30226223D01*
X209843583Y-30412781D01*
X209484043Y-30771693D01*
X209289222Y-31240875D01*
X209288779Y-31748897D01*
X209482781Y-32218417D01*
X209841693Y-32577957D01*
X210295088Y-32766223D01*
X209843583Y-32952781D01*
X209484043Y-33311693D01*
X209289222Y-33780875D01*
X209288779Y-34288897D01*
X209482781Y-34758417D01*
X209841693Y-35117957D01*
X210295088Y-35306223D01*
X209843583Y-35492781D01*
X209484043Y-35851693D01*
X209289222Y-36320875D01*
X209288779Y-36828897D01*
X209482781Y-37298417D01*
X209841693Y-37657957D01*
X210295088Y-37846223D01*
X209843583Y-38032781D01*
X209484043Y-38391693D01*
X209289222Y-38860875D01*
X209288779Y-39368897D01*
X209482781Y-39838417D01*
X209841693Y-40197957D01*
X210295088Y-40386223D01*
X209843583Y-40572781D01*
X209484043Y-40931693D01*
X209289222Y-41400875D01*
X209288779Y-41908897D01*
X209482781Y-42378417D01*
X209841693Y-42737957D01*
X210295088Y-42926223D01*
X209843583Y-43112781D01*
X209484043Y-43471693D01*
X209289222Y-43940875D01*
X209288779Y-44448897D01*
X209482781Y-44918417D01*
X209841693Y-45277957D01*
X210295088Y-45466223D01*
X209843583Y-45652781D01*
X209484043Y-46011693D01*
X209289222Y-46480875D01*
X209288779Y-46988897D01*
X209482781Y-47458417D01*
X209841693Y-47817957D01*
X210295088Y-48006223D01*
X209843583Y-48192781D01*
X209484043Y-48551693D01*
X209289222Y-49020875D01*
X209288779Y-49528897D01*
X209482781Y-49998417D01*
X209841693Y-50357957D01*
X210295088Y-50546223D01*
X209843583Y-50732781D01*
X209484043Y-51091693D01*
X209289222Y-51560875D01*
X209288779Y-52068897D01*
X209482781Y-52538417D01*
X209841693Y-52897957D01*
X210295088Y-53086223D01*
X209843583Y-53272781D01*
X209484043Y-53631693D01*
X209289222Y-54100875D01*
X209288779Y-54608897D01*
X209482781Y-55078417D01*
X209841693Y-55437957D01*
X210295088Y-55626223D01*
X209843583Y-55812781D01*
X209484043Y-56171693D01*
X209295777Y-56625088D01*
X209109219Y-56173583D01*
X208750307Y-55814043D01*
X208281125Y-55619222D01*
X207773103Y-55618779D01*
X207303583Y-55812781D01*
X206944043Y-56171693D01*
X206755777Y-56625088D01*
X206569219Y-56173583D01*
X206210307Y-55814043D01*
X205741125Y-55619222D01*
X205233103Y-55618779D01*
X204763583Y-55812781D01*
X204404043Y-56171693D01*
X204209222Y-56640875D01*
X204208779Y-57148897D01*
X204402781Y-57618417D01*
X204761693Y-57977957D01*
X205230875Y-58172778D01*
X205738897Y-58173221D01*
X206208417Y-57979219D01*
X206567957Y-57620307D01*
X206756223Y-57166912D01*
X206942781Y-57618417D01*
X207301693Y-57977957D01*
X207770875Y-58172778D01*
X208278897Y-58173221D01*
X208748417Y-57979219D01*
X209107957Y-57620307D01*
X209296223Y-57166912D01*
X209482781Y-57618417D01*
X209841693Y-57977957D01*
X210310875Y-58172778D01*
X210818897Y-58173221D01*
X211288417Y-57979219D01*
X211647957Y-57620307D01*
X211842778Y-57151125D01*
X211843221Y-56643103D01*
X211649219Y-56173583D01*
X211290307Y-55814043D01*
X210836912Y-55625777D01*
X211288417Y-55439219D01*
X211647957Y-55080307D01*
X211842778Y-54611125D01*
X211843221Y-54103103D01*
X211649219Y-53633583D01*
X211290307Y-53274043D01*
X211009378Y-53157391D01*
X215585329Y-53157391D01*
X215354797Y-53252645D01*
X215178265Y-53428869D01*
X215082609Y-53659235D01*
X215082391Y-53908671D01*
X215177645Y-54139203D01*
X215353869Y-54315735D01*
X215584235Y-54411391D01*
X215833671Y-54411609D01*
X216064203Y-54316355D01*
X216240735Y-54140131D01*
X216336391Y-53909765D01*
X216336609Y-53660329D01*
X216241355Y-53429797D01*
X216065131Y-53253265D01*
X215834765Y-53157609D01*
X215585329Y-53157391D01*
X211009378Y-53157391D01*
X210836912Y-53085777D01*
X211288417Y-52899219D01*
X211647957Y-52540307D01*
X211842778Y-52071125D01*
X211843221Y-51563103D01*
X211649219Y-51093583D01*
X211290307Y-50734043D01*
X210836912Y-50545777D01*
X211288417Y-50359219D01*
X211647957Y-50000307D01*
X211842778Y-49531125D01*
X211843104Y-49156891D01*
X229237829Y-49156891D01*
X229007297Y-49252145D01*
X228830765Y-49428369D01*
X228735109Y-49658735D01*
X228734891Y-49908171D01*
X228830145Y-50138703D01*
X229006369Y-50315235D01*
X229236735Y-50410891D01*
X229486171Y-50411109D01*
X229716703Y-50315855D01*
X229893235Y-50139631D01*
X229988891Y-49909265D01*
X229989104Y-49664891D01*
X244477829Y-49664891D01*
X244247297Y-49760145D01*
X244070765Y-49936369D01*
X243975109Y-50166735D01*
X243974891Y-50416171D01*
X244070145Y-50646703D01*
X244246369Y-50823235D01*
X244476735Y-50918891D01*
X244726171Y-50919109D01*
X244956703Y-50823855D01*
X245133235Y-50647631D01*
X245228891Y-50417265D01*
X245229109Y-50167829D01*
X245133855Y-49937297D01*
X244957631Y-49760765D01*
X244727265Y-49665109D01*
X244477829Y-49664891D01*
X229989104Y-49664891D01*
X229989109Y-49659829D01*
X229893855Y-49429297D01*
X229717631Y-49252765D01*
X229487265Y-49157109D01*
X229237829Y-49156891D01*
X211843104Y-49156891D01*
X211843221Y-49023103D01*
X211649219Y-48553583D01*
X211290307Y-48194043D01*
X210836912Y-48005777D01*
X211288417Y-47819219D01*
X211475071Y-47632891D01*
X221109829Y-47632891D01*
X220879297Y-47728145D01*
X220702765Y-47904369D01*
X220607109Y-48134735D01*
X220606891Y-48384171D01*
X220702145Y-48614703D01*
X220878369Y-48791235D01*
X221108735Y-48886891D01*
X221358171Y-48887109D01*
X221588703Y-48791855D01*
X221765235Y-48615631D01*
X221860891Y-48385265D01*
X221861109Y-48135829D01*
X221765855Y-47905297D01*
X221589631Y-47728765D01*
X221359265Y-47633109D01*
X221109829Y-47632891D01*
X248287829Y-47632891D01*
X248057297Y-47728145D01*
X247880765Y-47904369D01*
X247785109Y-48134735D01*
X247784891Y-48384171D01*
X247880145Y-48614703D01*
X248056369Y-48791235D01*
X248286735Y-48886891D01*
X248536171Y-48887109D01*
X248766703Y-48791855D01*
X248943235Y-48615631D01*
X249038891Y-48385265D01*
X249039109Y-48135829D01*
X248943855Y-47905297D01*
X248767631Y-47728765D01*
X248537265Y-47633109D01*
X248287829Y-47632891D01*
X221109829Y-47632891D01*
X221109829Y-47632891D01*
X211475071Y-47632891D01*
X211647957Y-47460307D01*
X211842778Y-46991125D01*
X211843221Y-46483103D01*
X211793551Y-46362891D01*
X242445829Y-46362891D01*
X242215297Y-46458145D01*
X242038765Y-46634369D01*
X241943109Y-46864735D01*
X241942891Y-47114171D01*
X242038145Y-47344703D01*
X242214369Y-47521235D01*
X242444735Y-47616891D01*
X242694171Y-47617109D01*
X242924703Y-47521855D01*
X243101235Y-47345631D01*
X243196891Y-47115265D01*
X243197109Y-46865829D01*
X243101855Y-46635297D01*
X242925631Y-46458765D01*
X242695265Y-46363109D01*
X242445829Y-46362891D01*
X211793551Y-46362891D01*
X211649219Y-46013583D01*
X211290307Y-45654043D01*
X210836912Y-45465777D01*
X211288417Y-45279219D01*
X211647957Y-44920307D01*
X211842778Y-44451125D01*
X211843221Y-43943103D01*
X211649219Y-43473583D01*
X211290307Y-43114043D01*
X211272891Y-43106811D01*
X221018335Y-43106811D01*
X220617937Y-43272252D01*
X220311329Y-43578326D01*
X220145189Y-43978434D01*
X220144811Y-44411665D01*
X220310252Y-44812063D01*
X220616326Y-45118671D01*
X221016434Y-45284811D01*
X221449665Y-45285189D01*
X221850063Y-45119748D01*
X221876966Y-45092891D01*
X229237829Y-45092891D01*
X229007297Y-45188145D01*
X228830765Y-45364369D01*
X228735109Y-45594735D01*
X228734891Y-45844171D01*
X228830145Y-46074703D01*
X229006369Y-46251235D01*
X229236735Y-46346891D01*
X229486171Y-46347109D01*
X229716703Y-46251855D01*
X229893235Y-46075631D01*
X229988891Y-45845265D01*
X229989109Y-45595829D01*
X229893855Y-45365297D01*
X229717631Y-45188765D01*
X229487265Y-45093109D01*
X229237829Y-45092891D01*
X221876966Y-45092891D01*
X222156671Y-44813674D01*
X222322811Y-44413566D01*
X222323189Y-43980335D01*
X222157748Y-43579937D01*
X222146722Y-43568891D01*
X235333829Y-43568891D01*
X235103297Y-43664145D01*
X234926765Y-43840369D01*
X234831109Y-44070735D01*
X234830891Y-44320171D01*
X234926145Y-44550703D01*
X235102369Y-44727235D01*
X235332735Y-44822891D01*
X235582171Y-44823109D01*
X235812703Y-44727855D01*
X235989235Y-44551631D01*
X236084891Y-44321265D01*
X236085109Y-44071829D01*
X235989855Y-43841297D01*
X235813631Y-43664765D01*
X235583265Y-43569109D01*
X235333829Y-43568891D01*
X222146722Y-43568891D01*
X221851674Y-43273329D01*
X221451566Y-43107189D01*
X221018335Y-43106811D01*
X211272891Y-43106811D01*
X210836912Y-42925777D01*
X211288417Y-42739219D01*
X211647957Y-42380307D01*
X211842778Y-41911125D01*
X211843221Y-41403103D01*
X211649219Y-40933583D01*
X211290307Y-40574043D01*
X211272891Y-40566811D01*
X221018335Y-40566811D01*
X220617937Y-40732252D01*
X220311329Y-41038326D01*
X220145189Y-41438434D01*
X220144811Y-41871665D01*
X220310252Y-42272063D01*
X220616326Y-42578671D01*
X221016434Y-42744811D01*
X221449665Y-42745189D01*
X221850063Y-42579748D01*
X222156671Y-42273674D01*
X222322811Y-41873566D01*
X222322883Y-41790891D01*
X225681829Y-41790891D01*
X225451297Y-41886145D01*
X225274765Y-42062369D01*
X225179109Y-42292735D01*
X225178891Y-42542171D01*
X225274145Y-42772703D01*
X225450369Y-42949235D01*
X225680735Y-43044891D01*
X225930171Y-43045109D01*
X226160703Y-42949855D01*
X226337235Y-42773631D01*
X226432891Y-42543265D01*
X226433109Y-42293829D01*
X226337855Y-42063297D01*
X226319482Y-42044891D01*
X234063829Y-42044891D01*
X233833297Y-42140145D01*
X233656765Y-42316369D01*
X233561109Y-42546735D01*
X233560891Y-42796171D01*
X233656145Y-43026703D01*
X233832369Y-43203235D01*
X234062735Y-43298891D01*
X234312171Y-43299109D01*
X234542703Y-43203855D01*
X234719235Y-43027631D01*
X234814891Y-42797265D01*
X234815109Y-42547829D01*
X234719855Y-42317297D01*
X234543631Y-42140765D01*
X234313265Y-42045109D01*
X234063829Y-42044891D01*
X226319482Y-42044891D01*
X226161631Y-41886765D01*
X225931265Y-41791109D01*
X225681829Y-41790891D01*
X222322883Y-41790891D01*
X222323189Y-41440335D01*
X222157748Y-41039937D01*
X221851674Y-40733329D01*
X221451566Y-40567189D01*
X221018335Y-40566811D01*
X211272891Y-40566811D01*
X210836912Y-40385777D01*
X211288417Y-40199219D01*
X211647957Y-39840307D01*
X211842778Y-39371125D01*
X211843221Y-38863103D01*
X211649219Y-38393583D01*
X211290307Y-38034043D01*
X211272891Y-38026811D01*
X221018335Y-38026811D01*
X220617937Y-38192252D01*
X220311329Y-38498326D01*
X220145189Y-38898434D01*
X220144811Y-39331665D01*
X220310252Y-39732063D01*
X220616326Y-40038671D01*
X221016434Y-40204811D01*
X221449665Y-40205189D01*
X221850063Y-40039748D01*
X221876966Y-40012891D01*
X232539829Y-40012891D01*
X232309297Y-40108145D01*
X232132765Y-40284369D01*
X232037109Y-40514735D01*
X232036891Y-40764171D01*
X232132145Y-40994703D01*
X232308369Y-41171235D01*
X232538735Y-41266891D01*
X232788171Y-41267109D01*
X233018703Y-41171855D01*
X233195235Y-40995631D01*
X233290891Y-40765265D01*
X233291104Y-40520891D01*
X239397829Y-40520891D01*
X239167297Y-40616145D01*
X238990765Y-40792369D01*
X238895109Y-41022735D01*
X238894891Y-41272171D01*
X238990145Y-41502703D01*
X239166369Y-41679235D01*
X239396735Y-41774891D01*
X239646171Y-41775109D01*
X239876703Y-41679855D01*
X240019916Y-41536891D01*
X249557829Y-41536891D01*
X249327297Y-41632145D01*
X249150765Y-41808369D01*
X249055109Y-42038735D01*
X249054891Y-42288171D01*
X249150145Y-42518703D01*
X249326369Y-42695235D01*
X249556735Y-42790891D01*
X249806171Y-42791109D01*
X250036703Y-42695855D01*
X250213235Y-42519631D01*
X250308891Y-42289265D01*
X250309109Y-42039829D01*
X250213855Y-41809297D01*
X250037631Y-41632765D01*
X249807265Y-41537109D01*
X249557829Y-41536891D01*
X240019916Y-41536891D01*
X240053235Y-41503631D01*
X240148891Y-41273265D01*
X240149109Y-41023829D01*
X240053855Y-40793297D01*
X239877631Y-40616765D01*
X239647265Y-40521109D01*
X239397829Y-40520891D01*
X233291104Y-40520891D01*
X233291109Y-40515829D01*
X233195855Y-40285297D01*
X233019631Y-40108765D01*
X232789265Y-40013109D01*
X232539829Y-40012891D01*
X221876966Y-40012891D01*
X222156671Y-39733674D01*
X222322811Y-39333566D01*
X222323189Y-38900335D01*
X222157748Y-38499937D01*
X221851674Y-38193329D01*
X221451566Y-38027189D01*
X221018335Y-38026811D01*
X211272891Y-38026811D01*
X210836912Y-37845777D01*
X211288417Y-37659219D01*
X211647957Y-37300307D01*
X211842778Y-36831125D01*
X211843221Y-36323103D01*
X211688600Y-35948891D01*
X225681829Y-35948891D01*
X225451297Y-36044145D01*
X225274765Y-36220369D01*
X225179109Y-36450735D01*
X225178891Y-36700171D01*
X225274145Y-36930703D01*
X225450369Y-37107235D01*
X225680735Y-37202891D01*
X225930171Y-37203109D01*
X226160703Y-37107855D01*
X226257916Y-37010811D01*
X245910335Y-37010811D01*
X245509937Y-37176252D01*
X245203329Y-37482326D01*
X245037189Y-37882434D01*
X245036811Y-38315665D01*
X245202252Y-38716063D01*
X245508326Y-39022671D01*
X245908434Y-39188811D01*
X246341665Y-39189189D01*
X246742063Y-39023748D01*
X247048671Y-38717674D01*
X247214811Y-38317566D01*
X247215189Y-37884335D01*
X247049748Y-37483937D01*
X246743674Y-37177329D01*
X246343566Y-37011189D01*
X245910335Y-37010811D01*
X248450335Y-37010811D01*
X248049937Y-37176252D01*
X247743329Y-37482326D01*
X247577189Y-37882434D01*
X247576811Y-38315665D01*
X247742252Y-38716063D01*
X248048326Y-39022671D01*
X248448434Y-39188811D01*
X248881665Y-39189189D01*
X249282063Y-39023748D01*
X249588671Y-38717674D01*
X249754811Y-38317566D01*
X249755189Y-37884335D01*
X249589748Y-37483937D01*
X249283674Y-37177329D01*
X248883566Y-37011189D01*
X248450335Y-37010811D01*
X245910335Y-37010811D01*
X245910335Y-37010811D01*
X226257916Y-37010811D01*
X226337235Y-36931631D01*
X226432891Y-36701265D01*
X226433109Y-36451829D01*
X226337855Y-36221297D01*
X226161631Y-36044765D01*
X225931265Y-35949109D01*
X225681829Y-35948891D01*
X211688600Y-35948891D01*
X211649219Y-35853583D01*
X211290307Y-35494043D01*
X210836912Y-35305777D01*
X211288417Y-35119219D01*
X211647957Y-34760307D01*
X211842778Y-34291125D01*
X211843221Y-33783103D01*
X211649219Y-33313583D01*
X211290307Y-32954043D01*
X210836912Y-32765777D01*
X211288417Y-32579219D01*
X211647957Y-32220307D01*
X211842778Y-31751125D01*
X211843064Y-31422811D01*
X221018335Y-31422811D01*
X220617937Y-31588252D01*
X220311329Y-31894326D01*
X220145189Y-32294434D01*
X220144811Y-32727665D01*
X220310252Y-33128063D01*
X220616326Y-33434671D01*
X221016434Y-33600811D01*
X221449665Y-33601189D01*
X221850063Y-33435748D01*
X222156671Y-33129674D01*
X222322811Y-32729566D01*
X222323189Y-32296335D01*
X222157748Y-31895937D01*
X221851674Y-31589329D01*
X221451566Y-31423189D01*
X221018335Y-31422811D01*
X229146335Y-31422811D01*
X228745937Y-31588252D01*
X228439329Y-31894326D01*
X228273189Y-32294434D01*
X228272811Y-32727665D01*
X228438252Y-33128063D01*
X228744326Y-33434671D01*
X229144434Y-33600811D01*
X229577665Y-33601189D01*
X229978063Y-33435748D01*
X230284671Y-33129674D01*
X230450811Y-32729566D01*
X230451189Y-32296335D01*
X230285748Y-31895937D01*
X229979674Y-31589329D01*
X229579566Y-31423189D01*
X229146335Y-31422811D01*
X221018335Y-31422811D01*
X221018335Y-31422811D01*
X211843064Y-31422811D01*
X211843221Y-31243103D01*
X211649219Y-30773583D01*
X211290307Y-30414043D01*
X210836912Y-30225777D01*
X211288417Y-30039219D01*
X211647957Y-29680307D01*
X211842778Y-29211125D01*
X211843064Y-28882811D01*
X221018335Y-28882811D01*
X220617937Y-29048252D01*
X220311329Y-29354326D01*
X220145189Y-29754434D01*
X220144811Y-30187665D01*
X220310252Y-30588063D01*
X220616326Y-30894671D01*
X221016434Y-31060811D01*
X221449665Y-31061189D01*
X221850063Y-30895748D01*
X222156671Y-30589674D01*
X222322811Y-30189566D01*
X222323189Y-29756335D01*
X222157748Y-29355937D01*
X221851674Y-29049329D01*
X221451566Y-28883189D01*
X221018335Y-28882811D01*
X229146335Y-28882811D01*
X228745937Y-29048252D01*
X228439329Y-29354326D01*
X228273189Y-29754434D01*
X228272811Y-30187665D01*
X228438252Y-30588063D01*
X228744326Y-30894671D01*
X229144434Y-31060811D01*
X229577665Y-31061189D01*
X229978063Y-30895748D01*
X230284671Y-30589674D01*
X230379670Y-30360891D01*
X235841829Y-30360891D01*
X235611297Y-30456145D01*
X235434765Y-30632369D01*
X235339109Y-30862735D01*
X235338891Y-31112171D01*
X235434145Y-31342703D01*
X235610369Y-31519235D01*
X235840735Y-31614891D01*
X236090171Y-31615109D01*
X236320703Y-31519855D01*
X236417916Y-31422811D01*
X240830335Y-31422811D01*
X240429937Y-31588252D01*
X240123329Y-31894326D01*
X239957189Y-32294434D01*
X239956811Y-32727665D01*
X240122252Y-33128063D01*
X240428326Y-33434671D01*
X240828434Y-33600811D01*
X241261665Y-33601189D01*
X241662063Y-33435748D01*
X241968671Y-33129674D01*
X242134811Y-32729566D01*
X242135189Y-32296335D01*
X241969748Y-31895937D01*
X241663674Y-31589329D01*
X241263566Y-31423189D01*
X240830335Y-31422811D01*
X236417916Y-31422811D01*
X236497235Y-31343631D01*
X236592891Y-31113265D01*
X236593109Y-30863829D01*
X236497855Y-30633297D01*
X236321631Y-30456765D01*
X236091265Y-30361109D01*
X235841829Y-30360891D01*
X230379670Y-30360891D01*
X230450811Y-30189566D01*
X230451189Y-29756335D01*
X230285748Y-29355937D01*
X229979674Y-29049329D01*
X229579566Y-28883189D01*
X229146335Y-28882811D01*
X240830335Y-28882811D01*
X240429937Y-29048252D01*
X240123329Y-29354326D01*
X239957189Y-29754434D01*
X239956811Y-30187665D01*
X240122252Y-30588063D01*
X240428326Y-30894671D01*
X240828434Y-31060811D01*
X241261665Y-31061189D01*
X241662063Y-30895748D01*
X241968671Y-30589674D01*
X242063670Y-30360891D01*
X246509829Y-30360891D01*
X246279297Y-30456145D01*
X246102765Y-30632369D01*
X246007109Y-30862735D01*
X246006891Y-31112171D01*
X246102145Y-31342703D01*
X246278369Y-31519235D01*
X246508735Y-31614891D01*
X246758171Y-31615109D01*
X246988703Y-31519855D01*
X247085916Y-31422811D01*
X250990335Y-31422811D01*
X250589937Y-31588252D01*
X250283329Y-31894326D01*
X250117189Y-32294434D01*
X250116811Y-32727665D01*
X250282252Y-33128063D01*
X250588326Y-33434671D01*
X250988434Y-33600811D01*
X251421665Y-33601189D01*
X251822063Y-33435748D01*
X252128671Y-33129674D01*
X252294811Y-32729566D01*
X252295189Y-32296335D01*
X252129748Y-31895937D01*
X251823674Y-31589329D01*
X251423566Y-31423189D01*
X250990335Y-31422811D01*
X247085916Y-31422811D01*
X247165235Y-31343631D01*
X247260891Y-31113265D01*
X247261109Y-30863829D01*
X247165855Y-30633297D01*
X246989631Y-30456765D01*
X246759265Y-30361109D01*
X246509829Y-30360891D01*
X242063670Y-30360891D01*
X242134811Y-30189566D01*
X242135189Y-29756335D01*
X241969748Y-29355937D01*
X241663674Y-29049329D01*
X241263566Y-28883189D01*
X240830335Y-28882811D01*
X250990335Y-28882811D01*
X250589937Y-29048252D01*
X250283329Y-29354326D01*
X250117189Y-29754434D01*
X250116811Y-30187665D01*
X250282252Y-30588063D01*
X250588326Y-30894671D01*
X250988434Y-31060811D01*
X251421665Y-31061189D01*
X251822063Y-30895748D01*
X252128671Y-30589674D01*
X252294811Y-30189566D01*
X252295189Y-29756335D01*
X252129748Y-29355937D01*
X251823674Y-29049329D01*
X251423566Y-28883189D01*
X250990335Y-28882811D01*
X240830335Y-28882811D01*
X240830335Y-28882811D01*
X229146335Y-28882811D01*
X229146335Y-28882811D01*
X221018335Y-28882811D01*
X221018335Y-28882811D01*
X211843064Y-28882811D01*
X211843221Y-28703103D01*
X211649219Y-28233583D01*
X211290307Y-27874043D01*
X210821125Y-27679222D01*
X210313103Y-27678779D01*
X195613848Y-27678779D01*
X196048417Y-27499219D01*
X196407957Y-27140307D01*
X196602778Y-26671125D01*
X196603221Y-26163103D01*
X196409219Y-25693583D01*
X196050307Y-25334043D01*
X195788666Y-25225400D01*
X214098675Y-25225400D01*
X213643052Y-25316029D01*
X213256794Y-25574119D01*
X212998704Y-25960377D01*
X212908075Y-26416000D01*
X212998704Y-26871623D01*
X213256794Y-27257881D01*
X213643052Y-27515971D01*
X214098675Y-27606600D01*
X214145325Y-27606600D01*
X214600948Y-27515971D01*
X214987206Y-27257881D01*
X215245296Y-26871623D01*
X215335925Y-26416000D01*
X215245296Y-25960377D01*
X214987206Y-25574119D01*
X214600948Y-25316029D01*
X214145325Y-25225400D01*
X216638675Y-25225400D01*
X216183052Y-25316029D01*
X215796794Y-25574119D01*
X215538704Y-25960377D01*
X215448075Y-26416000D01*
X215538704Y-26871623D01*
X215796794Y-27257881D01*
X216183052Y-27515971D01*
X216638675Y-27606600D01*
X216685325Y-27606600D01*
X217140948Y-27515971D01*
X217527206Y-27257881D01*
X217785296Y-26871623D01*
X217875925Y-26416000D01*
X217861367Y-26342811D01*
X221018335Y-26342811D01*
X220617937Y-26508252D01*
X220311329Y-26814326D01*
X220145189Y-27214434D01*
X220144811Y-27647665D01*
X220310252Y-28048063D01*
X220616326Y-28354671D01*
X221016434Y-28520811D01*
X221449665Y-28521189D01*
X221850063Y-28355748D01*
X222156671Y-28049674D01*
X222322811Y-27649566D01*
X222323189Y-27216335D01*
X222157748Y-26815937D01*
X221851674Y-26509329D01*
X221451566Y-26343189D01*
X221018335Y-26342811D01*
X229146335Y-26342811D01*
X228745937Y-26508252D01*
X228439329Y-26814326D01*
X228273189Y-27214434D01*
X228272811Y-27647665D01*
X228438252Y-28048063D01*
X228744326Y-28354671D01*
X229144434Y-28520811D01*
X229577665Y-28521189D01*
X229978063Y-28355748D01*
X230284671Y-28049674D01*
X230450811Y-27649566D01*
X230451149Y-27262091D01*
X236299029Y-27262091D01*
X236068497Y-27357345D01*
X235891965Y-27533569D01*
X235796309Y-27763935D01*
X235796091Y-28013371D01*
X235891345Y-28243903D01*
X236067569Y-28420435D01*
X236297935Y-28516091D01*
X236547371Y-28516309D01*
X236777903Y-28421055D01*
X236954435Y-28244831D01*
X237050091Y-28014465D01*
X237050309Y-27765029D01*
X236955055Y-27534497D01*
X236778831Y-27357965D01*
X236670281Y-27312891D01*
X247017829Y-27312891D01*
X246787297Y-27408145D01*
X246610765Y-27584369D01*
X246515109Y-27814735D01*
X246514891Y-28064171D01*
X246610145Y-28294703D01*
X246786369Y-28471235D01*
X247016735Y-28566891D01*
X247266171Y-28567109D01*
X247496703Y-28471855D01*
X247673235Y-28295631D01*
X247768891Y-28065265D01*
X247769109Y-27815829D01*
X247673855Y-27585297D01*
X247497631Y-27408765D01*
X247267265Y-27313109D01*
X247017829Y-27312891D01*
X236670281Y-27312891D01*
X236548465Y-27262309D01*
X236299029Y-27262091D01*
X230451149Y-27262091D01*
X230451189Y-27216335D01*
X230285748Y-26815937D01*
X229979674Y-26509329D01*
X229579566Y-26343189D01*
X229146335Y-26342811D01*
X221018335Y-26342811D01*
X221018335Y-26342811D01*
X217861367Y-26342811D01*
X217785296Y-25960377D01*
X217527206Y-25574119D01*
X217140948Y-25316029D01*
X216685325Y-25225400D01*
X216638675Y-25225400D01*
X214145325Y-25225400D01*
X214145325Y-25225400D01*
X214098675Y-25225400D01*
X195788666Y-25225400D01*
X195581125Y-25139222D01*
X195073103Y-25138779D01*
X193328400Y-25138779D01*
X193378557Y-21978891D01*
X204599829Y-21978891D01*
X204369297Y-22074145D01*
X204192765Y-22250369D01*
X204097109Y-22480735D01*
X204096891Y-22730171D01*
X204192145Y-22960703D01*
X204368369Y-23137235D01*
X204598735Y-23232891D01*
X204848171Y-23233109D01*
X205078703Y-23137855D01*
X205255235Y-22961631D01*
X205350891Y-22731265D01*
X205351109Y-22481829D01*
X205255855Y-22251297D01*
X205079631Y-22074765D01*
X204849265Y-21979109D01*
X204599829Y-21978891D01*
X205869829Y-21978891D01*
X205639297Y-22074145D01*
X205462765Y-22250369D01*
X205367109Y-22480735D01*
X205366891Y-22730171D01*
X205462145Y-22960703D01*
X205638369Y-23137235D01*
X205868735Y-23232891D01*
X206118171Y-23233109D01*
X206348703Y-23137855D01*
X206525235Y-22961631D01*
X206620891Y-22731265D01*
X206621109Y-22481829D01*
X206525855Y-22251297D01*
X206349631Y-22074765D01*
X206119265Y-21979109D01*
X205869829Y-21978891D01*
X207139829Y-21978891D01*
X206909297Y-22074145D01*
X206732765Y-22250369D01*
X206637109Y-22480735D01*
X206636891Y-22730171D01*
X206732145Y-22960703D01*
X206908369Y-23137235D01*
X207138735Y-23232891D01*
X207388171Y-23233109D01*
X207618703Y-23137855D01*
X207795235Y-22961631D01*
X207890891Y-22731265D01*
X207891109Y-22481829D01*
X207795855Y-22251297D01*
X207619631Y-22074765D01*
X207389265Y-21979109D01*
X207139829Y-21978891D01*
X208663829Y-21978891D01*
X208433297Y-22074145D01*
X208256765Y-22250369D01*
X208161109Y-22480735D01*
X208160891Y-22730171D01*
X208256145Y-22960703D01*
X208432369Y-23137235D01*
X208662735Y-23232891D01*
X208912171Y-23233109D01*
X209142703Y-23137855D01*
X209319235Y-22961631D01*
X209414891Y-22731265D01*
X209415006Y-22598779D01*
X210313103Y-22598779D01*
X209843583Y-22792781D01*
X209484043Y-23151693D01*
X209289222Y-23620875D01*
X209288779Y-24128897D01*
X209482781Y-24598417D01*
X209841693Y-24957957D01*
X210310875Y-25152778D01*
X210818897Y-25153221D01*
X211288417Y-24959219D01*
X211647957Y-24600307D01*
X211842778Y-24131125D01*
X211843221Y-23623103D01*
X211649219Y-23153583D01*
X211290307Y-22794043D01*
X211028666Y-22685400D01*
X214098675Y-22685400D01*
X213643052Y-22776029D01*
X213256794Y-23034119D01*
X212998704Y-23420377D01*
X212908075Y-23876000D01*
X212998704Y-24331623D01*
X213256794Y-24717881D01*
X213643052Y-24975971D01*
X214098675Y-25066600D01*
X214145325Y-25066600D01*
X214600948Y-24975971D01*
X214987206Y-24717881D01*
X215245296Y-24331623D01*
X215335925Y-23876000D01*
X215245296Y-23420377D01*
X214987206Y-23034119D01*
X214600948Y-22776029D01*
X214145325Y-22685400D01*
X214098675Y-22685400D01*
X211028666Y-22685400D01*
X211013238Y-22678994D01*
X215798400Y-22678994D01*
X215673716Y-22703185D01*
X215564130Y-22775171D01*
X215490775Y-22883845D01*
X215464994Y-23012400D01*
X215464994Y-24739600D01*
X215489185Y-24864284D01*
X215561171Y-24973870D01*
X215669845Y-25047225D01*
X215798400Y-25073006D01*
X217525600Y-25073006D01*
X217650284Y-25048815D01*
X217759870Y-24976829D01*
X217833225Y-24868155D01*
X217859006Y-24739600D01*
X217859006Y-23012400D01*
X217834815Y-22887716D01*
X217762829Y-22778130D01*
X217654155Y-22704775D01*
X217525600Y-22678994D01*
X215798400Y-22678994D01*
X211013238Y-22678994D01*
X210821125Y-22599222D01*
X210313103Y-22598779D01*
X209415006Y-22598779D01*
X209415109Y-22481829D01*
X209319855Y-22251297D01*
X209143631Y-22074765D01*
X209008356Y-22018594D01*
X237490000Y-22018594D01*
X237365316Y-22042785D01*
X237255730Y-22114771D01*
X237182375Y-22223445D01*
X237156594Y-22352000D01*
X237156594Y-24384000D01*
X237180785Y-24508684D01*
X237252771Y-24618270D01*
X237361445Y-24691625D01*
X237490000Y-24717406D01*
X239522000Y-24717406D01*
X239646684Y-24693215D01*
X239756270Y-24621229D01*
X239829625Y-24512555D01*
X239855406Y-24384000D01*
X239855406Y-22352000D01*
X239831215Y-22227316D01*
X239759229Y-22117730D01*
X239650555Y-22044375D01*
X239522000Y-22018594D01*
X248158000Y-22018594D01*
X248033316Y-22042785D01*
X247923730Y-22114771D01*
X247850375Y-22223445D01*
X247824594Y-22352000D01*
X247824594Y-24384000D01*
X247848785Y-24508684D01*
X247920771Y-24618270D01*
X248029445Y-24691625D01*
X248158000Y-24717406D01*
X250190000Y-24717406D01*
X250314684Y-24693215D01*
X250424270Y-24621229D01*
X250497625Y-24512555D01*
X250523406Y-24384000D01*
X250523406Y-22352000D01*
X250499215Y-22227316D01*
X250427229Y-22117730D01*
X250318555Y-22044375D01*
X250190000Y-22018594D01*
X248158000Y-22018594D01*
X239522000Y-22018594D01*
X239522000Y-22018594D01*
X237490000Y-22018594D01*
X209008356Y-22018594D01*
X208913265Y-21979109D01*
X208663829Y-21978891D01*
X207139829Y-21978891D01*
X207139829Y-21978891D01*
X205869829Y-21978891D01*
X205869829Y-21978891D01*
X204599829Y-21978891D01*
X204599829Y-21978891D01*
X193378557Y-21978891D01*
X193415032Y-19681000D01*
X262259000Y-19681000D01*
X262259000Y-99191000D01*
X119249000Y-99191000D01*
X119249000Y-93922771D01*
X130857202Y-93922771D01*
X130369297Y-94124369D01*
X129995681Y-94497334D01*
X129793231Y-94984885D01*
X129792771Y-95512798D01*
X129994369Y-96000703D01*
X130367334Y-96374319D01*
X130854885Y-96576769D01*
X131382798Y-96577229D01*
X131870703Y-96375631D01*
X132244319Y-96002666D01*
X132446769Y-95515115D01*
X132447229Y-94987202D01*
X132245631Y-94499297D01*
X131872666Y-94125681D01*
X131385115Y-93923231D01*
X130857202Y-93922771D01*
X119249000Y-93922771D01*
X119249000Y-93916594D01*
X137120000Y-93916594D01*
X136995316Y-93940785D01*
X136885730Y-94012771D01*
X136812375Y-94121445D01*
X136786594Y-94250000D01*
X136786594Y-96250000D01*
X136810785Y-96374684D01*
X136882771Y-96484270D01*
X136991445Y-96557625D01*
X137120000Y-96583406D01*
X139120000Y-96583406D01*
X139244684Y-96559215D01*
X139354270Y-96487229D01*
X139427625Y-96378555D01*
X139453406Y-96250000D01*
X139453406Y-94250000D01*
X139429215Y-94125316D01*
X139357229Y-94015730D01*
X139248555Y-93942375D01*
X139150802Y-93922771D01*
X148129202Y-93922771D01*
X147641297Y-94124369D01*
X147267681Y-94497334D01*
X147065231Y-94984885D01*
X147064771Y-95512798D01*
X147266369Y-96000703D01*
X147639334Y-96374319D01*
X148126885Y-96576769D01*
X148654798Y-96577229D01*
X149142703Y-96375631D01*
X149516319Y-96002666D01*
X149718769Y-95515115D01*
X149719229Y-94987202D01*
X149517631Y-94499297D01*
X149144666Y-94125681D01*
X148657115Y-93923231D01*
X148129202Y-93922771D01*
X139150802Y-93922771D01*
X139120000Y-93916594D01*
X171664000Y-93916594D01*
X171539316Y-93940785D01*
X171429730Y-94012771D01*
X171356375Y-94121445D01*
X171330594Y-94250000D01*
X171330594Y-96250000D01*
X171354785Y-96374684D01*
X171426771Y-96484270D01*
X171535445Y-96557625D01*
X171664000Y-96583406D01*
X173664000Y-96583406D01*
X173788684Y-96559215D01*
X173898270Y-96487229D01*
X173971625Y-96378555D01*
X173997406Y-96250000D01*
X173997406Y-95902718D01*
X228530601Y-95902718D01*
X227930188Y-96150803D01*
X227470418Y-96609772D01*
X227221284Y-97209751D01*
X227220718Y-97859399D01*
X227468803Y-98459812D01*
X227927772Y-98919582D01*
X228527751Y-99168716D01*
X229177399Y-99169282D01*
X229777812Y-98921197D01*
X230237582Y-98462228D01*
X230486716Y-97862249D01*
X230487282Y-97212601D01*
X230239197Y-96612188D01*
X229780228Y-96152418D01*
X229180249Y-95903284D01*
X228530601Y-95902718D01*
X233610601Y-95902718D01*
X233010188Y-96150803D01*
X232550418Y-96609772D01*
X232301284Y-97209751D01*
X232300718Y-97859399D01*
X232548803Y-98459812D01*
X233007772Y-98919582D01*
X233607751Y-99168716D01*
X234257399Y-99169282D01*
X234857812Y-98921197D01*
X235317582Y-98462228D01*
X235566716Y-97862249D01*
X235567282Y-97212601D01*
X235319197Y-96612188D01*
X234860228Y-96152418D01*
X234260249Y-95903284D01*
X233610601Y-95902718D01*
X228530601Y-95902718D01*
X228530601Y-95902718D01*
X173997406Y-95902718D01*
X173997406Y-94250000D01*
X173973215Y-94125316D01*
X173901229Y-94015730D01*
X173792555Y-93942375D01*
X173664000Y-93916594D01*
X171664000Y-93916594D01*
X139120000Y-93916594D01*
X139120000Y-93916594D01*
X137120000Y-93916594D01*
X119249000Y-93916594D01*
X119249000Y-89034891D01*
X139067829Y-89034891D01*
X138837297Y-89130145D01*
X138660765Y-89306369D01*
X138565109Y-89536735D01*
X138564891Y-89786171D01*
X138660145Y-90016703D01*
X138836369Y-90193235D01*
X139066735Y-90288891D01*
X139316171Y-90289109D01*
X139546703Y-90193855D01*
X139723235Y-90017631D01*
X139818891Y-89787265D01*
X139819109Y-89537829D01*
X139723855Y-89307297D01*
X139547631Y-89130765D01*
X139317265Y-89035109D01*
X139067829Y-89034891D01*
X119249000Y-89034891D01*
X119249000Y-82430891D01*
X134241829Y-82430891D01*
X134011297Y-82526145D01*
X133834765Y-82702369D01*
X133739109Y-82932735D01*
X133738891Y-83182171D01*
X133834145Y-83412703D01*
X134010369Y-83589235D01*
X134240735Y-83684891D01*
X134490171Y-83685109D01*
X134720703Y-83589855D01*
X134897235Y-83413631D01*
X134992891Y-83183265D01*
X134993109Y-82933829D01*
X134897855Y-82703297D01*
X134721631Y-82526765D01*
X134491265Y-82431109D01*
X134241829Y-82430891D01*
X119249000Y-82430891D01*
X119249000Y-72524891D01*
X129669829Y-72524891D01*
X129439297Y-72620145D01*
X129262765Y-72796369D01*
X129167109Y-73026735D01*
X129166891Y-73276171D01*
X129262145Y-73506703D01*
X129438369Y-73683235D01*
X129668735Y-73778891D01*
X129918171Y-73779109D01*
X130148703Y-73683855D01*
X130325235Y-73507631D01*
X130420891Y-73277265D01*
X130421109Y-73027829D01*
X130325855Y-72797297D01*
X130149631Y-72620765D01*
X129919265Y-72525109D01*
X129669829Y-72524891D01*
X119249000Y-72524891D01*
X119249000Y-71501000D01*
X143764000Y-71501000D01*
X143715399Y-71510667D01*
X143674197Y-71538197D01*
X143646667Y-71579399D01*
X143637000Y-71628000D01*
X143637000Y-75565000D01*
X140208000Y-75565000D01*
X140159399Y-75574667D01*
X140118197Y-75602197D01*
X140090667Y-75643399D01*
X140081000Y-75692000D01*
X140081000Y-86360000D01*
X140090667Y-86408601D01*
X140118197Y-86449803D01*
X140159399Y-86477333D01*
X140208000Y-86487000D01*
X143637000Y-86487000D01*
X143637000Y-90424000D01*
X143646667Y-90472601D01*
X143674197Y-90513803D01*
X143715399Y-90541333D01*
X143764000Y-90551000D01*
X151892000Y-90551000D01*
X151940601Y-90541333D01*
X151981803Y-90513803D01*
X152009333Y-90472601D01*
X152019000Y-90424000D01*
X152019000Y-85280123D01*
X181905458Y-85280123D01*
X181509263Y-85443828D01*
X181205873Y-85746689D01*
X181041477Y-86142598D01*
X181041103Y-86571282D01*
X181204808Y-86967477D01*
X181507669Y-87270867D01*
X181903578Y-87435263D01*
X182332262Y-87435637D01*
X182728457Y-87271932D01*
X183031847Y-86969071D01*
X183196243Y-86573162D01*
X183196617Y-86144478D01*
X183032912Y-85748283D01*
X182730051Y-85444893D01*
X182334142Y-85280497D01*
X181905458Y-85280123D01*
X184445458Y-85280123D01*
X184049263Y-85443828D01*
X183745873Y-85746689D01*
X183581477Y-86142598D01*
X183581103Y-86571282D01*
X183744808Y-86967477D01*
X184047669Y-87270867D01*
X184443578Y-87435263D01*
X184872262Y-87435637D01*
X185268457Y-87271932D01*
X185571847Y-86969071D01*
X185674910Y-86720867D01*
X185776808Y-86967477D01*
X186079669Y-87270867D01*
X186475578Y-87435263D01*
X186904262Y-87435637D01*
X187300457Y-87271932D01*
X187603847Y-86969071D01*
X187768243Y-86573162D01*
X187768311Y-86494891D01*
X195709829Y-86494891D01*
X195479297Y-86590145D01*
X195302765Y-86766369D01*
X195207109Y-86996735D01*
X195206891Y-87246171D01*
X195302145Y-87476703D01*
X195478369Y-87653235D01*
X195708735Y-87748891D01*
X195958171Y-87749109D01*
X196188703Y-87653855D01*
X196365235Y-87477631D01*
X196460891Y-87247265D01*
X196461109Y-86997829D01*
X196365855Y-86767297D01*
X196189631Y-86590765D01*
X195959265Y-86495109D01*
X195709829Y-86494891D01*
X187768311Y-86494891D01*
X187768617Y-86144478D01*
X187604912Y-85748283D01*
X187302051Y-85444893D01*
X186906142Y-85280497D01*
X186477458Y-85280123D01*
X186081263Y-85443828D01*
X185777873Y-85746689D01*
X185674810Y-85994893D01*
X185572912Y-85748283D01*
X185270051Y-85444893D01*
X184874142Y-85280497D01*
X184445458Y-85280123D01*
X181905458Y-85280123D01*
X181905458Y-85280123D01*
X152019000Y-85280123D01*
X152019000Y-82328594D01*
X166990000Y-82328594D01*
X166865316Y-82352785D01*
X166755730Y-82424771D01*
X166682375Y-82533445D01*
X166656594Y-82662000D01*
X166656594Y-83962000D01*
X166680785Y-84086684D01*
X166752771Y-84196270D01*
X166861445Y-84269625D01*
X166990000Y-84295406D01*
X168290000Y-84295406D01*
X168414684Y-84271215D01*
X168524270Y-84199229D01*
X168597625Y-84090555D01*
X168623406Y-83962000D01*
X168623406Y-83202718D01*
X226370601Y-83202718D01*
X225770188Y-83450803D01*
X225310418Y-83909772D01*
X225061284Y-84509751D01*
X225060718Y-85159399D01*
X225308803Y-85759812D01*
X225767772Y-86219582D01*
X226367751Y-86468716D01*
X227017399Y-86469282D01*
X227617812Y-86221197D01*
X228077582Y-85762228D01*
X228326716Y-85162249D01*
X228327282Y-84512601D01*
X228079197Y-83912188D01*
X227620228Y-83452418D01*
X227020249Y-83203284D01*
X226370601Y-83202718D01*
X231070601Y-83202718D01*
X230470188Y-83450803D01*
X230010418Y-83909772D01*
X229761284Y-84509751D01*
X229760718Y-85159399D01*
X230008803Y-85759812D01*
X230467772Y-86219582D01*
X231067751Y-86468716D01*
X231717399Y-86469282D01*
X232317812Y-86221197D01*
X232777582Y-85762228D01*
X233026716Y-85162249D01*
X233027282Y-84512601D01*
X232779197Y-83912188D01*
X232320228Y-83452418D01*
X231720249Y-83203284D01*
X231070601Y-83202718D01*
X235770601Y-83202718D01*
X235170188Y-83450803D01*
X234710418Y-83909772D01*
X234461284Y-84509751D01*
X234460718Y-85159399D01*
X234708803Y-85759812D01*
X235167772Y-86219582D01*
X235767751Y-86468716D01*
X236417399Y-86469282D01*
X237017812Y-86221197D01*
X237477582Y-85762228D01*
X237726716Y-85162249D01*
X237727282Y-84512601D01*
X237479197Y-83912188D01*
X237020228Y-83452418D01*
X236420249Y-83203284D01*
X235770601Y-83202718D01*
X231070601Y-83202718D01*
X231070601Y-83202718D01*
X226370601Y-83202718D01*
X226370601Y-83202718D01*
X168623406Y-83202718D01*
X168623406Y-82662000D01*
X168599215Y-82537316D01*
X168527229Y-82427730D01*
X168418555Y-82354375D01*
X168290000Y-82328594D01*
X166990000Y-82328594D01*
X152019000Y-82328594D01*
X152019000Y-78366891D01*
X186565829Y-78366891D01*
X186335297Y-78462145D01*
X186158765Y-78638369D01*
X186063109Y-78868735D01*
X186062891Y-79118171D01*
X186158145Y-79348703D01*
X186334369Y-79525235D01*
X186564735Y-79620891D01*
X186814171Y-79621109D01*
X187044703Y-79525855D01*
X187221235Y-79349631D01*
X187316891Y-79119265D01*
X187317109Y-78869829D01*
X187221855Y-78639297D01*
X187045631Y-78462765D01*
X186815265Y-78367109D01*
X186565829Y-78366891D01*
X152019000Y-78366891D01*
X152019000Y-75826891D01*
X175643829Y-75826891D01*
X175413297Y-75922145D01*
X175236765Y-76098369D01*
X175141109Y-76328735D01*
X175140891Y-76578171D01*
X175236145Y-76808703D01*
X175412369Y-76985235D01*
X175642735Y-77080891D01*
X175892171Y-77081109D01*
X176122703Y-76985855D01*
X176265916Y-76842891D01*
X190375829Y-76842891D01*
X190145297Y-76938145D01*
X189968765Y-77114369D01*
X189873109Y-77344735D01*
X189872891Y-77594171D01*
X189968145Y-77824703D01*
X190144369Y-78001235D01*
X190374735Y-78096891D01*
X190624171Y-78097109D01*
X190854703Y-78001855D01*
X191031235Y-77825631D01*
X191126891Y-77595265D01*
X191127109Y-77345829D01*
X191031855Y-77115297D01*
X190855631Y-76938765D01*
X190625265Y-76843109D01*
X190375829Y-76842891D01*
X176265916Y-76842891D01*
X176299235Y-76809631D01*
X176327901Y-76740594D01*
X203566000Y-76740594D01*
X203441316Y-76764785D01*
X203331730Y-76836771D01*
X203258375Y-76945445D01*
X203232594Y-77074000D01*
X203232594Y-78374000D01*
X203256785Y-78498684D01*
X203328771Y-78608270D01*
X203437445Y-78681625D01*
X203566000Y-78707406D01*
X204866000Y-78707406D01*
X204990684Y-78683215D01*
X205100270Y-78611229D01*
X205173625Y-78502555D01*
X205199406Y-78374000D01*
X205199406Y-78264594D01*
X216012000Y-78264594D01*
X215887316Y-78288785D01*
X215777730Y-78360771D01*
X215704375Y-78469445D01*
X215678594Y-78598000D01*
X215678594Y-79898000D01*
X215702785Y-80022684D01*
X215774771Y-80132270D01*
X215883445Y-80205625D01*
X216012000Y-80231406D01*
X217312000Y-80231406D01*
X217436684Y-80207215D01*
X217546270Y-80135229D01*
X217619625Y-80026555D01*
X217645406Y-79898000D01*
X217645406Y-79876921D01*
X223520000Y-79876921D01*
X223088716Y-79962709D01*
X222723091Y-80207012D01*
X222478788Y-80572637D01*
X222393000Y-81003921D01*
X222393000Y-81048079D01*
X222478788Y-81479363D01*
X222723091Y-81844988D01*
X223088716Y-82089291D01*
X223520000Y-82175079D01*
X223550561Y-82169000D01*
X240792000Y-82169000D01*
X240743399Y-82178667D01*
X240702197Y-82206197D01*
X240674667Y-82247399D01*
X240665000Y-82296000D01*
X240665000Y-85217000D01*
X238760000Y-85217000D01*
X238711399Y-85226667D01*
X238670197Y-85254197D01*
X238642667Y-85295399D01*
X238633000Y-85344000D01*
X238633000Y-92964000D01*
X238642667Y-93012601D01*
X238670197Y-93053803D01*
X238711399Y-93081333D01*
X238760000Y-93091000D01*
X246557185Y-93091000D01*
X246556813Y-93517289D01*
X246720431Y-93913275D01*
X247023132Y-94216504D01*
X247418832Y-94380813D01*
X247847289Y-94381187D01*
X248243275Y-94217569D01*
X248546504Y-93914868D01*
X248710813Y-93519168D01*
X248711126Y-93160771D01*
X249871202Y-93160771D01*
X249383297Y-93362369D01*
X249009681Y-93735334D01*
X248807231Y-94222885D01*
X248806771Y-94750798D01*
X249008369Y-95238703D01*
X249381334Y-95612319D01*
X249868885Y-95814769D01*
X250396798Y-95815229D01*
X250884703Y-95613631D01*
X251258319Y-95240666D01*
X251460769Y-94753115D01*
X251461229Y-94225202D01*
X251259631Y-93737297D01*
X250886666Y-93363681D01*
X250399115Y-93161231D01*
X249871202Y-93160771D01*
X248711126Y-93160771D01*
X248711187Y-93091000D01*
X254508000Y-93091000D01*
X254556601Y-93081333D01*
X254597803Y-93053803D01*
X254625333Y-93012601D01*
X254635000Y-92964000D01*
X254635000Y-85344000D01*
X254625333Y-85295399D01*
X254597803Y-85254197D01*
X254556601Y-85226667D01*
X254508000Y-85217000D01*
X252603000Y-85217000D01*
X252603000Y-82296000D01*
X252593333Y-82247399D01*
X252565803Y-82206197D01*
X252524601Y-82178667D01*
X252476000Y-82169000D01*
X240792000Y-82169000D01*
X223550561Y-82169000D01*
X223951284Y-82089291D01*
X224316909Y-81844988D01*
X224561212Y-81479363D01*
X224647000Y-81048079D01*
X224647000Y-81003921D01*
X224561212Y-80572637D01*
X224316909Y-80207012D01*
X224223939Y-80144891D01*
X235079829Y-80144891D01*
X234849297Y-80240145D01*
X234672765Y-80416369D01*
X234577109Y-80646735D01*
X234576891Y-80896171D01*
X234672145Y-81126703D01*
X234848369Y-81303235D01*
X235078735Y-81398891D01*
X235328171Y-81399109D01*
X235558703Y-81303855D01*
X235735235Y-81127631D01*
X235830891Y-80897265D01*
X235831109Y-80647829D01*
X235735855Y-80417297D01*
X235559631Y-80240765D01*
X235329265Y-80145109D01*
X235079829Y-80144891D01*
X236349829Y-80144891D01*
X236119297Y-80240145D01*
X235942765Y-80416369D01*
X235847109Y-80646735D01*
X235846891Y-80896171D01*
X235942145Y-81126703D01*
X236118369Y-81303235D01*
X236348735Y-81398891D01*
X236598171Y-81399109D01*
X236828703Y-81303855D01*
X237005235Y-81127631D01*
X237100891Y-80897265D01*
X237101109Y-80647829D01*
X237005855Y-80417297D01*
X236829631Y-80240765D01*
X236599265Y-80145109D01*
X236349829Y-80144891D01*
X235079829Y-80144891D01*
X235079829Y-80144891D01*
X224223939Y-80144891D01*
X223951284Y-79962709D01*
X223520000Y-79876921D01*
X217645406Y-79876921D01*
X217645406Y-78598000D01*
X217621215Y-78473316D01*
X217549229Y-78363730D01*
X217440555Y-78290375D01*
X217312000Y-78264594D01*
X216012000Y-78264594D01*
X205199406Y-78264594D01*
X205199406Y-77074000D01*
X205175215Y-76949316D01*
X205103229Y-76839730D01*
X204994555Y-76766375D01*
X204866000Y-76740594D01*
X203566000Y-76740594D01*
X176327901Y-76740594D01*
X176394891Y-76579265D01*
X176395109Y-76329829D01*
X176299855Y-76099297D01*
X176123631Y-75922765D01*
X175893265Y-75827109D01*
X175643829Y-75826891D01*
X152019000Y-75826891D01*
X152019000Y-74810891D01*
X183263829Y-74810891D01*
X183033297Y-74906145D01*
X182856765Y-75082369D01*
X182761109Y-75312735D01*
X182760891Y-75562171D01*
X182856145Y-75792703D01*
X183032369Y-75969235D01*
X183262735Y-76064891D01*
X183512171Y-76065109D01*
X183742703Y-75969855D01*
X183919235Y-75793631D01*
X184014891Y-75563265D01*
X184015109Y-75313829D01*
X183919855Y-75083297D01*
X183743631Y-74906765D01*
X183513265Y-74811109D01*
X183263829Y-74810891D01*
X152019000Y-74810891D01*
X152019000Y-74556891D01*
X238381829Y-74556891D01*
X238151297Y-74652145D01*
X237974765Y-74828369D01*
X237879109Y-75058735D01*
X237878891Y-75308171D01*
X237974145Y-75538703D01*
X238150369Y-75715235D01*
X238380735Y-75810891D01*
X238630171Y-75811109D01*
X238860703Y-75715855D01*
X239037235Y-75539631D01*
X239132891Y-75309265D01*
X239133109Y-75059829D01*
X239037855Y-74829297D01*
X238861631Y-74652765D01*
X238631265Y-74557109D01*
X238381829Y-74556891D01*
X152019000Y-74556891D01*
X152019000Y-71660594D01*
X166990000Y-71660594D01*
X166865316Y-71684785D01*
X166755730Y-71756771D01*
X166682375Y-71865445D01*
X166656594Y-71994000D01*
X166656594Y-73294000D01*
X166680785Y-73418684D01*
X166752771Y-73528270D01*
X166861445Y-73601625D01*
X166990000Y-73627406D01*
X168290000Y-73627406D01*
X168414684Y-73603215D01*
X168524270Y-73531229D01*
X168597625Y-73422555D01*
X168623406Y-73294000D01*
X168623406Y-71994000D01*
X168599215Y-71869316D01*
X168527229Y-71759730D01*
X168418555Y-71686375D01*
X168290000Y-71660594D01*
X166990000Y-71660594D01*
X152019000Y-71660594D01*
X152019000Y-71628000D01*
X152009333Y-71579399D01*
X151981803Y-71538197D01*
X151940601Y-71510667D01*
X151931673Y-71508891D01*
X193931829Y-71508891D01*
X193701297Y-71604145D01*
X193524765Y-71780369D01*
X193429109Y-72010735D01*
X193428891Y-72260171D01*
X193524145Y-72490703D01*
X193700369Y-72667235D01*
X193930735Y-72762891D01*
X194180171Y-72763109D01*
X194410703Y-72667855D01*
X194587235Y-72491631D01*
X194682891Y-72261265D01*
X194682894Y-72256921D01*
X220980000Y-72256921D01*
X220548716Y-72342709D01*
X220183091Y-72587012D01*
X219938788Y-72952637D01*
X219853000Y-73383921D01*
X219853000Y-73428079D01*
X219938788Y-73859363D01*
X220183091Y-74224988D01*
X220548716Y-74469291D01*
X220980000Y-74555079D01*
X221411284Y-74469291D01*
X221776909Y-74224988D01*
X221894573Y-74048891D01*
X249811829Y-74048891D01*
X249581297Y-74144145D01*
X249404765Y-74320369D01*
X249309109Y-74550735D01*
X249308891Y-74800171D01*
X249404145Y-75030703D01*
X249580369Y-75207235D01*
X249810735Y-75302891D01*
X250060171Y-75303109D01*
X250290703Y-75207855D01*
X250467235Y-75031631D01*
X250562891Y-74801265D01*
X250563109Y-74551829D01*
X250467855Y-74321297D01*
X250291631Y-74144765D01*
X250061265Y-74049109D01*
X249811829Y-74048891D01*
X221894573Y-74048891D01*
X222021212Y-73859363D01*
X222107000Y-73428079D01*
X222107000Y-73383921D01*
X222021212Y-72952637D01*
X221776909Y-72587012D01*
X221411284Y-72342709D01*
X220980000Y-72256921D01*
X194682894Y-72256921D01*
X194683109Y-72011829D01*
X194587855Y-71781297D01*
X194569482Y-71762891D01*
X235079829Y-71762891D01*
X234849297Y-71858145D01*
X234672765Y-72034369D01*
X234577109Y-72264735D01*
X234576891Y-72514171D01*
X234672145Y-72744703D01*
X234848369Y-72921235D01*
X235078735Y-73016891D01*
X235328171Y-73017109D01*
X235558703Y-72921855D01*
X235735235Y-72745631D01*
X235830891Y-72515265D01*
X235831109Y-72265829D01*
X235735855Y-72035297D01*
X235559631Y-71858765D01*
X235329265Y-71763109D01*
X235079829Y-71762891D01*
X194569482Y-71762891D01*
X194411631Y-71604765D01*
X194181265Y-71509109D01*
X193931829Y-71508891D01*
X151931673Y-71508891D01*
X151892000Y-71501000D01*
X143764000Y-71501000D01*
X119249000Y-71501000D01*
X119249000Y-67961000D01*
X136883921Y-67961000D01*
X136452637Y-68046788D01*
X136087012Y-68291091D01*
X135842709Y-68656716D01*
X135756921Y-69088000D01*
X135842709Y-69519284D01*
X136087012Y-69884909D01*
X136452637Y-70129212D01*
X136883921Y-70215000D01*
X136928079Y-70215000D01*
X137359363Y-70129212D01*
X137724988Y-69884909D01*
X137969291Y-69519284D01*
X138055079Y-69088000D01*
X137969291Y-68656716D01*
X137770093Y-68358594D01*
X147686000Y-68358594D01*
X147561316Y-68382785D01*
X147451730Y-68454771D01*
X147378375Y-68563445D01*
X147352594Y-68692000D01*
X147352594Y-69992000D01*
X147376785Y-70116684D01*
X147448771Y-70226270D01*
X147557445Y-70299625D01*
X147686000Y-70325406D01*
X148986000Y-70325406D01*
X149110684Y-70301215D01*
X149220270Y-70229229D01*
X149293625Y-70120555D01*
X149319406Y-69992000D01*
X149319406Y-68692000D01*
X149295215Y-68567316D01*
X149223229Y-68457730D01*
X149114555Y-68384375D01*
X148986000Y-68358594D01*
X147686000Y-68358594D01*
X137770093Y-68358594D01*
X137724988Y-68291091D01*
X137359363Y-68046788D01*
X136928079Y-67961000D01*
X136883921Y-67961000D01*
X119249000Y-67961000D01*
X119249000Y-65421000D01*
X129263921Y-65421000D01*
X128832637Y-65506788D01*
X128467012Y-65751091D01*
X128222709Y-66116716D01*
X128136921Y-66548000D01*
X128222709Y-66979284D01*
X128467012Y-67344909D01*
X128832637Y-67589212D01*
X129263921Y-67675000D01*
X129308079Y-67675000D01*
X129739363Y-67589212D01*
X130104988Y-67344909D01*
X130349291Y-66979284D01*
X130435079Y-66548000D01*
X130408608Y-66414921D01*
X173990000Y-66414921D01*
X173558716Y-66500709D01*
X173193091Y-66745012D01*
X172948788Y-67110637D01*
X172863000Y-67541921D01*
X172863000Y-67586079D01*
X172948788Y-68017363D01*
X173193091Y-68382988D01*
X173558716Y-68627291D01*
X173990000Y-68713079D01*
X174421284Y-68627291D01*
X174786909Y-68382988D01*
X175031212Y-68017363D01*
X175064384Y-67850594D01*
X203566000Y-67850594D01*
X203441316Y-67874785D01*
X203331730Y-67946771D01*
X203258375Y-68055445D01*
X203232594Y-68184000D01*
X203232594Y-69484000D01*
X203256785Y-69608684D01*
X203328771Y-69718270D01*
X203437445Y-69791625D01*
X203566000Y-69817406D01*
X204866000Y-69817406D01*
X204990684Y-69793215D01*
X205100270Y-69721229D01*
X205162798Y-69628594D01*
X216012000Y-69628594D01*
X215887316Y-69652785D01*
X215777730Y-69724771D01*
X215704375Y-69833445D01*
X215678594Y-69962000D01*
X215678594Y-71262000D01*
X215702785Y-71386684D01*
X215774771Y-71496270D01*
X215883445Y-71569625D01*
X216012000Y-71595406D01*
X217312000Y-71595406D01*
X217436684Y-71571215D01*
X217546270Y-71499229D01*
X217619625Y-71390555D01*
X217645406Y-71262000D01*
X217645406Y-69962000D01*
X217621215Y-69837316D01*
X217551306Y-69730891D01*
X230253829Y-69730891D01*
X230023297Y-69826145D01*
X229846765Y-70002369D01*
X229751109Y-70232735D01*
X229750891Y-70482171D01*
X229846145Y-70712703D01*
X230022369Y-70889235D01*
X230252735Y-70984891D01*
X230502171Y-70985109D01*
X230732703Y-70889855D01*
X230909235Y-70713631D01*
X231004891Y-70483265D01*
X231005109Y-70233829D01*
X230909855Y-70003297D01*
X230733631Y-69826765D01*
X230503265Y-69731109D01*
X230253829Y-69730891D01*
X217551306Y-69730891D01*
X217549229Y-69727730D01*
X217440555Y-69654375D01*
X217312000Y-69628594D01*
X216012000Y-69628594D01*
X205162798Y-69628594D01*
X205173625Y-69612555D01*
X205199406Y-69484000D01*
X205199406Y-68184000D01*
X205175215Y-68059316D01*
X205103229Y-67949730D01*
X204994555Y-67876375D01*
X204866000Y-67850594D01*
X203566000Y-67850594D01*
X175064384Y-67850594D01*
X175117000Y-67586079D01*
X175117000Y-67541921D01*
X175031212Y-67110637D01*
X174786909Y-66745012D01*
X174421284Y-66500709D01*
X173990000Y-66414921D01*
X130408608Y-66414921D01*
X130349291Y-66116716D01*
X130104988Y-65751091D01*
X129739363Y-65506788D01*
X129308079Y-65421000D01*
X129263921Y-65421000D01*
X119249000Y-65421000D01*
X119249000Y-63634891D01*
X183771829Y-63634891D01*
X183541297Y-63730145D01*
X183364765Y-63906369D01*
X183269109Y-64136735D01*
X183268891Y-64386171D01*
X183364145Y-64616703D01*
X183540369Y-64793235D01*
X183770735Y-64888891D01*
X184020171Y-64889109D01*
X184250703Y-64793855D01*
X184427235Y-64617631D01*
X184518893Y-64396891D01*
X196725829Y-64396891D01*
X196495297Y-64492145D01*
X196318765Y-64668369D01*
X196223109Y-64898735D01*
X196222891Y-65148171D01*
X196318145Y-65378703D01*
X196494369Y-65555235D01*
X196724735Y-65650891D01*
X196974171Y-65651109D01*
X197204703Y-65555855D01*
X197381235Y-65379631D01*
X197476891Y-65149265D01*
X197477109Y-64899829D01*
X197381855Y-64669297D01*
X197205631Y-64492765D01*
X196975265Y-64397109D01*
X196725829Y-64396891D01*
X184518893Y-64396891D01*
X184522891Y-64387265D01*
X184523104Y-64142891D01*
X230761829Y-64142891D01*
X230531297Y-64238145D01*
X230354765Y-64414369D01*
X230259109Y-64644735D01*
X230258891Y-64894171D01*
X230354145Y-65124703D01*
X230507287Y-65278113D01*
X230354765Y-65430369D01*
X230259109Y-65660735D01*
X230258891Y-65910171D01*
X230354145Y-66140703D01*
X230507287Y-66294113D01*
X230354765Y-66446369D01*
X230259109Y-66676735D01*
X230258891Y-66926171D01*
X230354145Y-67156703D01*
X230507287Y-67310113D01*
X230377887Y-67439287D01*
X230225631Y-67286765D01*
X229995265Y-67191109D01*
X229745829Y-67190891D01*
X229515297Y-67286145D01*
X229361887Y-67439287D01*
X229209631Y-67286765D01*
X228979265Y-67191109D01*
X228729829Y-67190891D01*
X228499297Y-67286145D01*
X228345887Y-67439287D01*
X228193631Y-67286765D01*
X227963265Y-67191109D01*
X227713829Y-67190891D01*
X227483297Y-67286145D01*
X227306765Y-67462369D01*
X227211109Y-67692735D01*
X227210891Y-67942171D01*
X227306145Y-68172703D01*
X227459287Y-68326113D01*
X227306765Y-68478369D01*
X227211109Y-68708735D01*
X227210891Y-68958171D01*
X227306145Y-69188703D01*
X227482369Y-69365235D01*
X227712735Y-69460891D01*
X227962171Y-69461109D01*
X228192703Y-69365855D01*
X228346113Y-69212713D01*
X228498369Y-69365235D01*
X228728735Y-69460891D01*
X228978171Y-69461109D01*
X229208703Y-69365855D01*
X229362113Y-69212713D01*
X229514369Y-69365235D01*
X229744735Y-69460891D01*
X229994171Y-69461109D01*
X230224703Y-69365855D01*
X230378113Y-69212713D01*
X230530369Y-69365235D01*
X230760735Y-69460891D01*
X231010171Y-69461109D01*
X231240703Y-69365855D01*
X231417235Y-69189631D01*
X231512891Y-68959265D01*
X231513109Y-68709829D01*
X231417855Y-68479297D01*
X231264713Y-68325887D01*
X231417235Y-68173631D01*
X231512891Y-67943265D01*
X231513109Y-67693829D01*
X231417855Y-67463297D01*
X231264713Y-67309887D01*
X231383916Y-67190891D01*
X232031829Y-67190891D01*
X231801297Y-67286145D01*
X231624765Y-67462369D01*
X231529109Y-67692735D01*
X231528891Y-67942171D01*
X231624145Y-68172703D01*
X231777287Y-68326113D01*
X231624765Y-68478369D01*
X231529109Y-68708735D01*
X231528891Y-68958171D01*
X231624145Y-69188703D01*
X231800369Y-69365235D01*
X232030735Y-69460891D01*
X232280171Y-69461109D01*
X232510703Y-69365855D01*
X232664113Y-69212713D01*
X232816369Y-69365235D01*
X233046735Y-69460891D01*
X233296171Y-69461109D01*
X233526703Y-69365855D01*
X233680113Y-69212713D01*
X233832369Y-69365235D01*
X234062735Y-69460891D01*
X234312171Y-69461109D01*
X234542703Y-69365855D01*
X234696113Y-69212713D01*
X234848369Y-69365235D01*
X235078735Y-69460891D01*
X235328171Y-69461109D01*
X235558703Y-69365855D01*
X235712113Y-69212713D01*
X235864369Y-69365235D01*
X236094735Y-69460891D01*
X236344171Y-69461109D01*
X236574703Y-69365855D01*
X236751235Y-69189631D01*
X236846891Y-68959265D01*
X236847109Y-68709829D01*
X236751855Y-68479297D01*
X236598713Y-68325887D01*
X236751235Y-68173631D01*
X236846891Y-67943265D01*
X236847109Y-67693829D01*
X236751855Y-67463297D01*
X236575631Y-67286765D01*
X236345265Y-67191109D01*
X236095829Y-67190891D01*
X235865297Y-67286145D01*
X235711887Y-67439287D01*
X235559631Y-67286765D01*
X235329265Y-67191109D01*
X235079829Y-67190891D01*
X234849297Y-67286145D01*
X234695887Y-67439287D01*
X234543631Y-67286765D01*
X234313265Y-67191109D01*
X234063829Y-67190891D01*
X233833297Y-67286145D01*
X233679887Y-67439287D01*
X233527631Y-67286765D01*
X233297265Y-67191109D01*
X233047829Y-67190891D01*
X232817297Y-67286145D01*
X232663887Y-67439287D01*
X232511631Y-67286765D01*
X232281265Y-67191109D01*
X232031829Y-67190891D01*
X231383916Y-67190891D01*
X231417235Y-67157631D01*
X231512891Y-66927265D01*
X231513109Y-66677829D01*
X231417855Y-66447297D01*
X231264713Y-66293887D01*
X231417235Y-66141631D01*
X231512891Y-65911265D01*
X231513109Y-65661829D01*
X231417855Y-65431297D01*
X231264713Y-65277887D01*
X231417235Y-65125631D01*
X231512891Y-64895265D01*
X231513109Y-64645829D01*
X231417855Y-64415297D01*
X231241631Y-64238765D01*
X231011265Y-64143109D01*
X230761829Y-64142891D01*
X184523104Y-64142891D01*
X184523109Y-64137829D01*
X184427855Y-63907297D01*
X184251631Y-63730765D01*
X184021265Y-63635109D01*
X183771829Y-63634891D01*
X119249000Y-63634891D01*
X119249000Y-59468594D01*
X147686000Y-59468594D01*
X147561316Y-59492785D01*
X147451730Y-59564771D01*
X147378375Y-59673445D01*
X147352594Y-59802000D01*
X147352594Y-61102000D01*
X147376785Y-61226684D01*
X147448771Y-61336270D01*
X147557445Y-61409625D01*
X147686000Y-61435406D01*
X148986000Y-61435406D01*
X149110684Y-61411215D01*
X149220270Y-61339229D01*
X149293625Y-61230555D01*
X149319406Y-61102000D01*
X149319406Y-60992594D01*
X167244000Y-60992594D01*
X167119316Y-61016785D01*
X167009730Y-61088771D01*
X166936375Y-61197445D01*
X166910594Y-61326000D01*
X166910594Y-62626000D01*
X166934785Y-62750684D01*
X167006771Y-62860270D01*
X167115445Y-62933625D01*
X167244000Y-62959406D01*
X168544000Y-62959406D01*
X168668684Y-62935215D01*
X168778270Y-62863229D01*
X168851625Y-62754555D01*
X168877406Y-62626000D01*
X168877406Y-61326000D01*
X168853215Y-61201316D01*
X168783306Y-61094891D01*
X172595829Y-61094891D01*
X172365297Y-61190145D01*
X172188765Y-61366369D01*
X172093109Y-61596735D01*
X172092891Y-61846171D01*
X172188145Y-62076703D01*
X172364369Y-62253235D01*
X172594735Y-62348891D01*
X172844171Y-62349109D01*
X173074703Y-62253855D01*
X173251235Y-62077631D01*
X173346891Y-61847265D01*
X173347109Y-61597829D01*
X173251855Y-61367297D01*
X173075631Y-61190765D01*
X172845265Y-61095109D01*
X172595829Y-61094891D01*
X168783306Y-61094891D01*
X168781229Y-61091730D01*
X168672555Y-61018375D01*
X168544000Y-60992594D01*
X167244000Y-60992594D01*
X149319406Y-60992594D01*
X149319406Y-59802000D01*
X149295215Y-59677316D01*
X149223229Y-59567730D01*
X149114555Y-59494375D01*
X148986000Y-59468594D01*
X147686000Y-59468594D01*
X119249000Y-59468594D01*
X119249000Y-58794921D01*
X176530000Y-58794921D01*
X176098716Y-58880709D01*
X175733091Y-59125012D01*
X175488788Y-59490637D01*
X175403000Y-59921921D01*
X175403000Y-59966079D01*
X175488788Y-60397363D01*
X175733091Y-60762988D01*
X176098716Y-61007291D01*
X176530000Y-61093079D01*
X176961284Y-61007291D01*
X177326909Y-60762988D01*
X177571212Y-60397363D01*
X177657000Y-59966079D01*
X177657000Y-59921921D01*
X177571212Y-59490637D01*
X177326909Y-59125012D01*
X176961284Y-58880709D01*
X176530000Y-58794921D01*
X119249000Y-58794921D01*
X119249000Y-56014891D01*
X145417829Y-56014891D01*
X145187297Y-56110145D01*
X145010765Y-56286369D01*
X144915109Y-56516735D01*
X144914891Y-56766171D01*
X145010145Y-56996703D01*
X145036287Y-57022891D01*
X145010765Y-57048369D01*
X144915109Y-57278735D01*
X144914891Y-57528171D01*
X145010145Y-57758703D01*
X145036287Y-57784891D01*
X145010765Y-57810369D01*
X144915109Y-58040735D01*
X144914891Y-58290171D01*
X145010145Y-58520703D01*
X145186369Y-58697235D01*
X145416735Y-58792891D01*
X145666171Y-58793109D01*
X145896703Y-58697855D01*
X145922891Y-58671713D01*
X145948369Y-58697235D01*
X146178735Y-58792891D01*
X146428171Y-58793109D01*
X146658703Y-58697855D01*
X146835235Y-58521631D01*
X146930891Y-58291265D01*
X146931109Y-58041829D01*
X146835855Y-57811297D01*
X146809713Y-57785109D01*
X146835235Y-57759631D01*
X146930891Y-57529265D01*
X146931109Y-57279829D01*
X146835855Y-57049297D01*
X146809713Y-57023109D01*
X146835235Y-56997631D01*
X146930891Y-56767265D01*
X146931109Y-56517829D01*
X146835855Y-56287297D01*
X146659631Y-56110765D01*
X146429265Y-56015109D01*
X146179829Y-56014891D01*
X159133829Y-56014891D01*
X158903297Y-56110145D01*
X158726765Y-56286369D01*
X158631109Y-56516735D01*
X158630891Y-56766171D01*
X158726145Y-56996703D01*
X158902369Y-57173235D01*
X159132735Y-57268891D01*
X159382171Y-57269109D01*
X159612703Y-57173855D01*
X159789235Y-56997631D01*
X159884891Y-56767265D01*
X159885109Y-56517829D01*
X159789855Y-56287297D01*
X159613631Y-56110765D01*
X159383265Y-56015109D01*
X159133829Y-56014891D01*
X146179829Y-56014891D01*
X146179829Y-56014891D01*
X145949297Y-56110145D01*
X145923109Y-56136287D01*
X145897631Y-56110765D01*
X145667265Y-56015109D01*
X145417829Y-56014891D01*
X119249000Y-56014891D01*
X119249000Y-53728891D01*
X142115829Y-53728891D01*
X141885297Y-53824145D01*
X141708765Y-54000369D01*
X141613109Y-54230735D01*
X141612891Y-54480171D01*
X141708145Y-54710703D01*
X141884369Y-54887235D01*
X142114735Y-54982891D01*
X142364171Y-54983109D01*
X142594703Y-54887855D01*
X142771235Y-54711631D01*
X142866891Y-54481265D01*
X142867109Y-54231829D01*
X142771855Y-54001297D01*
X142595631Y-53824765D01*
X142365265Y-53729109D01*
X142115829Y-53728891D01*
X148211829Y-53728891D01*
X147981297Y-53824145D01*
X147804765Y-54000369D01*
X147709109Y-54230735D01*
X147708891Y-54480171D01*
X147804145Y-54710703D01*
X147980369Y-54887235D01*
X148210735Y-54982891D01*
X148460171Y-54983109D01*
X148690703Y-54887855D01*
X148867235Y-54711631D01*
X148962891Y-54481265D01*
X148963109Y-54231829D01*
X148867855Y-54001297D01*
X148691631Y-53824765D01*
X148461265Y-53729109D01*
X148211829Y-53728891D01*
X142115829Y-53728891D01*
X142115829Y-53728891D01*
X119249000Y-53728891D01*
X119249000Y-51823891D01*
X155831829Y-51823891D01*
X155601297Y-51919145D01*
X155424765Y-52095369D01*
X155329109Y-52325735D01*
X155328891Y-52575171D01*
X155424145Y-52805703D01*
X155600369Y-52982235D01*
X155830735Y-53077891D01*
X156080171Y-53078109D01*
X156310703Y-52982855D01*
X156487235Y-52806631D01*
X156582891Y-52576265D01*
X156583109Y-52326829D01*
X156487855Y-52096297D01*
X156311631Y-51919765D01*
X156081265Y-51824109D01*
X155831829Y-51823891D01*
X119249000Y-51823891D01*
X119249000Y-45396788D01*
X129765005Y-45396788D01*
X129313869Y-45583194D01*
X128968407Y-45928053D01*
X128781214Y-46378864D01*
X128780788Y-46866995D01*
X128967194Y-47318131D01*
X129312053Y-47663593D01*
X129762864Y-47850786D01*
X130250995Y-47851212D01*
X130702131Y-47664806D01*
X131047593Y-47319947D01*
X131128587Y-47124891D01*
X135511829Y-47124891D01*
X135281297Y-47220145D01*
X135104765Y-47396369D01*
X135009109Y-47626735D01*
X135008891Y-47876171D01*
X135104145Y-48106703D01*
X135280369Y-48283235D01*
X135510735Y-48378891D01*
X135760171Y-48379109D01*
X135990703Y-48283855D01*
X136167235Y-48107631D01*
X136262891Y-47877265D01*
X136263109Y-47627829D01*
X136168431Y-47398689D01*
X184912000Y-47398689D01*
X184456377Y-47489318D01*
X184070119Y-47747408D01*
X183812029Y-48133666D01*
X183721400Y-48589289D01*
X183721400Y-48946711D01*
X183812029Y-49402334D01*
X184070119Y-49788592D01*
X184456377Y-50046682D01*
X184912000Y-50137311D01*
X185367623Y-50046682D01*
X185753881Y-49788592D01*
X186011971Y-49402334D01*
X186102600Y-48946711D01*
X186102600Y-48589289D01*
X186011971Y-48133666D01*
X185753881Y-47747408D01*
X185367623Y-47489318D01*
X184912000Y-47398689D01*
X187452000Y-47398689D01*
X186996377Y-47489318D01*
X186610119Y-47747408D01*
X186352029Y-48133666D01*
X186261400Y-48589289D01*
X186261400Y-48946711D01*
X186352029Y-49402334D01*
X186610119Y-49788592D01*
X186996377Y-50046682D01*
X187452000Y-50137311D01*
X187907623Y-50046682D01*
X188293881Y-49788592D01*
X188551971Y-49402334D01*
X188642600Y-48946711D01*
X188642600Y-48589289D01*
X188551971Y-48133666D01*
X188293881Y-47747408D01*
X187907623Y-47489318D01*
X187452000Y-47398689D01*
X184912000Y-47398689D01*
X184912000Y-47398689D01*
X136168431Y-47398689D01*
X136167855Y-47397297D01*
X135991631Y-47220765D01*
X135761265Y-47125109D01*
X135511829Y-47124891D01*
X131128587Y-47124891D01*
X131234786Y-46869136D01*
X131235212Y-46381005D01*
X131048806Y-45929869D01*
X130703947Y-45584407D01*
X130253136Y-45397214D01*
X129765005Y-45396788D01*
X119249000Y-45396788D01*
X119249000Y-43314891D01*
X150243829Y-43314891D01*
X150013297Y-43410145D01*
X149836765Y-43586369D01*
X149741109Y-43816735D01*
X149740891Y-44066171D01*
X149836145Y-44296703D01*
X150012369Y-44473235D01*
X150242735Y-44568891D01*
X150492171Y-44569109D01*
X150722703Y-44473855D01*
X150899235Y-44297631D01*
X150994891Y-44067265D01*
X150995109Y-43817829D01*
X150899855Y-43587297D01*
X150723631Y-43410765D01*
X150493265Y-43315109D01*
X150243829Y-43314891D01*
X119249000Y-43314891D01*
X119249000Y-37796684D01*
X121546182Y-37796684D01*
X120874440Y-38074242D01*
X120360048Y-38587736D01*
X120081318Y-39258993D01*
X120080684Y-39985818D01*
X120358242Y-40657560D01*
X120871736Y-41171952D01*
X121542993Y-41450682D01*
X122269818Y-41451316D01*
X122941560Y-41173758D01*
X123455952Y-40660264D01*
X123734682Y-39989007D01*
X123735316Y-39262182D01*
X123457758Y-38590440D01*
X122944264Y-38076048D01*
X122273007Y-37797318D01*
X121546182Y-37796684D01*
X119249000Y-37796684D01*
X119249000Y-36964891D01*
X127891829Y-36964891D01*
X127661297Y-37060145D01*
X127484765Y-37236369D01*
X127389109Y-37466735D01*
X127388891Y-37716171D01*
X127484145Y-37946703D01*
X127660369Y-38123235D01*
X127890735Y-38218891D01*
X128140171Y-38219109D01*
X128370703Y-38123855D01*
X128547235Y-37947631D01*
X128609913Y-37796684D01*
X132746182Y-37796684D01*
X132074440Y-38074242D01*
X131560048Y-38587736D01*
X131281318Y-39258993D01*
X131280684Y-39985818D01*
X131558242Y-40657560D01*
X132071736Y-41171952D01*
X132742993Y-41450682D01*
X133469818Y-41451316D01*
X134141560Y-41173758D01*
X134286680Y-41028891D01*
X145163829Y-41028891D01*
X144933297Y-41124145D01*
X144756765Y-41300369D01*
X144661109Y-41530735D01*
X144660891Y-41780171D01*
X144756145Y-42010703D01*
X144932369Y-42187235D01*
X145162735Y-42282891D01*
X145412171Y-42283109D01*
X145642703Y-42187855D01*
X145785916Y-42044891D01*
X178310829Y-42044891D01*
X178080297Y-42140145D01*
X177903765Y-42316369D01*
X177808109Y-42546735D01*
X177807891Y-42796171D01*
X177903145Y-43026703D01*
X178079369Y-43203235D01*
X178309735Y-43298891D01*
X178559171Y-43299109D01*
X178789703Y-43203855D01*
X178966235Y-43027631D01*
X179061891Y-42797265D01*
X179062109Y-42547829D01*
X178966855Y-42317297D01*
X178790631Y-42140765D01*
X178560265Y-42045109D01*
X178310829Y-42044891D01*
X145785916Y-42044891D01*
X145819235Y-42011631D01*
X145914891Y-41781265D01*
X145915109Y-41531829D01*
X145819855Y-41301297D01*
X145643631Y-41124765D01*
X145413265Y-41029109D01*
X145163829Y-41028891D01*
X134286680Y-41028891D01*
X134655952Y-40660264D01*
X134934682Y-39989007D01*
X134935104Y-39504891D01*
X145163829Y-39504891D01*
X144933297Y-39600145D01*
X144756765Y-39776369D01*
X144661109Y-40006735D01*
X144660891Y-40256171D01*
X144756145Y-40486703D01*
X144932369Y-40663235D01*
X145162735Y-40758891D01*
X145412171Y-40759109D01*
X145642703Y-40663855D01*
X145819235Y-40487631D01*
X145914891Y-40257265D01*
X145915109Y-40007829D01*
X145819855Y-39777297D01*
X145801482Y-39758891D01*
X148592829Y-39758891D01*
X148362297Y-39854145D01*
X148185765Y-40030369D01*
X148090109Y-40260735D01*
X148089891Y-40510171D01*
X148185145Y-40740703D01*
X148361369Y-40917235D01*
X148591735Y-41012891D01*
X148841171Y-41013109D01*
X149071703Y-40917855D01*
X149248235Y-40741631D01*
X149343891Y-40511265D01*
X149344109Y-40261829D01*
X149248855Y-40031297D01*
X149072631Y-39854765D01*
X148842265Y-39759109D01*
X148592829Y-39758891D01*
X145801482Y-39758891D01*
X145643631Y-39600765D01*
X145413265Y-39505109D01*
X145163829Y-39504891D01*
X134935104Y-39504891D01*
X134935316Y-39262182D01*
X134657758Y-38590440D01*
X134144264Y-38076048D01*
X133473007Y-37797318D01*
X132746182Y-37796684D01*
X128609913Y-37796684D01*
X128642891Y-37717265D01*
X128643109Y-37467829D01*
X128547855Y-37237297D01*
X128371631Y-37060765D01*
X128141265Y-36965109D01*
X127891829Y-36964891D01*
X119249000Y-36964891D01*
X119249000Y-36456891D01*
X141099829Y-36456891D01*
X140869297Y-36552145D01*
X140692765Y-36728369D01*
X140597109Y-36958735D01*
X140596891Y-37208171D01*
X140692145Y-37438703D01*
X140845287Y-37592113D01*
X140692765Y-37744369D01*
X140597109Y-37974735D01*
X140596891Y-38224171D01*
X140692145Y-38454703D01*
X140868369Y-38631235D01*
X141098735Y-38726891D01*
X141348171Y-38727109D01*
X141578703Y-38631855D01*
X141732113Y-38478713D01*
X141884369Y-38631235D01*
X142114735Y-38726891D01*
X142364171Y-38727109D01*
X142594703Y-38631855D01*
X142748113Y-38478713D01*
X142900369Y-38631235D01*
X143130735Y-38726891D01*
X143380171Y-38727109D01*
X143610703Y-38631855D01*
X143787235Y-38455631D01*
X143882891Y-38225265D01*
X143883109Y-37975829D01*
X143787855Y-37745297D01*
X143634713Y-37591887D01*
X143787235Y-37439631D01*
X143882891Y-37209265D01*
X143883109Y-36959829D01*
X143787855Y-36729297D01*
X143611631Y-36552765D01*
X143381265Y-36457109D01*
X143131829Y-36456891D01*
X142901297Y-36552145D01*
X142747887Y-36705287D01*
X142595631Y-36552765D01*
X142365265Y-36457109D01*
X142115829Y-36456891D01*
X141885297Y-36552145D01*
X141731887Y-36705287D01*
X141579631Y-36552765D01*
X141349265Y-36457109D01*
X141099829Y-36456891D01*
X119249000Y-36456891D01*
X119249000Y-30896788D01*
X124765005Y-30896788D01*
X124313869Y-31083194D01*
X123968407Y-31428053D01*
X123781214Y-31878864D01*
X123780788Y-32366995D01*
X123967194Y-32818131D01*
X124312053Y-33163593D01*
X124762864Y-33350786D01*
X125250995Y-33351212D01*
X125702131Y-33164806D01*
X126047593Y-32819947D01*
X126234786Y-32369136D01*
X126235212Y-31881005D01*
X126048806Y-31429869D01*
X125703947Y-31084407D01*
X125253136Y-30897214D01*
X124765005Y-30896788D01*
X129765005Y-30896788D01*
X129313869Y-31083194D01*
X128968407Y-31428053D01*
X128781214Y-31878864D01*
X128780788Y-32366995D01*
X128967194Y-32818131D01*
X129312053Y-33163593D01*
X129762864Y-33350786D01*
X130250995Y-33351212D01*
X130702131Y-33164806D01*
X131047593Y-32819947D01*
X131234786Y-32369136D01*
X131235208Y-31884891D01*
X178183829Y-31884891D01*
X177953297Y-31980145D01*
X177776765Y-32156369D01*
X177681109Y-32386735D01*
X177680891Y-32636171D01*
X177776145Y-32866703D01*
X177952369Y-33043235D01*
X178182735Y-33138891D01*
X178432171Y-33139109D01*
X178662703Y-33043855D01*
X178839235Y-32867631D01*
X178934891Y-32637265D01*
X178935109Y-32387829D01*
X178839855Y-32157297D01*
X178663631Y-31980765D01*
X178433265Y-31885109D01*
X178183829Y-31884891D01*
X131235208Y-31884891D01*
X131235212Y-31881005D01*
X131048806Y-31429869D01*
X130703947Y-31084407D01*
X130253136Y-30897214D01*
X129765005Y-30896788D01*
X124765005Y-30896788D01*
X124765005Y-30896788D01*
X119249000Y-30896788D01*
X119249000Y-30106891D01*
X139829829Y-30106891D01*
X139599297Y-30202145D01*
X139422765Y-30378369D01*
X139327109Y-30608735D01*
X139326891Y-30858171D01*
X139422145Y-31088703D01*
X139598369Y-31265235D01*
X139828735Y-31360891D01*
X140078171Y-31361109D01*
X140308703Y-31265855D01*
X140485235Y-31089631D01*
X140580891Y-30859265D01*
X140581109Y-30609829D01*
X140485855Y-30379297D01*
X140309631Y-30202765D01*
X140079265Y-30107109D01*
X139829829Y-30106891D01*
X162181829Y-30106891D01*
X161951297Y-30202145D01*
X161774765Y-30378369D01*
X161679109Y-30608735D01*
X161678891Y-30858171D01*
X161774145Y-31088703D01*
X161950369Y-31265235D01*
X162180735Y-31360891D01*
X162430171Y-31361109D01*
X162660703Y-31265855D01*
X162837235Y-31089631D01*
X162932891Y-30859265D01*
X162933109Y-30609829D01*
X162837855Y-30379297D01*
X162661631Y-30202765D01*
X162431265Y-30107109D01*
X162181829Y-30106891D01*
X139829829Y-30106891D01*
X139829829Y-30106891D01*
X119249000Y-30106891D01*
X119249000Y-28836891D01*
X158371829Y-28836891D01*
X158141297Y-28932145D01*
X157964765Y-29108369D01*
X157869109Y-29338735D01*
X157868891Y-29588171D01*
X157964145Y-29818703D01*
X158140369Y-29995235D01*
X158370735Y-30090891D01*
X158620171Y-30091109D01*
X158850703Y-29995855D01*
X159027235Y-29819631D01*
X159122891Y-29589265D01*
X159123109Y-29339829D01*
X159027855Y-29109297D01*
X158851631Y-28932765D01*
X158621265Y-28837109D01*
X158371829Y-28836891D01*
X119249000Y-28836891D01*
X119249000Y-25788891D01*
X130431829Y-25788891D01*
X130201297Y-25884145D01*
X130024765Y-26060369D01*
X129929109Y-26290735D01*
X129928891Y-26540171D01*
X130024145Y-26770703D01*
X130200369Y-26947235D01*
X130430735Y-27042891D01*
X130680171Y-27043109D01*
X130910703Y-26947855D01*
X131087235Y-26771631D01*
X131182891Y-26541265D01*
X131183109Y-26291829D01*
X131087855Y-26061297D01*
X130911631Y-25884765D01*
X130681265Y-25789109D01*
X130431829Y-25788891D01*
X119249000Y-25788891D01*
X119249000Y-22506689D01*
X159512000Y-22506689D01*
X159056377Y-22597318D01*
X158670119Y-22855408D01*
X158412029Y-23241666D01*
X158321400Y-23697289D01*
X158321400Y-24054711D01*
X158412029Y-24510334D01*
X158670119Y-24896592D01*
X159056377Y-25154682D01*
X159512000Y-25245311D01*
X159967623Y-25154682D01*
X160353881Y-24896592D01*
X160611971Y-24510334D01*
X160702600Y-24054711D01*
X160702600Y-23697289D01*
X160611971Y-23241666D01*
X160353881Y-22855408D01*
X159967623Y-22597318D01*
X159512000Y-22506689D01*
X162052000Y-22506689D01*
X161596377Y-22597318D01*
X161210119Y-22855408D01*
X160952029Y-23241666D01*
X160861400Y-23697289D01*
X160861400Y-24054711D01*
X160952029Y-24510334D01*
X161210119Y-24896592D01*
X161596377Y-25154682D01*
X162052000Y-25245311D01*
X162507623Y-25154682D01*
X162893881Y-24896592D01*
X163151971Y-24510334D01*
X163242600Y-24054711D01*
X163242600Y-23697289D01*
X163151971Y-23241666D01*
X162893881Y-22855408D01*
X162507623Y-22597318D01*
X162052000Y-22506689D01*
X167132000Y-22506689D01*
X166676377Y-22597318D01*
X166290119Y-22855408D01*
X166032029Y-23241666D01*
X165941400Y-23697289D01*
X165941400Y-24054711D01*
X166032029Y-24510334D01*
X166290119Y-24896592D01*
X166676377Y-25154682D01*
X167132000Y-25245311D01*
X167587623Y-25154682D01*
X167973881Y-24896592D01*
X168231971Y-24510334D01*
X168322600Y-24054711D01*
X168322600Y-23697289D01*
X168231971Y-23241666D01*
X167973881Y-22855408D01*
X167587623Y-22597318D01*
X167132000Y-22506689D01*
X169672000Y-22506689D01*
X169216377Y-22597318D01*
X168830119Y-22855408D01*
X168572029Y-23241666D01*
X168481400Y-23697289D01*
X168481400Y-24054711D01*
X168572029Y-24510334D01*
X168830119Y-24896592D01*
X169216377Y-25154682D01*
X169672000Y-25245311D01*
X170127623Y-25154682D01*
X170513881Y-24896592D01*
X170771971Y-24510334D01*
X170862600Y-24054711D01*
X170862600Y-23697289D01*
X170771971Y-23241666D01*
X170513881Y-22855408D01*
X170127623Y-22597318D01*
X169772070Y-22526594D01*
X171348400Y-22526594D01*
X171223716Y-22550785D01*
X171114130Y-22622771D01*
X171040775Y-22731445D01*
X171014994Y-22860000D01*
X171014994Y-24892000D01*
X171039185Y-25016684D01*
X171111171Y-25126270D01*
X171219845Y-25199625D01*
X171348400Y-25225406D01*
X173075600Y-25225406D01*
X173200284Y-25201215D01*
X173309870Y-25129229D01*
X173383225Y-25020555D01*
X173409006Y-24892000D01*
X173409006Y-22860000D01*
X173384815Y-22735316D01*
X173312829Y-22625730D01*
X173204155Y-22552375D01*
X173075600Y-22526594D01*
X171348400Y-22526594D01*
X169772070Y-22526594D01*
X169672000Y-22506689D01*
X167132000Y-22506689D01*
X167132000Y-22506689D01*
X162052000Y-22506689D01*
X162052000Y-22506689D01*
X159512000Y-22506689D01*
X159512000Y-22506689D01*
X119249000Y-22506689D01*
X119249000Y-19681000D01*
M02*
